<svg width="1512" height="885" viewBox="0 0 1512 885" fill="none" xmlns="http://www.w3.org/2000/svg">
<g clip-path="url(#clip0)">
<g opacity="0.19">
<path opacity="0.19" d="M74.3255 14.9664C73.7809 14.5423 73.2311 14.1302 72.675 13.7305L-19.5881 102.309C-19.1679 102.839 -18.7372 103.367 -18.2982 103.893L74.3255 14.9664Z" fill="#4181E0"/>
<path opacity="0.19" d="M51.7868 3.5937C51.0206 3.37572 50.2522 3.1761 49.4808 2.98602L-30.7776 80.0402C-30.579 80.7819 -30.3709 81.5205 -30.1441 82.2542L51.7868 3.5937Z" fill="#4181E0"/>
<path opacity="0.19" d="M67.6185 10.4027C67.0112 10.04 66.3965 9.68923 65.7756 9.35042L-24.1501 95.6853C-23.7947 96.2794 -23.4289 96.8695 -23.0536 97.4556L67.6185 10.4027Z" fill="#4181E0"/>
<path opacity="0.19" d="M60.137 6.5802C59.4565 6.28544 58.7728 6.00203 58.085 5.72995L-27.9197 88.3008C-27.6364 88.9622 -27.3416 89.6195 -27.0332 90.2709L60.137 6.5802Z" fill="#4181E0"/>
<path opacity="0.19" d="M42.3804 1.62555C41.5085 1.50542 40.6357 1.40526 39.7607 1.31935L-32.5154 70.709C-32.4255 71.549 -32.3209 72.388 -32.1965 73.224L42.3804 1.62555Z" fill="#4181E0"/>
<path opacity="0.19" d="M79.5889 19.508C79.3411 19.2694 79.0923 19.0419 78.8435 18.8112L-14.2966 108.233C-14.0552 108.472 -13.8158 108.711 -13.5712 108.949C-13.3255 109.188 -13.0736 109.415 -12.8248 109.646L80.3143 20.2238C80.0729 19.9852 79.8335 19.7418 79.5889 19.508Z" fill="#4181E0"/>
<path opacity="0.19" d="M31.5678 1C30.5402 1.02017 29.5137 1.06473 28.4893 1.13358L-32.7073 59.8875C-32.7784 60.871 -32.8254 61.8563 -32.8484 62.843L31.5678 1Z" fill="#4181E0"/>
<path opacity="0.19" d="M-31.2544 50.3106L18.5134 2.52707C17.1879 2.8129 15.8687 3.13897 14.5568 3.50538L-30.2373 46.5104C-30.6199 47.7681 -30.9596 49.0348 -31.2544 50.3106Z" fill="#4181E0"/>
<path opacity="0.19" d="M98.7258 68.5661C98.7948 67.5816 98.8419 66.5961 98.8649 65.6105L34.4497 127.453C35.4773 127.431 36.5038 127.387 37.5283 127.32L98.7258 68.5661Z" fill="#4181E0"/>
<path opacity="0.19" d="M98.5346 57.7463C98.4436 56.9065 98.3402 56.0674 98.2158 55.2306L23.6399 126.83C24.5107 126.949 25.3835 127.05 26.2595 127.136L98.5346 57.7463Z" fill="#4181E0"/>
<path opacity="0.19" d="M96.2558 81.9411C96.6363 80.6836 96.976 79.417 97.2729 78.1425L47.5051 125.926C48.8306 125.638 50.1488 125.311 51.4618 124.947L96.2558 81.9411Z" fill="#4181E0"/>
<path opacity="0.19" d="M66.4666 118.723C76.0712 113.265 84.0858 105.571 89.7704 96.3497L66.4666 118.723Z" fill="#4181E0"/>
<path opacity="0.19" d="M90.1675 32.7673C89.8131 32.174 89.4473 31.5844 89.072 30.9985L-1.6001 118.051C-0.992753 118.413 -0.379143 118.763 0.241792 119.103L90.1675 32.7673Z" fill="#4181E0"/>
<path opacity="0.19" d="M85.6058 26.1452C85.1856 25.6113 84.757 25.0826 84.319 24.5593L-8.30688 113.487C-7.76331 113.911 -7.21345 114.323 -6.65733 114.723L85.6058 26.1452Z" fill="#4181E0"/>
<path opacity="0.19" d="M96.7951 48.4113C96.5965 47.6716 96.3875 46.9327 96.1617 46.1986L14.2307 124.86C14.9949 125.078 15.7642 125.276 16.5347 125.467L96.7951 48.4113Z" fill="#4181E0"/>
<path opacity="0.19" d="M93.9383 40.1515C93.6539 39.4913 93.3591 38.8349 93.0508 38.1821L5.88062 121.874C6.56113 122.169 7.24477 122.455 7.93261 122.726L93.9383 40.1515Z" fill="#4181E0"/>
</g>
<g opacity="0.19">
<path opacity="0.19" d="M660.024 644.198C659.324 643.652 658.617 643.122 657.902 642.608L539.279 756.494C539.819 757.177 540.371 757.855 540.936 758.532L660.024 644.198Z" fill="#4181E0"/>
<path opacity="0.19" d="M631.046 629.575C630.061 629.295 629.073 629.039 628.081 628.794L524.892 727.864C525.147 728.817 525.415 729.767 525.706 730.711L631.046 629.575Z" fill="#4181E0"/>
<path opacity="0.19" d="M651.4 638.33C650.619 637.863 649.83 637.413 649.032 636.977L533.413 747.979C533.869 748.744 534.34 749.502 534.823 750.255L651.4 638.33Z" fill="#4181E0"/>
<path opacity="0.19" d="M641.782 633.415C640.907 633.036 640.028 632.672 639.144 632.322L528.567 738.485C528.93 739.335 529.309 740.18 529.706 741.018L641.782 633.415Z" fill="#4181E0"/>
<path opacity="0.19" d="M618.953 627.045C617.831 626.89 616.708 626.762 615.583 626.651L522.658 715.866C522.774 716.946 522.908 718.025 523.068 719.101L618.953 627.045Z" fill="#4181E0"/>
<path opacity="0.19" d="M666.792 650.037C666.472 649.73 666.152 649.438 665.833 649.141L546.082 764.112C546.392 764.419 546.7 764.726 547.015 765.032C547.33 765.339 547.654 765.631 547.973 765.928L667.723 650.957C667.414 650.65 667.106 650.337 666.792 650.037Z" fill="#4181E0"/>
<path opacity="0.19" d="M605.05 626.241C603.728 626.267 602.409 626.324 601.092 626.412L522.41 701.953C522.319 703.217 522.259 704.484 522.229 705.753L605.05 626.241Z" fill="#4181E0"/>
<path opacity="0.19" d="M524.278 689.64L588.266 628.204C586.562 628.572 584.866 628.991 583.179 629.462L525.587 684.754C525.095 686.371 524.659 688 524.278 689.64Z" fill="#4181E0"/>
<path opacity="0.19" d="M691.396 713.112C691.485 711.845 691.545 710.579 691.575 709.311L608.755 788.823C610.077 788.795 611.396 788.738 612.713 788.651L691.396 713.112Z" fill="#4181E0"/>
<path opacity="0.19" d="M691.149 699.2C691.033 698.12 690.9 697.041 690.74 695.965L594.857 788.021C595.976 788.176 597.099 788.304 598.226 788.415L691.149 699.2Z" fill="#4181E0"/>
<path opacity="0.19" d="M563.886 637.466C551.538 644.484 541.233 654.379 533.925 666.237L563.886 637.466Z" fill="#4181E0"/>
<path opacity="0.19" d="M688.219 730.307C688.71 728.691 689.145 727.063 689.528 725.424L625.541 786.859C627.244 786.489 628.94 786.07 630.627 785.601L688.219 730.307Z" fill="#4181E0"/>
<path opacity="0.19" d="M649.92 777.599C662.268 770.582 672.574 760.688 679.882 748.833L649.92 777.599Z" fill="#4181E0"/>
<path opacity="0.19" d="M680.393 667.084C679.937 666.321 679.467 665.564 678.984 664.81L562.406 776.735C563.187 777.2 563.976 777.65 564.775 778.088L680.393 667.084Z" fill="#4181E0"/>
<path opacity="0.19" d="M674.527 658.57C673.987 657.884 673.435 657.204 672.873 656.531L553.782 770.866C554.482 771.412 555.189 771.942 555.904 772.455L674.527 658.57Z" fill="#4181E0"/>
<path opacity="0.19" d="M688.913 687.198C688.658 686.247 688.39 685.297 688.099 684.353L582.759 785.488C583.742 785.768 584.731 786.024 585.722 786.27L688.913 687.198Z" fill="#4181E0"/>
<path opacity="0.19" d="M685.24 676.578C684.875 675.73 684.496 674.886 684.1 674.046L572.023 781.65C572.898 782.029 573.778 782.397 574.662 782.745L685.24 676.578Z" fill="#4181E0"/>
</g>
<path d="M850.833 139.072V152.956" stroke="#A2BADD" stroke-width="2" stroke-linecap="round" stroke-linejoin="round"/>
<path d="M858.067 146.013H843.61" stroke="#A2BADD" stroke-width="2" stroke-linecap="round" stroke-linejoin="round"/>
<path d="M384.063 398.04V411.924" stroke="#EAF1FD" stroke-width="2" stroke-linecap="round" stroke-linejoin="round"/>
<path d="M391.292 404.981H376.835" stroke="#EAF1FD" stroke-width="2" stroke-linecap="round" stroke-linejoin="round"/>
<path d="M278.228 668.594V682.479" stroke="#00BCD4" stroke-width="2" stroke-linecap="round" stroke-linejoin="round"/>
<path d="M285.457 675.537H271" stroke="#00BCD4" stroke-width="2" stroke-linecap="round" stroke-linejoin="round"/>
<path d="M717.039 507.927V521.812" stroke="#00BCD4" stroke-width="2" stroke-linecap="round" stroke-linejoin="round"/>
<path d="M724.268 514.868H709.811" stroke="#00BCD4" stroke-width="2" stroke-linecap="round" stroke-linejoin="round"/>
<path d="M1007.99 340.682V354.567" stroke="#00BCD4" stroke-width="2" stroke-linecap="round" stroke-linejoin="round"/>
<path d="M1015.22 347.623H1000.77" stroke="#00BCD4" stroke-width="2" stroke-linecap="round" stroke-linejoin="round"/>
<path d="M1394.85 60.323V74.2073" stroke="#00BCD4" stroke-width="2" stroke-linecap="round" stroke-linejoin="round"/>
<path d="M1402.07 67.2634H1387.62" stroke="#00BCD4" stroke-width="2" stroke-linecap="round" stroke-linejoin="round"/>
<path d="M151.257 303.859V317.744" stroke="#00BCD4" stroke-width="2" stroke-linecap="round" stroke-linejoin="round"/>
<path d="M158.486 310.8H144.029" stroke="#00BCD4" stroke-width="2" stroke-linecap="round" stroke-linejoin="round"/>
<path d="M376.835 94.9186V108.802" stroke="#BDD7FE" stroke-width="2" stroke-linecap="round" stroke-linejoin="round"/>
<path d="M384.063 101.859H369.606" stroke="#BDD7FE" stroke-width="2" stroke-linecap="round" stroke-linejoin="round"/>
<path d="M790.789 882.157V896.042" stroke="#FAFAFA" stroke-opacity="0.28" stroke-width="2" stroke-linecap="round" stroke-linejoin="round"/>
<path d="M822.055 882.157V896.042" stroke="#FAFAFA" stroke-opacity="0.28" stroke-width="2" stroke-linecap="round" stroke-linejoin="round"/>
<path d="M853.3 882.157V896.042" stroke="#FAFAFA" stroke-opacity="0.28" stroke-width="2" stroke-linecap="round" stroke-linejoin="round"/>
<path d="M848.115 647.6C848.115 647.997 847.99 648.387 847.76 648.717C847.53 649.048 847.206 649.306 846.819 649.458C846.432 649.61 846.014 649.65 845.606 649.572C845.199 649.495 844.833 649.303 844.54 649.022C844.247 648.74 844.049 648.382 843.965 647.991C843.881 647.602 843.923 647.198 844.08 646.83C844.237 646.462 844.509 646.149 844.854 645.928C845.199 645.706 845.606 645.589 846.014 645.589C846.296 645.589 846.568 645.641 846.819 645.742C847.07 645.844 847.3 645.991 847.499 646.178C847.697 646.365 847.843 646.586 847.948 646.83C848.053 647.074 848.115 647.336 848.115 647.6Z" fill="#A2BADD"/>
<path d="M862.321 647.6C862.321 647.997 862.206 648.387 861.976 648.717C861.747 649.048 861.412 649.305 861.036 649.458C860.649 649.61 860.231 649.649 859.823 649.572C859.415 649.495 859.039 649.303 858.746 649.021C858.454 648.74 858.255 648.382 858.182 647.991C858.098 647.601 858.14 647.197 858.297 646.829C858.454 646.462 858.725 646.148 859.07 645.927C859.415 645.706 859.823 645.589 860.231 645.589C860.513 645.589 860.785 645.641 861.036 645.742C861.287 645.843 861.517 645.991 861.715 646.178C861.903 646.365 862.06 646.586 862.165 646.83C862.269 647.074 862.321 647.336 862.321 647.6Z" fill="#A2BADD"/>
<path d="M876.548 647.6C876.548 647.997 876.423 648.386 876.193 648.717C875.963 649.048 875.639 649.305 875.252 649.458C874.876 649.61 874.447 649.649 874.04 649.572C873.642 649.495 873.266 649.303 872.973 649.022C872.681 648.74 872.482 648.382 872.398 647.992C872.315 647.602 872.357 647.198 872.513 646.83C872.681 646.463 872.942 646.149 873.287 645.928C873.632 645.707 874.04 645.589 874.447 645.589C874.729 645.589 875.001 645.641 875.252 645.741C875.503 645.843 875.744 645.991 875.932 646.178C876.13 646.365 876.277 646.586 876.392 646.83C876.496 647.074 876.548 647.336 876.548 647.6Z" fill="#A2BADD"/>
<path d="M848.115 661.251C848.115 661.648 847.99 662.038 847.76 662.368C847.53 662.699 847.206 662.957 846.819 663.11C846.432 663.261 846.014 663.301 845.606 663.224C845.199 663.147 844.833 662.955 844.54 662.673C844.247 662.392 844.049 662.034 843.965 661.643C843.881 661.253 843.923 660.848 844.08 660.481C844.237 660.114 844.509 659.8 844.854 659.579C845.199 659.358 845.606 659.241 846.014 659.241C846.568 659.241 847.101 659.453 847.499 659.829C847.885 660.206 848.115 660.717 848.115 661.251Z" fill="#A2BADD"/>
<path d="M862.321 661.251C862.321 661.648 862.206 662.038 861.976 662.368C861.747 662.699 861.412 662.957 861.036 663.11C860.649 663.261 860.231 663.301 859.823 663.224C859.415 663.147 859.05 662.955 858.757 662.673C858.454 662.392 858.255 662.034 858.182 661.643C858.098 661.253 858.14 660.848 858.297 660.481C858.454 660.114 858.725 659.8 859.07 659.579C859.415 659.358 859.823 659.241 860.231 659.241C860.785 659.241 861.318 659.453 861.715 659.829C862.102 660.206 862.321 660.717 862.321 661.251Z" fill="#A2BADD"/>
<path d="M876.548 661.251C876.548 661.648 876.423 662.037 876.193 662.368C875.963 662.699 875.639 662.957 875.252 663.11C874.876 663.261 874.447 663.301 874.04 663.224C873.642 663.147 873.266 662.955 872.973 662.674C872.681 662.393 872.482 662.035 872.398 661.644C872.315 661.254 872.357 660.85 872.513 660.482C872.681 660.115 872.942 659.801 873.287 659.58C873.632 659.358 874.04 659.241 874.447 659.241C874.729 659.241 875.001 659.292 875.252 659.393C875.503 659.495 875.733 659.642 875.932 659.829C876.13 660.016 876.277 660.237 876.392 660.481C876.496 660.725 876.548 660.986 876.548 661.251Z" fill="#A2BADD"/>
<path d="M848.115 674.902C848.115 675.3 847.99 675.689 847.76 676.02C847.53 676.351 847.206 676.609 846.819 676.76C846.432 676.913 846.014 676.953 845.606 676.876C845.199 676.798 844.833 676.607 844.54 676.325C844.247 676.044 844.049 675.686 843.965 675.295C843.881 674.905 843.923 674.5 844.08 674.133C844.237 673.766 844.509 673.452 844.854 673.231C845.199 673.01 845.606 672.892 846.014 672.893C846.568 672.893 847.101 673.104 847.499 673.481C847.885 673.858 848.115 674.369 848.115 674.902Z" fill="#A2BADD"/>
<path d="M862.321 674.902C862.321 675.3 862.206 675.689 861.976 676.02C861.747 676.351 861.412 676.609 861.036 676.76C860.649 676.913 860.231 676.953 859.823 676.876C859.415 676.798 859.05 676.607 858.757 676.325C858.454 676.044 858.255 675.686 858.182 675.295C858.098 674.905 858.14 674.5 858.297 674.133C858.454 673.766 858.725 673.452 859.07 673.231C859.415 673.01 859.823 672.892 860.231 672.893C860.785 672.893 861.318 673.104 861.715 673.481C862.102 673.858 862.321 674.369 862.321 674.902Z" fill="#A2BADD"/>
<path d="M876.548 674.902C876.548 675.3 876.423 675.689 876.193 676.02C875.963 676.351 875.639 676.609 875.252 676.76C874.876 676.913 874.447 676.953 874.04 676.876C873.642 676.799 873.266 676.607 872.973 676.326C872.681 676.044 872.482 675.686 872.398 675.296C872.315 674.906 872.357 674.501 872.513 674.134C872.681 673.767 872.942 673.453 873.287 673.231C873.632 673.01 874.04 672.893 874.447 672.893C874.729 672.892 875.001 672.944 875.252 673.045C875.503 673.146 875.733 673.294 875.932 673.481C876.13 673.667 876.277 673.889 876.392 674.133C876.496 674.377 876.548 674.638 876.548 674.902Z" fill="#A2BADD"/>
<path d="M7.37008 278.389C8.51682 278.389 9.44718 277.496 9.44718 276.394C9.44718 275.293 8.51682 274.4 7.37008 274.4C6.22228 274.4 5.29297 275.293 5.29297 276.394C5.29297 277.496 6.22228 278.389 7.37008 278.389Z" fill="#A2BADD"/>
<path d="M23.5458 276.394C23.5458 276.789 23.4235 277.175 23.1956 277.503C22.9667 277.831 22.6427 278.086 22.2632 278.237C21.8837 278.388 21.4656 278.428 21.0631 278.351C20.6607 278.274 20.2896 278.084 20 277.805C19.7094 277.526 19.5108 277.171 19.4313 276.783C19.3508 276.397 19.3916 275.995 19.5495 275.631C19.7063 275.267 19.9728 274.955 20.3147 274.736C20.6554 274.516 21.0579 274.4 21.4687 274.4C22.0196 274.4 22.5475 274.61 22.9374 274.984C23.3263 275.358 23.5458 275.865 23.5458 276.394Z" fill="#A2BADD"/>
<path d="M37.6476 276.394C37.6476 276.789 37.5263 277.175 37.2974 277.503C37.0695 277.831 36.7454 278.086 36.366 278.237C35.9865 278.388 35.5684 278.428 35.1659 278.351C34.7624 278.274 34.3923 278.084 34.1017 277.805C33.8111 277.526 33.6136 277.171 33.5341 276.783C33.4536 276.397 33.4944 275.995 33.6523 275.631C33.8091 275.267 34.0756 274.955 34.4164 274.736C34.7582 274.516 35.1596 274.4 35.5705 274.4C35.8433 274.4 36.114 274.451 36.366 274.551C36.6179 274.652 36.8468 274.799 37.0392 274.984C37.2325 275.17 37.3852 275.389 37.4897 275.631C37.5942 275.873 37.6476 276.132 37.6476 276.394Z" fill="#A2BADD"/>
<path d="M49.6711 278.389C50.8178 278.389 51.7482 277.496 51.7482 276.394C51.7482 275.293 50.8178 274.4 49.6711 274.4C48.5243 274.4 47.594 275.293 47.594 276.394C47.594 277.496 48.5243 278.389 49.6711 278.389Z" fill="#A2BADD"/>
<path d="M65.8477 276.394C65.8477 276.789 65.7265 277.175 65.4975 277.503C65.2696 277.831 64.9456 278.086 64.5661 278.237C64.1867 278.388 63.7685 278.428 63.3661 278.351C62.9626 278.274 62.5926 278.084 62.3019 277.805C62.0113 277.526 61.8138 277.171 61.7343 276.783C61.6538 276.397 61.6946 275.995 61.8524 275.631C62.0092 275.267 62.2758 274.955 62.6166 274.736C62.9584 274.516 63.3598 274.4 63.7707 274.4C64.0435 274.4 64.3142 274.451 64.5661 274.551C64.8181 274.652 65.047 274.798 65.2404 274.984C65.4328 275.168 65.5854 275.389 65.6899 275.631C65.7944 275.873 65.8477 276.132 65.8477 276.394Z" fill="#A2BADD"/>
<path d="M79.9474 276.394C79.9474 276.789 79.8251 277.175 79.5972 277.503C79.3683 277.831 79.0442 278.086 78.6648 278.237C78.2853 278.388 77.8672 278.428 77.4648 278.351C77.0623 278.274 76.6922 278.084 76.4016 277.805C76.111 277.526 75.9135 277.171 75.833 276.783C75.7525 276.397 75.7943 275.995 75.9511 275.631C76.1079 275.267 76.3745 274.955 76.7163 274.736C77.0581 274.516 77.4595 274.4 77.8703 274.4C78.1431 274.4 78.4129 274.451 78.6648 274.551C78.9167 274.652 79.1457 274.798 79.3391 274.984C79.5314 275.168 79.6851 275.389 79.7896 275.631C79.8931 275.873 79.9474 276.132 79.9474 276.394Z" fill="#A2BADD"/>
<path d="M9.44721 289.936C9.44721 290.331 9.32491 290.716 9.09703 291.044C8.86914 291.373 8.54404 291.628 8.16458 291.779C7.78512 291.93 7.36801 291.97 6.96451 291.892C6.56205 291.815 6.192 291.625 5.90139 291.346C5.61079 291.067 5.41321 290.712 5.33272 290.325C5.25223 289.938 5.29405 289.537 5.45085 289.173C5.60765 288.808 5.87421 288.496 6.21604 288.277C6.55787 288.059 6.95928 287.941 7.3701 287.941C7.921 287.941 8.44889 288.152 8.83776 288.526C9.22768 288.9 9.44616 289.407 9.44721 289.936Z" fill="#A2BADD"/>
<path d="M23.5458 289.936C23.5458 290.331 23.4235 290.716 23.1956 291.044C22.9667 291.373 22.6427 291.628 22.2632 291.779C21.8837 291.93 21.4656 291.97 21.0631 291.892C20.6607 291.815 20.2896 291.625 20 291.346C19.7094 291.067 19.5108 290.712 19.4313 290.325C19.3508 289.938 19.3916 289.537 19.5495 289.173C19.7063 288.808 19.9728 288.496 20.3147 288.277C20.6554 288.059 21.0579 287.941 21.4687 287.941C22.0186 287.941 22.5475 288.152 22.9364 288.526C23.3263 288.9 23.5448 289.407 23.5458 289.936Z" fill="#A2BADD"/>
<path d="M37.6476 289.936C37.6476 290.331 37.5263 290.716 37.2974 291.044C37.0695 291.373 36.7454 291.628 36.366 291.779C35.9865 291.93 35.5684 291.97 35.1659 291.892C34.7624 291.815 34.3923 291.625 34.1017 291.346C33.8111 291.067 33.6136 290.712 33.5341 290.325C33.4536 289.938 33.4944 289.537 33.6523 289.173C33.8091 288.808 34.0756 288.496 34.4164 288.277C34.7582 288.059 35.1596 287.941 35.5705 287.941C36.1213 287.941 36.6492 288.152 37.0392 288.526C37.4291 288.9 37.6476 289.407 37.6476 289.936Z" fill="#A2BADD"/>
<path d="M51.7472 289.936C51.7472 290.331 51.6249 290.716 51.3971 291.044C51.1692 291.373 50.8441 291.628 50.4646 291.779C50.0851 291.93 49.668 291.97 49.2645 291.892C48.8621 291.815 48.492 291.625 48.2014 291.346C47.9108 291.067 47.7132 290.711 47.6327 290.325C47.5533 289.937 47.5941 289.537 47.7519 289.172C47.9087 288.807 48.1753 288.496 48.5171 288.277C48.8589 288.058 49.2604 287.941 49.6712 287.941C50.2221 287.941 50.75 288.152 51.1388 288.526C51.5288 288.9 51.7472 289.407 51.7472 289.936Z" fill="#A2BADD"/>
<path d="M65.8477 289.936C65.8477 290.331 65.7265 290.716 65.4975 291.044C65.2696 291.373 64.9456 291.628 64.5661 291.779C64.1867 291.93 63.7685 291.97 63.3661 291.892C62.9626 291.815 62.5926 291.625 62.3019 291.346C62.0113 291.067 61.8138 290.712 61.7343 290.325C61.6538 289.938 61.6946 289.537 61.8524 289.173C62.0092 288.808 62.2758 288.496 62.6166 288.277C62.9584 288.059 63.3598 287.941 63.7707 287.941C64.3215 287.941 64.8505 288.151 65.2394 288.525C65.6293 288.9 65.8477 289.407 65.8477 289.936Z" fill="#A2BADD"/>
<path d="M79.9474 289.936C79.9474 290.331 79.8251 290.716 79.5972 291.044C79.3683 291.373 79.0442 291.628 78.6648 291.779C78.2853 291.93 77.8672 291.97 77.4648 291.892C77.0623 291.815 76.6922 291.625 76.4016 291.346C76.111 291.067 75.9135 290.712 75.833 290.325C75.7525 289.938 75.7943 289.537 75.9511 289.173C76.1079 288.808 76.3745 288.496 76.7163 288.277C77.0581 288.059 77.4595 287.941 77.8703 287.941C78.4212 287.941 78.9491 288.151 79.3391 288.525C79.7279 288.9 79.9474 289.407 79.9474 289.936Z" fill="#A2BADD"/>
<path d="M9.44721 303.478C9.44616 303.872 9.32385 304.258 9.09492 304.585C8.86599 304.912 8.54193 305.168 8.16142 305.317C7.78196 305.468 7.36489 305.507 6.96244 305.43C6.55998 305.353 6.18989 305.162 5.89929 304.883C5.60973 304.604 5.41216 304.249 5.33272 303.861C5.25223 303.475 5.29405 303.073 5.45085 302.709C5.6087 302.345 5.87525 302.034 6.21604 301.815C6.55787 301.596 6.95928 301.479 7.3701 301.479C7.64294 301.479 7.91367 301.531 8.1656 301.631C8.41753 301.732 8.64648 301.879 8.83987 302.065C9.03221 302.25 9.18587 302.471 9.28936 302.713C9.3939 302.956 9.44721 303.216 9.44721 303.478Z" fill="#A2BADD"/>
<path d="M23.5458 303.478C23.5448 303.872 23.4214 304.258 23.1936 304.585C22.9646 304.913 22.6395 305.168 22.2601 305.318C21.8796 305.468 21.4625 305.507 21.06 305.43C20.6576 305.352 20.2875 305.162 19.9969 304.882C19.7074 304.603 19.5098 304.248 19.4303 303.86C19.3509 303.473 19.3927 303.072 19.5506 302.708C19.7084 302.344 19.975 302.033 20.3168 301.814C20.6576 301.595 21.06 301.479 21.4709 301.479C21.7437 301.48 22.0134 301.532 22.2653 301.632C22.5172 301.733 22.7462 301.88 22.9385 302.066C23.1319 302.251 23.2845 302.471 23.388 302.714C23.4925 302.956 23.5458 303.216 23.5458 303.478Z" fill="#A2BADD"/>
<path d="M37.6476 303.478C37.6466 303.872 37.5243 304.258 37.2954 304.585C37.0675 304.912 36.7424 305.168 36.3629 305.317C35.9834 305.468 35.5653 305.507 35.1628 305.43C34.7604 305.353 34.3903 305.162 34.1008 304.883C33.8102 304.604 33.6136 304.249 33.5331 303.861C33.4537 303.475 33.4945 303.073 33.6523 302.709C33.8091 302.345 34.0757 302.034 34.4175 301.815C34.7583 301.596 35.1597 301.479 35.5705 301.479C35.8444 301.479 36.1141 301.531 36.366 301.631C36.619 301.732 36.8479 301.879 37.0403 302.065C37.2337 302.25 37.3863 302.471 37.4908 302.713C37.5953 302.956 37.6487 303.216 37.6476 303.478Z" fill="#A2BADD"/>
<path d="M51.7472 303.478C51.7462 303.872 51.6239 304.258 51.395 304.585C51.166 304.912 50.842 305.168 50.4615 305.317C50.082 305.468 49.6649 305.507 49.2625 305.43C48.859 305.353 48.49 305.162 48.1994 304.883C47.9098 304.603 47.7122 304.248 47.6327 303.861C47.5533 303.474 47.5941 303.073 47.7519 302.709C47.9098 302.345 48.1763 302.034 48.5171 301.815C48.859 301.595 49.2604 301.479 49.6712 301.479C49.944 301.479 50.2148 301.531 50.4667 301.631C50.7186 301.732 50.9476 301.879 51.141 302.065C51.3333 302.25 51.4859 302.471 51.5904 302.713C51.695 302.956 51.7483 303.216 51.7472 303.478Z" fill="#A2BADD"/>
<path d="M65.8477 303.478C65.8477 303.872 65.7265 304.258 65.4975 304.586C65.2696 304.914 64.9456 305.17 64.5661 305.32C64.1867 305.472 63.7685 305.511 63.3661 305.434C62.9626 305.358 62.5926 305.167 62.3019 304.888C62.0113 304.609 61.8138 304.254 61.7343 303.867C61.6538 303.48 61.6946 303.078 61.8524 302.714C62.0092 302.35 62.2758 302.039 62.6166 301.819C62.9584 301.6 63.3598 301.483 63.7707 301.483C64.3215 301.483 64.8505 301.693 65.2394 302.067C65.6293 302.441 65.8477 302.949 65.8477 303.478Z" fill="#A2BADD"/>
<path d="M79.9474 303.478C79.9474 303.872 79.8251 304.258 79.5972 304.586C79.3683 304.914 79.0442 305.17 78.6648 305.32C78.2853 305.472 77.8672 305.511 77.4648 305.434C77.0623 305.358 76.6922 305.167 76.4016 304.888C76.111 304.609 75.9135 304.254 75.833 303.867C75.7525 303.48 75.7943 303.078 75.9511 302.714C76.1079 302.35 76.3745 302.039 76.7163 301.819C77.0581 301.6 77.4595 301.483 77.8703 301.483C78.4212 301.483 78.9491 301.693 79.3391 302.067C79.7279 302.441 79.9474 302.949 79.9474 303.478Z" fill="#A2BADD"/>
<path d="M9.44721 317.019C9.44721 317.414 9.32491 317.799 9.09703 318.127C8.86914 318.456 8.54404 318.711 8.16458 318.862C7.78512 319.014 7.36801 319.053 6.96451 318.975C6.56205 318.899 6.192 318.708 5.90139 318.429C5.61079 318.15 5.41321 317.795 5.33272 317.409C5.25223 317.021 5.29405 316.621 5.45085 316.256C5.60765 315.891 5.87421 315.58 6.21604 315.36C6.55787 315.142 6.95928 315.024 7.3701 315.024C7.921 315.024 8.4489 315.235 8.83882 315.609C9.22769 315.983 9.44721 316.491 9.44721 317.019Z" fill="#A2BADD"/>
<path d="M23.5458 317.019C23.5458 317.414 23.4235 317.799 23.1956 318.127C22.9667 318.456 22.6427 318.711 22.2632 318.862C21.8837 319.014 21.4656 319.053 21.0631 318.975C20.6607 318.899 20.2896 318.708 20 318.429C19.7094 318.15 19.5108 317.795 19.4313 317.409C19.3508 317.021 19.3916 316.621 19.5495 316.256C19.7063 315.891 19.9728 315.58 20.3147 315.36C20.6554 315.142 21.0579 315.024 21.4687 315.024C22.0196 315.024 22.5475 315.235 22.9374 315.609C23.3263 315.983 23.5458 316.491 23.5458 317.019Z" fill="#A2BADD"/>
<path d="M37.6476 317.019C37.6476 317.414 37.5263 317.799 37.2974 318.127C37.0695 318.456 36.7454 318.711 36.366 318.862C35.9865 319.014 35.5684 319.053 35.1659 318.975C34.7624 318.899 34.3923 318.708 34.1017 318.429C33.8111 318.15 33.6136 317.795 33.5341 317.409C33.4536 317.021 33.4944 316.621 33.6523 316.256C33.8091 315.891 34.0756 315.58 34.4164 315.36C34.7582 315.142 35.1596 315.024 35.5705 315.024C35.8433 315.024 36.114 315.076 36.366 315.177C36.6179 315.277 36.8468 315.424 37.0392 315.609C37.2325 315.794 37.3852 316.014 37.4897 316.256C37.5942 316.499 37.6476 316.757 37.6476 317.019Z" fill="#A2BADD"/>
<path d="M51.7472 317.019C51.7472 317.414 51.6249 317.799 51.3971 318.127C51.1692 318.456 50.8441 318.711 50.4646 318.862C50.0851 319.014 49.668 319.053 49.2645 318.975C48.8621 318.899 48.492 318.708 48.2014 318.429C47.9108 318.15 47.7132 317.795 47.6327 317.408C47.5533 317.021 47.5941 316.62 47.7519 316.256C47.9087 315.891 48.1753 315.579 48.5171 315.36C48.8589 315.142 49.2604 315.024 49.6712 315.024C49.944 315.024 50.2137 315.076 50.4657 315.177C50.7176 315.277 50.9465 315.424 51.1399 315.609C51.3322 315.794 51.4849 316.014 51.5894 316.256C51.6939 316.499 51.7472 316.757 51.7472 317.019Z" fill="#A2BADD"/>
<path d="M65.8477 317.019C65.8477 317.414 65.7265 317.799 65.4975 318.127C65.2696 318.456 64.9456 318.711 64.5661 318.862C64.1867 319.014 63.7685 319.053 63.3661 318.975C62.9626 318.899 62.5926 318.708 62.3019 318.429C62.0113 318.15 61.8138 317.795 61.7343 317.409C61.6538 317.021 61.6946 316.621 61.8524 316.256C62.0092 315.891 62.2758 315.58 62.6166 315.36C62.9584 315.142 63.3598 315.024 63.7707 315.024C64.0435 315.024 64.3142 315.076 64.5661 315.176C64.8181 315.276 65.047 315.424 65.2404 315.608C65.4328 315.794 65.5854 316.014 65.6899 316.256C65.7944 316.498 65.8477 316.757 65.8477 317.019Z" fill="#A2BADD"/>
<path d="M79.9474 317.019C79.9474 317.414 79.8251 317.799 79.5972 318.127C79.3683 318.456 79.0442 318.711 78.6648 318.862C78.2853 319.014 77.8672 319.053 77.4648 318.975C77.0623 318.899 76.6922 318.708 76.4016 318.429C76.111 318.15 75.9135 317.795 75.833 317.409C75.7525 317.021 75.7943 316.621 75.9511 316.256C76.1079 315.891 76.3745 315.58 76.7163 315.36C77.0581 315.142 77.4595 315.024 77.8703 315.024C78.1431 315.024 78.4129 315.076 78.6648 315.176C78.9167 315.276 79.1457 315.424 79.3391 315.608C79.5314 315.794 79.6851 316.014 79.7896 316.256C79.8931 316.498 79.9474 316.757 79.9474 317.019Z" fill="#A2BADD"/>
<path d="M7.37008 332.556C8.51682 332.556 9.44718 331.663 9.44718 330.561C9.44718 329.459 8.51682 328.567 7.37008 328.567C6.22228 328.567 5.29297 329.459 5.29297 330.561C5.29297 331.663 6.22228 332.556 7.37008 332.556Z" fill="#A2BADD"/>
<path d="M23.5458 330.56C23.5458 330.954 23.4235 331.341 23.1956 331.669C22.9678 331.997 22.6437 332.253 22.2642 332.404C21.8848 332.555 21.4666 332.594 21.0642 332.518C20.6607 332.441 20.2906 332.251 20 331.972C19.7094 331.693 19.5118 331.338 19.4313 330.95C19.3508 330.564 19.3916 330.162 19.5495 329.798C19.7063 329.434 19.9728 329.122 20.3147 328.903C20.6554 328.683 21.0579 328.567 21.4687 328.567C22.0186 328.567 22.5475 328.776 22.9364 329.15C23.3263 329.524 23.5448 330.031 23.5458 330.56Z" fill="#A2BADD"/>
<path d="M37.6476 330.56C37.6476 330.954 37.5263 331.341 37.2984 331.669C37.0705 331.997 36.7454 332.253 36.366 332.404C35.9865 332.555 35.5694 332.594 35.1659 332.518C34.7635 332.441 34.3934 332.251 34.1028 331.972C33.8122 331.693 33.6136 331.338 33.5341 330.95C33.4536 330.564 33.4944 330.162 33.6523 329.798C33.8091 329.434 34.0756 329.122 34.4164 328.903C34.7582 328.683 35.1596 328.567 35.5705 328.567C36.1213 328.567 36.6492 328.776 37.0392 329.15C37.4291 329.524 37.6476 330.031 37.6476 330.56Z" fill="#A2BADD"/>
<path d="M49.6711 332.556C50.8178 332.556 51.7482 331.663 51.7482 330.561C51.7482 329.459 50.8178 328.567 49.6711 328.567C48.5243 328.567 47.594 329.459 47.594 330.561C47.594 331.663 48.5243 332.556 49.6711 332.556Z" fill="#A2BADD"/>
<path d="M65.8477 330.56C65.8477 330.954 65.7265 331.341 65.4986 331.669C65.2707 331.997 64.9456 332.253 64.5661 332.404C64.1867 332.555 63.7696 332.594 63.3661 332.518C62.9636 332.441 62.5936 332.251 62.303 331.972C62.0124 331.693 61.8138 331.338 61.7343 330.95C61.6538 330.564 61.6946 330.162 61.8524 329.798C62.0092 329.434 62.2758 329.122 62.6166 328.903C62.9584 328.683 63.3598 328.567 63.7707 328.567C64.0435 328.566 64.3142 328.618 64.5661 328.718C64.8181 328.818 65.047 328.965 65.2394 329.15C65.4327 329.335 65.5854 329.555 65.6899 329.797C65.7944 330.039 65.8477 330.298 65.8477 330.56Z" fill="#A2BADD"/>
<path d="M79.9474 330.56C79.9474 330.954 79.8251 331.341 79.5972 331.669C79.3693 331.997 79.0453 332.253 78.6658 332.404C78.2864 332.555 77.8682 332.594 77.4658 332.518C77.0623 332.441 76.6922 332.251 76.4016 331.972C76.111 331.693 75.9135 331.338 75.833 330.95C75.7525 330.564 75.7943 330.162 75.9511 329.798C76.1079 329.434 76.3745 329.122 76.7163 328.903C77.0571 328.683 77.4595 328.567 77.8703 328.567C78.1431 328.566 78.4129 328.618 78.6648 328.718C78.9167 328.818 79.1457 328.965 79.3391 329.15C79.5314 329.335 79.684 329.555 79.7885 329.797C79.8931 330.039 79.9474 330.298 79.9474 330.56Z" fill="#A2BADD"/>
<path d="M1299.45 25.8676C1299.45 26.2207 1299.35 26.5658 1299.14 26.8594C1298.94 27.1528 1298.65 27.3816 1298.3 27.5167C1297.97 27.6518 1297.59 27.6871 1297.24 27.6183C1296.87 27.5494 1296.54 27.3794 1296.27 27.1298C1296.02 26.8801 1295.85 26.5621 1295.77 26.2159C1295.7 25.8696 1295.73 25.5107 1295.88 25.1846C1296.01 24.8584 1296.25 24.5797 1296.56 24.3835C1296.87 24.1874 1297.23 24.0827 1297.59 24.0827C1298.08 24.0827 1298.56 24.2708 1298.91 24.6055C1299.25 24.9403 1299.45 25.3942 1299.45 25.8676Z" fill="#A2BADD"/>
<path d="M1310.21 27.6526C1311.23 27.6526 1312.07 26.8534 1312.07 25.8676C1312.07 24.8819 1311.23 24.0827 1310.21 24.0827C1309.19 24.0827 1308.35 24.8819 1308.35 25.8676C1308.35 26.8534 1309.19 27.6526 1310.21 27.6526Z" fill="#A2BADD"/>
<path d="M1324.69 25.8676C1324.69 26.2207 1324.58 26.5658 1324.37 26.8594C1324.16 27.1529 1323.88 27.3817 1323.54 27.5168C1323.2 27.6519 1322.83 27.6872 1322.46 27.6183C1322.11 27.5493 1321.77 27.3792 1321.51 27.1295C1321.26 26.8797 1321.08 26.5616 1321.01 26.2154C1320.93 25.869 1320.97 25.5101 1321.11 25.184C1321.25 24.8578 1321.49 24.5791 1321.79 24.3831C1322.11 24.1871 1322.46 24.0825 1322.83 24.0827C1323.08 24.0827 1323.32 24.1289 1323.54 24.2186C1323.77 24.3083 1323.97 24.4398 1324.14 24.6056C1324.31 24.7713 1324.46 24.9681 1324.54 25.1847C1324.63 25.4012 1324.69 25.6333 1324.69 25.8676Z" fill="#A2BADD"/>
<path d="M1337.3 25.8676C1337.3 26.2207 1337.2 26.5658 1336.99 26.8594C1336.79 27.1528 1336.5 27.3816 1336.16 27.5167C1335.82 27.6518 1335.44 27.6871 1335.09 27.6183C1334.72 27.5494 1334.39 27.3794 1334.13 27.1298C1333.88 26.8801 1333.7 26.5621 1333.63 26.2159C1333.55 25.8696 1333.58 25.5107 1333.73 25.1846C1333.87 24.8584 1334.11 24.5797 1334.41 24.3835C1334.72 24.1874 1335.08 24.0827 1335.44 24.0827C1335.7 24.0826 1335.94 24.1287 1336.16 24.2183C1336.38 24.308 1336.58 24.4395 1336.76 24.6053C1336.93 24.771 1337.07 24.9679 1337.16 25.1845C1337.25 25.401 1337.3 25.6333 1337.3 25.8676Z" fill="#A2BADD"/>
<path d="M1348.06 27.6526C1349.09 27.6526 1349.92 26.8534 1349.92 25.8676C1349.92 24.8819 1349.09 24.0827 1348.06 24.0827C1347.04 24.0827 1346.2 24.8819 1346.2 25.8676C1346.2 26.8534 1347.04 27.6526 1348.06 27.6526Z" fill="#A2BADD"/>
<path d="M1362.54 25.8676C1362.54 26.2207 1362.43 26.5658 1362.23 26.8594C1362.03 27.1528 1361.73 27.3816 1361.39 27.5167C1361.05 27.6518 1360.68 27.6871 1360.32 27.6183C1359.96 27.5494 1359.62 27.3794 1359.36 27.1298C1359.11 26.8801 1358.93 26.5621 1358.86 26.2159C1358.79 25.8696 1358.82 25.5107 1358.96 25.1846C1359.1 24.8584 1359.34 24.5797 1359.64 24.3835C1359.96 24.1874 1360.31 24.0827 1360.68 24.0827C1361.17 24.0827 1361.65 24.2708 1362 24.6055C1362.34 24.9403 1362.54 25.3942 1362.54 25.8676Z" fill="#A2BADD"/>
<path d="M1375.16 25.8676C1375.16 26.2207 1375.05 26.5658 1374.84 26.8594C1374.64 27.1528 1374.35 27.3816 1374.01 27.5167C1373.67 27.6518 1373.3 27.6871 1372.94 27.6183C1372.57 27.5494 1372.24 27.3794 1371.99 27.1298C1371.73 26.8801 1371.55 26.5621 1371.48 26.2159C1371.4 25.8696 1371.45 25.5107 1371.58 25.1846C1371.72 24.8584 1371.96 24.5797 1372.26 24.3835C1372.57 24.1874 1372.93 24.0827 1373.3 24.0827C1373.79 24.0827 1374.27 24.2708 1374.61 24.6055C1374.96 24.9403 1375.16 25.3942 1375.16 25.8676Z" fill="#A2BADD"/>
<path d="M1312.07 37.9853C1312.07 38.3383 1311.97 38.6834 1311.76 38.977C1311.55 39.2705 1311.26 39.4992 1310.92 39.6343C1310.59 39.7695 1310.21 39.8048 1309.85 39.7359C1309.49 39.667 1309.15 39.497 1308.89 39.2474C1308.64 38.9978 1308.46 38.6798 1308.39 38.3335C1308.32 37.9872 1308.35 37.6283 1308.5 37.3022C1308.63 36.9761 1308.87 36.6973 1309.17 36.5012C1309.49 36.305 1309.84 36.2003 1310.21 36.2003C1310.7 36.2006 1311.18 36.3887 1311.53 36.7234C1311.87 37.0581 1312.07 37.5119 1312.07 37.9853Z" fill="#A2BADD"/>
<path d="M1324.69 37.9853C1324.69 38.3384 1324.58 38.6835 1324.37 38.9771C1324.16 39.2706 1323.88 39.4993 1323.54 39.6344C1323.2 39.7695 1322.83 39.8048 1322.46 39.7359C1322.11 39.6669 1321.77 39.4968 1321.51 39.2471C1321.26 38.9974 1321.08 38.6793 1321.01 38.333C1320.93 37.9866 1320.97 37.6277 1321.11 37.3016C1321.25 36.9755 1321.49 36.6968 1321.79 36.5007C1322.11 36.3047 1322.46 36.2001 1322.83 36.2003C1323.32 36.2006 1323.8 36.3887 1324.14 36.7235C1324.49 37.0582 1324.69 37.512 1324.69 37.9853Z" fill="#A2BADD"/>
<path d="M1337.3 37.9853C1337.3 38.3383 1337.2 38.6834 1336.99 38.977C1336.79 39.2705 1336.5 39.4992 1336.16 39.6343C1335.82 39.7695 1335.44 39.8048 1335.09 39.7359C1334.72 39.667 1334.39 39.497 1334.13 39.2474C1333.88 38.9978 1333.7 38.6798 1333.63 38.3335C1333.55 37.9872 1333.58 37.6283 1333.73 37.3022C1333.87 36.9761 1334.11 36.6973 1334.41 36.5012C1334.72 36.305 1335.08 36.2003 1335.44 36.2003C1335.94 36.2003 1336.42 36.3884 1336.76 36.7231C1337.11 37.0579 1337.3 37.5119 1337.3 37.9853Z" fill="#A2BADD"/>
<path d="M1349.92 37.9853C1349.92 38.3383 1349.82 38.6834 1349.61 38.977C1349.4 39.2705 1349.12 39.4992 1348.77 39.6343C1348.44 39.7695 1348.06 39.8048 1347.71 39.7359C1347.34 39.667 1347.01 39.497 1346.74 39.2474C1346.49 38.9978 1346.32 38.6798 1346.24 38.3335C1346.17 37.9872 1346.2 37.6283 1346.35 37.3022C1346.48 36.9761 1346.72 36.6973 1347.03 36.5012C1347.34 36.305 1347.7 36.2003 1348.06 36.2003C1348.55 36.2003 1349.03 36.3884 1349.38 36.7231C1349.72 37.0579 1349.92 37.5119 1349.92 37.9853Z" fill="#A2BADD"/>
<path d="M1362.54 37.9853C1362.54 38.3383 1362.43 38.6834 1362.23 38.977C1362.03 39.2705 1361.73 39.4992 1361.39 39.6343C1361.05 39.7695 1360.68 39.8048 1360.32 39.7359C1359.96 39.667 1359.62 39.497 1359.36 39.2474C1359.11 38.9978 1358.93 38.6798 1358.86 38.3335C1358.79 37.9872 1358.82 37.6283 1358.96 37.3022C1359.1 36.9761 1359.34 36.6973 1359.64 36.5012C1359.96 36.305 1360.31 36.2003 1360.68 36.2003C1361.17 36.2006 1361.65 36.3887 1362 36.7234C1362.34 37.0581 1362.54 37.5119 1362.54 37.9853Z" fill="#A2BADD"/>
<path d="M1375.16 37.9853C1375.16 38.3383 1375.05 38.6834 1374.84 38.977C1374.64 39.2705 1374.35 39.4992 1374.01 39.6343C1373.67 39.7695 1373.3 39.8048 1372.94 39.7359C1372.57 39.667 1372.24 39.497 1371.99 39.2474C1371.73 38.9978 1371.55 38.6798 1371.48 38.3335C1371.4 37.9872 1371.45 37.6283 1371.58 37.3022C1371.72 36.9761 1371.96 36.6973 1372.26 36.5012C1372.57 36.305 1372.93 36.2003 1373.3 36.2003C1373.79 36.2006 1374.27 36.3887 1374.61 36.7234C1374.96 37.0581 1375.16 37.5119 1375.16 37.9853Z" fill="#A2BADD"/>
<path d="M1387.77 37.9853C1387.77 38.3384 1387.67 38.6835 1387.46 38.9771C1387.26 39.2706 1386.97 39.4993 1386.62 39.6344C1386.29 39.7695 1385.91 39.8048 1385.56 39.7359C1385.19 39.6669 1384.86 39.4968 1384.6 39.2471C1384.35 38.9974 1384.17 38.6793 1384.09 38.333C1384.02 37.9866 1384.06 37.6277 1384.2 37.3016C1384.33 36.9755 1384.58 36.6968 1384.89 36.5007C1385.19 36.3047 1385.55 36.2001 1385.91 36.2003C1386.4 36.2006 1386.89 36.3887 1387.23 36.7235C1387.58 37.0582 1387.77 37.512 1387.77 37.9853Z" fill="#A2BADD"/>
<path d="M1128.44 755.166C1128.43 756.153 1128.13 757.118 1127.57 757.938C1126.99 758.758 1126.18 759.398 1125.24 759.775C1124.28 760.153 1123.24 760.251 1122.23 760.058C1121.22 759.865 1120.29 759.39 1119.57 758.692C1118.84 757.994 1118.35 757.105 1118.15 756.137C1117.95 755.169 1118.05 754.166 1118.44 753.254C1118.84 752.343 1119.51 751.563 1120.35 751.015C1121.21 750.467 1122.21 750.174 1123.24 750.174C1123.93 750.174 1124.6 750.303 1125.24 750.554C1125.86 750.805 1126.44 751.172 1126.92 751.636C1127.4 752.1 1127.79 752.65 1128.05 753.256C1128.31 753.861 1128.44 754.51 1128.44 755.166Z" stroke="#EAF1FD" stroke-miterlimit="10"/>
<path d="M1163.73 755.166C1163.73 756.153 1163.42 757.119 1162.85 757.94C1162.28 758.76 1161.47 759.4 1160.52 759.778C1159.56 760.155 1158.52 760.255 1157.52 760.062C1156.5 759.869 1155.58 759.394 1154.85 758.696C1154.13 757.998 1153.63 757.108 1153.43 756.14C1153.23 755.172 1153.33 754.167 1153.72 753.256C1154.12 752.344 1154.79 751.564 1155.63 751.015C1156.49 750.466 1157.5 750.174 1158.53 750.174C1159.91 750.174 1161.23 750.7 1162.2 751.636C1163.18 752.572 1163.73 753.842 1163.73 755.166Z" stroke="#EAF1FD" stroke-miterlimit="10"/>
<path d="M1199.01 755.166C1199.01 756.153 1198.7 757.119 1198.14 757.94C1197.56 758.76 1196.75 759.4 1195.8 759.778C1194.85 760.155 1193.8 760.255 1192.8 760.062C1191.79 759.869 1190.86 759.394 1190.13 758.696C1189.41 757.998 1188.91 757.108 1188.71 756.14C1188.51 755.172 1188.61 754.167 1189.01 753.256C1189.4 752.344 1190.07 751.564 1190.93 751.015C1191.78 750.466 1192.79 750.174 1193.81 750.174C1194.49 750.174 1195.17 750.302 1195.8 750.553C1196.43 750.804 1197.01 751.171 1197.49 751.635C1197.97 752.099 1198.36 752.65 1198.62 753.255C1198.87 753.861 1199.01 754.51 1199.01 755.166Z" stroke="#EAF1FD" stroke-miterlimit="10"/>
<path d="M1128.43 789.052C1128.43 790.038 1128.13 791.003 1127.57 791.824C1126.99 792.644 1126.18 793.283 1125.23 793.66C1124.28 794.038 1123.24 794.136 1122.23 793.943C1121.22 793.751 1120.29 793.275 1119.57 792.577C1118.84 791.88 1118.35 790.991 1118.15 790.022C1117.95 789.055 1118.04 788.051 1118.44 787.139C1118.84 786.228 1119.5 785.449 1120.35 784.9C1121.21 784.352 1122.21 784.059 1123.24 784.059C1123.93 784.059 1124.6 784.188 1125.24 784.439C1125.86 784.69 1126.44 785.058 1126.92 785.521C1127.4 785.985 1127.79 786.536 1128.05 787.141C1128.31 787.747 1128.43 788.396 1128.43 789.052Z" stroke="#EAF1FD" stroke-miterlimit="10"/>
<path d="M1163.73 789.052C1163.73 790.039 1163.42 791.004 1162.85 791.825C1162.28 792.646 1161.47 793.286 1160.52 793.663C1159.56 794.042 1158.52 794.14 1157.52 793.948C1156.5 793.756 1155.58 793.28 1154.85 792.582C1154.13 791.883 1153.63 790.994 1153.43 790.025C1153.23 789.057 1153.33 788.053 1153.72 787.141C1154.12 786.229 1154.79 785.449 1155.63 784.901C1156.49 784.352 1157.5 784.059 1158.53 784.059C1159.91 784.059 1161.23 784.585 1162.2 785.521C1163.18 786.458 1163.73 787.727 1163.73 789.052Z" stroke="#EAF1FD" stroke-miterlimit="10"/>
<path d="M1199.01 789.052C1199.01 790.039 1198.7 791.004 1198.14 791.825C1197.56 792.646 1196.75 793.286 1195.8 793.663C1194.85 794.042 1193.8 794.14 1192.8 793.948C1191.79 793.756 1190.86 793.28 1190.13 792.582C1189.41 791.883 1188.91 790.994 1188.71 790.025C1188.51 789.057 1188.61 788.053 1189.01 787.141C1189.4 786.229 1190.07 785.449 1190.93 784.901C1191.78 784.352 1192.79 784.059 1193.81 784.059C1194.49 784.059 1195.17 784.188 1195.8 784.439C1196.43 784.689 1197.01 785.057 1197.49 785.521C1197.97 785.985 1198.36 786.535 1198.62 787.141C1198.87 787.746 1199.01 788.395 1199.01 789.052Z" stroke="#EAF1FD" stroke-miterlimit="10"/>
<path d="M1307.86 195.78C1307.86 196.589 1307.61 197.381 1307.14 198.054C1306.67 198.727 1306.01 199.251 1305.22 199.561C1304.44 199.871 1303.58 199.951 1302.76 199.793C1301.93 199.635 1301.18 199.245 1300.57 198.672C1299.98 198.1 1299.58 197.371 1299.41 196.577C1299.24 195.783 1299.33 194.96 1299.65 194.211C1299.98 193.464 1300.52 192.824 1301.22 192.374C1301.92 191.924 1302.75 191.683 1303.59 191.683C1304.15 191.683 1304.7 191.789 1305.22 191.994C1305.74 192.2 1306.22 192.502 1306.6 192.883C1307 193.263 1307.31 193.715 1307.53 194.211C1307.74 194.709 1307.86 195.242 1307.86 195.78Z" stroke="#2976E8" stroke-miterlimit="10"/>
<path d="M1336.82 195.78C1336.82 196.59 1336.57 197.382 1336.1 198.055C1335.63 198.73 1334.96 199.254 1334.19 199.565C1333.41 199.875 1332.55 199.955 1331.72 199.797C1330.9 199.639 1330.13 199.249 1329.54 198.676C1328.94 198.103 1328.53 197.374 1328.37 196.579C1328.21 195.784 1328.29 194.961 1328.62 194.212C1328.93 193.464 1329.49 192.823 1330.19 192.374C1330.89 191.923 1331.71 191.683 1332.56 191.683C1333.69 191.683 1334.78 192.115 1335.57 192.883C1336.37 193.651 1336.82 194.693 1336.82 195.78Z" stroke="#2976E8" stroke-miterlimit="10"/>
<path d="M1365.78 195.78C1365.78 196.59 1365.53 197.382 1365.07 198.055C1364.6 198.73 1363.93 199.254 1363.15 199.565C1362.37 199.875 1361.51 199.955 1360.69 199.797C1359.85 199.639 1359.1 199.249 1358.5 198.676C1357.91 198.103 1357.5 197.374 1357.33 196.579C1357.17 195.784 1357.25 194.961 1357.57 194.212C1357.9 193.464 1358.44 192.823 1359.14 192.374C1359.85 191.923 1360.68 191.683 1361.51 191.683C1362.64 191.683 1363.73 192.115 1364.54 192.883C1365.33 193.651 1365.78 194.693 1365.78 195.78Z" stroke="#2976E8" stroke-miterlimit="10"/>
<path d="M1394.76 195.78C1394.76 196.59 1394.51 197.382 1394.04 198.055C1393.57 198.73 1392.9 199.254 1392.12 199.565C1391.34 199.875 1390.48 199.955 1389.66 199.797C1388.83 199.639 1388.07 199.249 1387.47 198.676C1386.88 198.103 1386.47 197.374 1386.3 196.579C1386.14 195.784 1386.23 194.961 1386.55 194.212C1386.86 193.464 1387.42 192.823 1388.12 192.374C1388.82 191.923 1389.65 191.683 1390.49 191.683C1391.05 191.683 1391.6 191.79 1392.12 191.995C1392.64 192.201 1393.11 192.502 1393.5 192.883C1393.9 193.264 1394.21 193.715 1394.43 194.212C1394.64 194.709 1394.76 195.242 1394.76 195.78Z" stroke="#2976E8" stroke-miterlimit="10"/>
<path d="M1423.72 195.78C1423.72 196.59 1423.47 197.382 1423 198.055C1422.53 198.73 1421.86 199.254 1421.09 199.565C1420.31 199.875 1419.45 199.955 1418.62 199.797C1417.8 199.639 1417.03 199.248 1416.44 198.675C1415.84 198.102 1415.43 197.373 1415.27 196.578C1415.1 195.783 1415.18 194.959 1415.51 194.21C1415.83 193.462 1416.39 192.822 1417.09 192.373C1417.79 191.923 1418.61 191.683 1419.46 191.683C1420.01 191.683 1420.57 191.79 1421.09 191.995C1421.6 192.201 1422.07 192.503 1422.47 192.884C1422.87 193.264 1423.18 193.716 1423.4 194.212C1423.61 194.709 1423.72 195.242 1423.72 195.78Z" stroke="#2976E8" stroke-miterlimit="10"/>
<path d="M1307.86 223.587C1307.86 224.397 1307.61 225.188 1307.14 225.862C1306.67 226.535 1306.01 227.059 1305.22 227.369C1304.45 227.679 1303.59 227.761 1302.76 227.603C1301.93 227.445 1301.18 227.055 1300.58 226.483C1299.98 225.911 1299.58 225.181 1299.41 224.387C1299.24 223.593 1299.33 222.77 1299.65 222.022C1299.98 221.273 1300.52 220.634 1301.22 220.183C1301.92 219.734 1302.75 219.493 1303.59 219.493C1304.15 219.492 1304.7 219.598 1305.22 219.804C1305.74 220.01 1306.21 220.311 1306.6 220.691C1307 221.072 1307.31 221.523 1307.53 222.02C1307.74 222.517 1307.86 223.049 1307.86 223.587Z" stroke="#2976E8" stroke-miterlimit="10"/>
<path d="M1336.82 223.587C1336.82 224.398 1336.57 225.189 1336.1 225.864C1335.63 226.537 1334.97 227.063 1334.19 227.373C1333.41 227.683 1332.55 227.765 1331.72 227.607C1330.9 227.449 1330.13 227.059 1329.54 226.486C1328.94 225.914 1328.53 225.183 1328.37 224.388C1328.21 223.595 1328.29 222.771 1328.62 222.022C1328.93 221.273 1329.49 220.633 1330.19 220.183C1330.89 219.733 1331.71 219.493 1332.56 219.493C1333.69 219.493 1334.78 219.923 1335.57 220.691C1336.37 221.459 1336.82 222.501 1336.82 223.587Z" stroke="#2976E8" stroke-miterlimit="10"/>
<path d="M1365.78 223.587C1365.78 224.398 1365.54 225.189 1365.07 225.864C1364.6 226.537 1363.93 227.063 1363.16 227.373C1362.37 227.683 1361.51 227.765 1360.69 227.607C1359.86 227.449 1359.1 227.059 1358.5 226.486C1357.91 225.914 1357.5 225.183 1357.33 224.388C1357.17 223.595 1357.25 222.771 1357.57 222.022C1357.9 221.273 1358.44 220.633 1359.14 220.183C1359.85 219.733 1360.68 219.493 1361.51 219.493C1362.64 219.493 1363.73 219.923 1364.54 220.691C1365.33 221.459 1365.78 222.501 1365.78 223.587Z" stroke="#2976E8" stroke-miterlimit="10"/>
<path d="M1394.76 223.587C1394.76 224.398 1394.51 225.189 1394.04 225.864C1393.57 226.537 1392.91 227.063 1392.12 227.373C1391.34 227.683 1390.48 227.765 1389.66 227.607C1388.83 227.449 1388.07 227.059 1387.47 226.486C1386.88 225.914 1386.47 225.183 1386.3 224.388C1386.14 223.595 1386.23 222.771 1386.55 222.022C1386.86 221.273 1387.42 220.633 1388.12 220.183C1388.82 219.733 1389.65 219.493 1390.49 219.493C1391.62 219.493 1392.71 219.923 1393.5 220.691C1394.31 221.459 1394.76 222.501 1394.76 223.587Z" stroke="#2976E8" stroke-miterlimit="10"/>
<path d="M1423.72 223.587C1423.72 224.398 1423.47 225.189 1423 225.864C1422.53 226.537 1421.86 227.063 1421.09 227.373C1420.31 227.683 1419.45 227.765 1418.62 227.607C1417.8 227.448 1417.03 227.059 1416.44 226.486C1415.84 225.913 1415.43 225.182 1415.27 224.387C1415.1 223.593 1415.18 222.769 1415.51 222.02C1415.83 221.272 1416.39 220.632 1417.09 220.182C1417.79 219.732 1418.61 219.492 1419.46 219.493C1420.59 219.493 1421.67 219.923 1422.47 220.692C1423.27 221.46 1423.72 222.501 1423.72 223.587Z" stroke="#2976E8" stroke-miterlimit="10"/>
<path d="M1307.86 251.396C1307.86 252.206 1307.61 252.997 1307.14 253.67C1306.67 254.343 1306.01 254.868 1305.22 255.177C1304.44 255.487 1303.58 255.568 1302.76 255.41C1301.93 255.252 1301.18 254.862 1300.57 254.29C1299.98 253.717 1299.58 252.987 1299.41 252.193C1299.24 251.399 1299.33 250.576 1299.65 249.829C1299.98 249.08 1300.52 248.441 1301.22 247.991C1301.92 247.54 1302.75 247.301 1303.59 247.3C1304.15 247.3 1304.7 247.405 1305.22 247.611C1305.74 247.816 1306.22 248.118 1306.6 248.499C1307 248.879 1307.31 249.331 1307.53 249.829C1307.74 250.325 1307.86 250.858 1307.86 251.396Z" stroke="#2976E8" stroke-miterlimit="10"/>
<path d="M1336.82 251.396C1336.82 252.206 1336.57 252.998 1336.1 253.672C1335.63 254.346 1334.96 254.871 1334.19 255.181C1333.41 255.491 1332.55 255.572 1331.72 255.414C1330.9 255.256 1330.13 254.866 1329.54 254.293C1328.94 253.72 1328.53 252.99 1328.37 252.195C1328.21 251.4 1328.29 250.577 1328.62 249.829C1328.93 249.08 1329.49 248.441 1330.19 247.99C1330.89 247.54 1331.71 247.3 1332.56 247.3C1333.69 247.3 1334.78 247.731 1335.57 248.5C1336.37 249.268 1336.82 250.309 1336.82 251.396Z" stroke="#2976E8" stroke-miterlimit="10"/>
<path d="M1365.78 251.396C1365.78 252.206 1365.53 252.998 1365.07 253.672C1364.6 254.346 1363.93 254.871 1363.15 255.181C1362.37 255.491 1361.51 255.572 1360.69 255.414C1359.85 255.256 1359.1 254.866 1358.5 254.293C1357.91 253.72 1357.5 252.99 1357.33 252.195C1357.17 251.4 1357.25 250.577 1357.57 249.829C1357.9 249.08 1358.44 248.441 1359.14 247.99C1359.85 247.54 1360.68 247.3 1361.51 247.3C1362.64 247.3 1363.73 247.731 1364.54 248.5C1365.33 249.268 1365.78 250.309 1365.78 251.396Z" stroke="#2976E8" stroke-miterlimit="10"/>
<path d="M1394.76 251.396C1394.76 252.206 1394.51 252.998 1394.04 253.672C1393.57 254.346 1392.9 254.871 1392.12 255.181C1391.34 255.491 1390.48 255.572 1389.66 255.414C1388.83 255.256 1388.07 254.866 1387.47 254.293C1386.88 253.72 1386.47 252.99 1386.3 252.195C1386.14 251.4 1386.23 250.577 1386.55 249.829C1386.86 249.08 1387.42 248.441 1388.12 247.99C1388.82 247.54 1389.65 247.3 1390.49 247.3C1391.05 247.3 1391.6 247.406 1392.12 247.612C1392.64 247.817 1393.11 248.12 1393.5 248.5C1393.9 248.88 1394.21 249.332 1394.43 249.829C1394.64 250.325 1394.76 250.858 1394.76 251.396Z" stroke="#2976E8" stroke-miterlimit="10"/>
<path d="M1423.72 251.396C1423.72 252.206 1423.47 252.999 1423 253.672C1422.53 254.346 1421.86 254.871 1421.09 255.181C1420.31 255.491 1419.45 255.572 1418.62 255.414C1417.8 255.255 1417.03 254.865 1416.44 254.292C1415.84 253.719 1415.43 252.989 1415.27 252.194C1415.1 251.399 1415.18 250.575 1415.51 249.827C1415.83 249.079 1416.39 248.439 1417.09 247.989C1417.79 247.539 1418.61 247.3 1419.46 247.3C1420.01 247.3 1420.57 247.406 1421.09 247.612C1421.6 247.817 1422.07 248.12 1422.47 248.5C1422.87 248.88 1423.18 249.332 1423.4 249.829C1423.61 250.325 1423.72 250.858 1423.72 251.396Z" stroke="#2976E8" stroke-miterlimit="10"/>
<path d="M1307.86 279.206C1307.86 280.015 1307.61 280.807 1307.14 281.479C1306.67 282.152 1306.01 282.677 1305.22 282.987C1304.44 283.297 1303.58 283.377 1302.76 283.219C1301.93 283.061 1301.18 282.671 1300.57 282.098C1299.98 281.526 1299.58 280.797 1299.41 280.003C1299.24 279.209 1299.33 278.386 1299.65 277.637C1299.98 276.89 1300.52 276.25 1301.22 275.8C1301.92 275.35 1302.75 275.109 1303.59 275.109C1304.72 275.109 1305.81 275.541 1306.6 276.309C1307.41 277.077 1307.86 278.119 1307.86 279.206Z" stroke="#2976E8" stroke-miterlimit="10"/>
<path d="M1336.82 279.206C1336.82 280.016 1336.57 280.808 1336.1 281.481C1335.63 282.156 1334.96 282.68 1334.19 282.991C1333.41 283.301 1332.55 283.381 1331.72 283.223C1330.9 283.065 1330.13 282.675 1329.54 282.102C1328.94 281.529 1328.53 280.8 1328.37 280.005C1328.21 279.21 1328.29 278.386 1328.62 277.638C1328.93 276.89 1329.49 276.249 1330.19 275.8C1330.89 275.349 1331.71 275.109 1332.56 275.109C1333.69 275.109 1334.78 275.542 1335.57 276.31C1336.37 277.077 1336.82 278.119 1336.82 279.206Z" stroke="#2976E8" stroke-miterlimit="10"/>
<path d="M1365.78 279.206C1365.78 280.016 1365.53 280.808 1365.07 281.481C1364.6 282.156 1363.93 282.68 1363.15 282.991C1362.37 283.301 1361.51 283.381 1360.69 283.223C1359.85 283.065 1359.1 282.675 1358.5 282.102C1357.91 281.529 1357.5 280.8 1357.33 280.005C1357.17 279.21 1357.25 278.386 1357.57 277.638C1357.9 276.89 1358.44 276.249 1359.14 275.8C1359.85 275.349 1360.68 275.109 1361.51 275.109C1362.64 275.109 1363.73 275.542 1364.54 276.31C1365.33 277.077 1365.78 278.119 1365.78 279.206Z" stroke="#2976E8" stroke-miterlimit="10"/>
<path d="M1394.76 279.206C1394.76 280.016 1394.51 280.808 1394.04 281.481C1393.57 282.156 1392.9 282.68 1392.12 282.991C1391.34 283.301 1390.48 283.381 1389.66 283.223C1388.83 283.065 1388.07 282.675 1387.47 282.102C1386.88 281.529 1386.47 280.8 1386.3 280.005C1386.14 279.21 1386.23 278.386 1386.55 277.638C1386.86 276.89 1387.42 276.249 1388.12 275.8C1388.82 275.349 1389.65 275.109 1390.49 275.109C1391.62 275.109 1392.71 275.542 1393.5 276.31C1394.31 277.077 1394.76 278.119 1394.76 279.206Z" stroke="#2976E8" stroke-miterlimit="10"/>
<path d="M1423.72 279.206C1423.72 280.016 1423.47 280.808 1423 281.482C1422.53 282.155 1421.86 282.68 1421.09 282.991C1420.31 283.301 1419.45 283.381 1418.62 283.223C1417.8 283.065 1417.03 282.674 1416.44 282.101C1415.84 281.528 1415.43 280.799 1415.27 280.004C1415.1 279.209 1415.18 278.385 1415.51 277.636C1415.83 276.888 1416.39 276.248 1417.09 275.799C1417.79 275.349 1418.61 275.109 1419.46 275.109C1420.59 275.109 1421.67 275.542 1422.47 276.31C1423.27 277.078 1423.72 278.119 1423.72 279.206Z" stroke="#2976E8" stroke-miterlimit="10"/>
<path d="M1307.86 307.015C1307.86 307.824 1307.61 308.616 1307.14 309.289C1306.67 309.962 1306.01 310.486 1305.22 310.796C1304.44 311.105 1303.58 311.186 1302.76 311.029C1301.93 310.87 1301.18 310.481 1300.57 309.908C1299.98 309.336 1299.58 308.606 1299.41 307.812C1299.24 307.019 1299.33 306.195 1299.65 305.447C1299.98 304.699 1300.52 304.06 1301.22 303.609C1301.92 303.16 1302.75 302.919 1303.59 302.919C1304.72 302.919 1305.81 303.35 1306.6 304.118C1307.41 304.887 1307.86 305.929 1307.86 307.015Z" stroke="#2976E8" stroke-miterlimit="10"/>
<path d="M1336.82 307.015C1336.82 307.825 1336.57 308.617 1336.1 309.291C1335.63 309.964 1334.96 310.489 1334.19 310.799C1333.41 311.109 1332.55 311.191 1331.72 311.033C1330.9 310.874 1330.13 310.484 1329.54 309.912C1328.94 309.339 1328.53 308.608 1328.37 307.814C1328.21 307.02 1328.29 306.196 1328.62 305.447C1328.93 304.699 1329.49 304.059 1330.19 303.609C1330.89 303.159 1331.71 302.919 1332.56 302.919C1333.69 302.919 1334.78 303.35 1335.57 304.119C1336.37 304.887 1336.82 305.929 1336.82 307.015Z" stroke="#2976E8" stroke-miterlimit="10"/>
<path d="M1365.78 307.015C1365.78 307.825 1365.53 308.617 1365.07 309.291C1364.6 309.964 1363.93 310.489 1363.15 310.799C1362.37 311.109 1361.51 311.191 1360.69 311.033C1359.85 310.874 1359.1 310.484 1358.5 309.912C1357.91 309.339 1357.5 308.608 1357.33 307.814C1357.17 307.02 1357.25 306.196 1357.57 305.447C1357.9 304.699 1358.44 304.059 1359.14 303.609C1359.85 303.159 1360.68 302.919 1361.51 302.919C1362.64 302.919 1363.73 303.35 1364.54 304.119C1365.33 304.887 1365.78 305.929 1365.78 307.015Z" stroke="#2976E8" stroke-miterlimit="10"/>
<path d="M1394.76 307.015C1394.76 307.825 1394.51 308.617 1394.04 309.291C1393.57 309.964 1392.9 310.489 1392.12 310.799C1391.34 311.109 1390.48 311.191 1389.66 311.033C1388.83 310.874 1388.07 310.484 1387.47 309.912C1386.88 309.339 1386.47 308.608 1386.3 307.814C1386.14 307.02 1386.23 306.196 1386.55 305.447C1386.86 304.699 1387.42 304.059 1388.12 303.609C1388.82 303.159 1389.65 302.919 1390.49 302.919C1391.62 302.919 1392.71 303.35 1393.5 304.119C1394.31 304.887 1394.76 305.929 1394.76 307.015Z" stroke="#2976E8" stroke-miterlimit="10"/>
<path d="M1423.72 307.015C1423.72 307.825 1423.47 308.617 1423 309.291C1422.53 309.965 1421.86 310.49 1421.09 310.8C1420.31 311.109 1419.45 311.19 1418.62 311.032C1417.8 310.874 1417.03 310.484 1416.44 309.911C1415.84 309.338 1415.43 308.607 1415.27 307.812C1415.1 307.018 1415.18 306.195 1415.51 305.446C1415.83 304.697 1416.39 304.058 1417.09 303.608C1417.79 303.158 1418.61 302.918 1419.46 302.919C1420.59 302.919 1421.67 303.35 1422.47 304.119C1423.27 304.887 1423.72 305.929 1423.72 307.015Z" stroke="#2976E8" stroke-miterlimit="10"/>
<g opacity="0.29">
<path opacity="0.29" d="M853.331 668.246C854.544 668.246 855.537 667.299 855.537 666.129C855.537 664.96 854.544 664.013 853.331 664.013C852.108 664.013 851.126 664.96 851.126 666.129C851.126 667.299 852.108 668.246 853.331 668.246Z" fill="#F89300"/>
<path opacity="0.29" d="M882.089 668.246C883.302 668.246 884.284 667.299 884.284 666.129C884.284 664.96 883.302 664.013 882.089 664.013C880.866 664.013 879.883 664.96 879.883 666.129C879.883 667.299 880.866 668.246 882.089 668.246Z" fill="#F89300"/>
<path opacity="0.29" d="M910.836 668.246C912.059 668.246 913.041 667.299 913.041 666.129C913.041 664.96 912.059 664.013 910.836 664.013C909.623 664.013 908.641 664.96 908.641 666.129C908.641 667.299 909.623 668.246 910.836 668.246Z" fill="#F89300"/>
<path opacity="0.29" d="M939.593 668.246C940.816 668.246 941.799 667.299 941.799 666.129C941.799 664.96 940.816 664.013 939.593 664.013C938.381 664.013 937.387 664.96 937.387 666.129C937.387 667.299 938.381 668.246 939.593 668.246Z" fill="#F89300"/>
<path opacity="0.29" d="M853.332 695.613C854.544 695.613 855.537 694.666 855.537 693.496C855.537 692.327 854.544 691.38 853.332 691.38C852.109 691.38 851.126 692.327 851.126 693.496C851.126 694.666 852.109 695.613 853.332 695.613Z" fill="#F89300"/>
<path opacity="0.29" d="M882.089 695.613C883.302 695.613 884.284 694.666 884.284 693.496C884.284 692.327 883.302 691.38 882.089 691.38C880.866 691.38 879.883 692.327 879.883 693.496C879.883 694.666 880.866 695.613 882.089 695.613Z" fill="#F89300"/>
<path opacity="0.29" d="M910.836 695.613C912.059 695.613 913.041 694.666 913.041 693.496C913.041 692.327 912.059 691.38 910.836 691.38C909.623 691.38 908.641 692.327 908.641 693.496C908.641 694.666 909.623 695.613 910.836 695.613Z" fill="#F89300"/>
<path opacity="0.29" d="M939.593 695.613C940.816 695.613 941.799 694.666 941.799 693.496C941.799 692.327 940.816 691.38 939.593 691.38C938.381 691.38 937.387 692.327 937.387 693.496C937.387 694.666 938.381 695.613 939.593 695.613Z" fill="#F89300"/>
<path opacity="0.29" d="M855.537 720.864C855.537 721.282 855.401 721.691 855.161 722.04C854.921 722.388 854.576 722.659 854.168 722.82C853.771 722.979 853.321 723.021 852.903 722.94C852.474 722.858 852.077 722.657 851.774 722.361C851.46 722.065 851.251 721.687 851.168 721.277C851.084 720.866 851.126 720.441 851.293 720.054C851.46 719.667 851.743 719.336 852.109 719.104C852.464 718.871 852.893 718.747 853.332 718.747C853.917 718.747 854.471 718.97 854.889 719.367C855.297 719.765 855.537 720.302 855.537 720.864Z" fill="#F89300"/>
<path opacity="0.29" d="M884.284 720.864C884.284 721.282 884.159 721.691 883.918 722.04C883.678 722.388 883.333 722.659 882.925 722.82C882.528 722.979 882.078 723.021 881.65 722.94C881.232 722.858 880.835 722.657 880.521 722.361C880.218 722.065 880.009 721.687 879.925 721.277C879.841 720.866 879.883 720.441 880.051 720.054C880.218 719.667 880.5 719.336 880.855 719.104C881.221 718.871 881.65 718.747 882.089 718.747C882.674 718.747 883.228 718.97 883.647 719.367C884.054 719.765 884.284 720.302 884.284 720.864Z" fill="#F89300"/>
<path opacity="0.29" d="M913.042 720.864C913.042 721.282 912.916 721.691 912.676 722.04C912.435 722.388 912.09 722.659 911.683 722.82C911.285 722.979 910.836 723.021 910.407 722.94C909.979 722.858 909.592 722.657 909.278 722.361C908.975 722.065 908.766 721.687 908.682 721.277C908.599 720.866 908.641 720.441 908.808 720.054C908.975 719.667 909.257 719.336 909.613 719.104C909.979 718.871 910.407 718.747 910.836 718.747C911.421 718.747 911.986 718.97 912.404 719.367C912.812 719.765 913.042 720.302 913.042 720.864Z" fill="#F89300"/>
<path opacity="0.29" d="M941.799 720.864C941.799 721.282 941.673 721.691 941.433 722.04C941.182 722.388 940.848 722.659 940.44 722.82C940.032 722.979 939.593 723.021 939.165 722.94C938.736 722.858 938.349 722.657 938.036 722.361C937.732 722.065 937.523 721.687 937.429 721.277C937.346 720.866 937.388 720.441 937.555 720.054C937.722 719.667 938.004 719.336 938.37 719.104C938.736 718.871 939.165 718.747 939.593 718.747C939.886 718.747 940.168 718.802 940.44 718.908C940.712 719.015 940.952 719.17 941.151 719.367C941.36 719.564 941.527 719.797 941.632 720.054C941.747 720.311 941.799 720.586 941.799 720.864Z" fill="#F89300"/>
<path opacity="0.29" d="M855.537 748.233C855.537 748.651 855.401 749.061 855.161 749.409C854.921 749.756 854.576 750.028 854.168 750.188C853.771 750.348 853.321 750.389 852.893 750.308C852.474 750.226 852.077 750.024 851.774 749.728C851.46 749.432 851.251 749.055 851.168 748.644C851.084 748.234 851.126 747.808 851.293 747.422C851.46 747.035 851.743 746.704 852.109 746.472C852.464 746.239 852.893 746.115 853.332 746.115C853.614 746.115 853.907 746.17 854.168 746.277C854.44 746.383 854.68 746.538 854.889 746.735C855.088 746.932 855.255 747.166 855.37 747.423C855.475 747.68 855.537 747.955 855.537 748.233Z" fill="#F89300"/>
<path opacity="0.29" d="M884.284 748.233C884.284 748.651 884.159 749.061 883.918 749.409C883.678 749.756 883.333 750.028 882.925 750.188C882.528 750.348 882.078 750.389 881.65 750.308C881.221 750.226 880.835 750.024 880.521 749.728C880.218 749.432 880.009 749.055 879.925 748.644C879.841 748.234 879.883 747.808 880.051 747.422C880.218 747.035 880.5 746.704 880.855 746.472C881.221 746.239 881.65 746.115 882.089 746.115C882.371 746.115 882.664 746.17 882.925 746.277C883.197 746.383 883.437 746.538 883.647 746.735C883.845 746.932 884.012 747.166 884.117 747.423C884.232 747.68 884.284 747.955 884.284 748.233Z" fill="#F89300"/>
<path opacity="0.29" d="M913.042 748.233C913.042 748.651 912.916 749.061 912.676 749.409C912.435 749.756 912.09 750.028 911.683 750.188C911.285 750.348 910.836 750.389 910.407 750.308C909.979 750.226 909.592 750.024 909.278 749.728C908.975 749.432 908.766 749.055 908.682 748.644C908.599 748.234 908.641 747.808 908.808 747.422C908.975 747.035 909.257 746.704 909.613 746.472C909.979 746.239 910.407 746.115 910.836 746.115C911.421 746.116 911.986 746.339 912.404 746.736C912.812 747.133 913.042 747.672 913.042 748.233Z" fill="#F89300"/>
<path opacity="0.29" d="M941.799 748.233C941.799 748.651 941.673 749.061 941.433 749.409C941.182 749.756 940.837 750.028 940.44 750.188C940.032 750.348 939.593 750.389 939.165 750.308C938.736 750.226 938.349 750.024 938.036 749.728C937.732 749.432 937.523 749.055 937.429 748.644C937.346 748.234 937.388 747.808 937.555 747.422C937.722 747.035 938.004 746.704 938.37 746.472C938.736 746.239 939.165 746.115 939.593 746.115C939.886 746.115 940.168 746.17 940.44 746.277C940.712 746.383 940.952 746.538 941.151 746.735C941.36 746.932 941.527 747.166 941.632 747.423C941.747 747.68 941.799 747.955 941.799 748.233Z" fill="#F89300"/>
</g>
<g opacity="0.29">
<path opacity="0.29" d="M965.184 668.246C966.396 668.246 967.39 667.299 967.39 666.129C967.39 664.96 966.396 664.013 965.184 664.013C963.961 664.013 962.978 664.96 962.978 666.129C962.978 667.299 963.961 668.246 965.184 668.246Z" fill="#F89300"/>
<path opacity="0.29" d="M993.94 668.246C995.153 668.246 996.136 667.299 996.136 666.129C996.136 664.96 995.153 664.013 993.94 664.013C992.717 664.013 991.735 664.96 991.735 666.129C991.735 667.299 992.717 668.246 993.94 668.246Z" fill="#F89300"/>
<path opacity="0.29" d="M1022.69 668.246C1023.91 668.246 1024.89 667.299 1024.89 666.129C1024.89 664.96 1023.91 664.013 1022.69 664.013C1021.47 664.013 1020.49 664.96 1020.49 666.129C1020.49 667.299 1021.47 668.246 1022.69 668.246Z" fill="#F89300"/>
<path opacity="0.29" d="M1051.44 668.246C1052.67 668.246 1053.65 667.299 1053.65 666.129C1053.65 664.96 1052.67 664.013 1051.44 664.013C1050.23 664.013 1049.24 664.96 1049.24 666.129C1049.24 667.299 1050.23 668.246 1051.44 668.246Z" fill="#F89300"/>
<path opacity="0.29" d="M965.183 695.613C966.396 695.613 967.389 694.666 967.389 693.496C967.389 692.327 966.396 691.38 965.183 691.38C963.96 691.38 962.978 692.327 962.978 693.496C962.978 694.666 963.96 695.613 965.183 695.613Z" fill="#F89300"/>
<path opacity="0.29" d="M993.94 695.613C995.153 695.613 996.136 694.666 996.136 693.496C996.136 692.327 995.153 691.38 993.94 691.38C992.717 691.38 991.735 692.327 991.735 693.496C991.735 694.666 992.717 695.613 993.94 695.613Z" fill="#F89300"/>
<path opacity="0.29" d="M1022.69 695.613C1023.91 695.613 1024.89 694.666 1024.89 693.496C1024.89 692.327 1023.91 691.38 1022.69 691.38C1021.47 691.38 1020.49 692.327 1020.49 693.496C1020.49 694.666 1021.47 695.613 1022.69 695.613Z" fill="#F89300"/>
<path opacity="0.29" d="M1051.44 695.613C1052.67 695.613 1053.65 694.666 1053.65 693.496C1053.65 692.327 1052.67 691.38 1051.44 691.38C1050.23 691.38 1049.24 692.327 1049.24 693.496C1049.24 694.666 1050.23 695.613 1051.44 695.613Z" fill="#F89300"/>
<path opacity="0.29" d="M967.389 720.864C967.389 721.282 967.253 721.691 967.012 722.04C966.772 722.388 966.427 722.659 966.019 722.82C965.622 722.979 965.173 723.021 964.754 722.94C964.326 722.858 963.929 722.657 963.626 722.361C963.312 722.065 963.103 721.687 963.019 721.277C962.936 720.866 962.978 720.441 963.145 720.054C963.312 719.667 963.594 719.336 963.96 719.104C964.315 718.871 964.744 718.747 965.183 718.747C965.768 718.747 966.322 718.97 966.741 719.367C967.148 719.765 967.389 720.302 967.389 720.864Z" fill="#F89300"/>
<path opacity="0.29" d="M996.136 720.864C996.136 721.282 996.01 721.691 995.77 722.04C995.529 722.388 995.184 722.659 994.777 722.82C994.38 722.979 993.93 723.021 993.501 722.94C993.083 722.858 992.686 722.657 992.372 722.361C992.069 722.065 991.86 721.687 991.777 721.277C991.693 720.866 991.735 720.441 991.902 720.054C992.069 719.667 992.351 719.336 992.707 719.104C993.073 718.871 993.501 718.747 993.94 718.747C994.526 718.747 995.08 718.97 995.498 719.367C995.906 719.765 996.136 720.302 996.136 720.864Z" fill="#F89300"/>
<path opacity="0.29" d="M1024.89 720.864C1024.89 721.282 1024.77 721.691 1024.53 722.04C1024.29 722.388 1023.94 722.659 1023.53 722.82C1023.14 722.979 1022.69 723.021 1022.26 722.94C1021.83 722.858 1021.44 722.657 1021.13 722.361C1020.83 722.065 1020.62 721.687 1020.53 721.277C1020.45 720.866 1020.49 720.441 1020.66 720.054C1020.83 719.667 1021.11 719.336 1021.46 719.104C1021.83 718.871 1022.26 718.747 1022.69 718.747C1023.27 718.747 1023.84 718.97 1024.26 719.367C1024.66 719.765 1024.89 720.302 1024.89 720.864Z" fill="#F89300"/>
<path opacity="0.29" d="M1053.65 720.864C1053.65 721.282 1053.53 721.691 1053.28 722.04C1053.03 722.388 1052.7 722.659 1052.29 722.82C1051.88 722.979 1051.44 723.021 1051.02 722.94C1050.59 722.858 1050.2 722.657 1049.89 722.361C1049.58 722.065 1049.38 721.687 1049.28 721.277C1049.2 720.866 1049.24 720.441 1049.41 720.054C1049.57 719.667 1049.86 719.336 1050.22 719.104C1050.59 718.871 1051.02 718.747 1051.44 718.747C1051.74 718.747 1052.02 718.802 1052.29 718.908C1052.56 719.015 1052.8 719.17 1053 719.367C1053.21 719.564 1053.38 719.797 1053.48 720.054C1053.6 720.311 1053.65 720.586 1053.65 720.864Z" fill="#F89300"/>
<path opacity="0.29" d="M967.389 748.233C967.389 748.651 967.253 749.061 967.012 749.409C966.772 749.756 966.427 750.028 966.019 750.188C965.622 750.348 965.173 750.389 964.744 750.308C964.326 750.226 963.929 750.024 963.626 749.728C963.312 749.432 963.103 749.055 963.019 748.644C962.936 748.234 962.978 747.808 963.145 747.422C963.312 747.035 963.594 746.704 963.96 746.472C964.315 746.239 964.744 746.115 965.183 746.115C965.465 746.115 965.758 746.17 966.019 746.277C966.291 746.383 966.532 746.538 966.741 746.735C966.939 746.932 967.106 747.166 967.221 747.423C967.326 747.68 967.389 747.955 967.389 748.233Z" fill="#F89300"/>
<path opacity="0.29" d="M996.136 748.233C996.136 748.651 996.01 749.061 995.77 749.409C995.529 749.756 995.184 750.028 994.777 750.188C994.38 750.348 993.93 750.389 993.501 750.308C993.073 750.226 992.686 750.024 992.372 749.728C992.069 749.432 991.86 749.055 991.777 748.644C991.693 748.234 991.735 747.808 991.902 747.422C992.069 747.035 992.351 746.704 992.707 746.472C993.073 746.239 993.501 746.115 993.94 746.115C994.223 746.115 994.515 746.17 994.777 746.277C995.049 746.383 995.289 746.538 995.498 746.735C995.697 746.932 995.864 747.166 995.968 747.423C996.083 747.68 996.136 747.955 996.136 748.233Z" fill="#F89300"/>
<path opacity="0.29" d="M1024.89 748.233C1024.89 748.651 1024.77 749.061 1024.53 749.409C1024.29 749.756 1023.94 750.028 1023.53 750.188C1023.14 750.348 1022.69 750.389 1022.26 750.308C1021.83 750.226 1021.44 750.024 1021.13 749.728C1020.83 749.432 1020.62 749.055 1020.53 748.644C1020.45 748.234 1020.49 747.808 1020.66 747.422C1020.83 747.035 1021.11 746.704 1021.46 746.472C1021.83 746.239 1022.26 746.115 1022.69 746.115C1023.27 746.116 1023.84 746.339 1024.26 746.736C1024.66 747.133 1024.89 747.672 1024.89 748.233Z" fill="#F89300"/>
<path opacity="0.29" d="M1053.65 748.233C1053.65 748.651 1053.53 749.061 1053.28 749.409C1053.03 749.756 1052.69 750.028 1052.29 750.188C1051.88 750.348 1051.44 750.389 1051.02 750.308C1050.59 750.226 1050.2 750.024 1049.89 749.728C1049.58 749.432 1049.38 749.055 1049.28 748.644C1049.2 748.234 1049.24 747.808 1049.41 747.422C1049.57 747.035 1049.86 746.704 1050.22 746.472C1050.59 746.239 1051.02 746.115 1051.44 746.115C1051.74 746.115 1052.02 746.17 1052.29 746.277C1052.56 746.383 1052.8 746.538 1053 746.735C1053.21 746.932 1053.38 747.166 1053.48 747.423C1053.6 747.68 1053.65 747.955 1053.65 748.233Z" fill="#F89300"/>
</g>
<g opacity="0.29">
<path opacity="0.29" d="M1077.04 668.246C1078.25 668.246 1079.24 667.299 1079.24 666.129C1079.24 664.96 1078.25 664.013 1077.04 664.013C1075.81 664.013 1074.83 664.96 1074.83 666.129C1074.83 667.299 1075.81 668.246 1077.04 668.246Z" fill="#F89300"/>
<path opacity="0.29" d="M1105.79 668.246C1107.01 668.246 1107.99 667.299 1107.99 666.129C1107.99 664.96 1107.01 664.013 1105.79 664.013C1104.57 664.013 1103.59 664.96 1103.59 666.129C1103.59 667.299 1104.57 668.246 1105.79 668.246Z" fill="#F89300"/>
<path opacity="0.29" d="M1134.54 668.246C1135.76 668.246 1136.74 667.299 1136.74 666.129C1136.74 664.96 1135.76 664.013 1134.54 664.013C1133.33 664.013 1132.34 664.96 1132.34 666.129C1132.34 667.299 1133.33 668.246 1134.54 668.246Z" fill="#F89300"/>
<path opacity="0.29" d="M1163.3 668.246C1164.52 668.246 1165.5 667.299 1165.5 666.129C1165.5 664.96 1164.52 664.013 1163.3 664.013C1162.08 664.013 1161.09 664.96 1161.09 666.129C1161.09 667.299 1162.08 668.246 1163.3 668.246Z" fill="#F89300"/>
<path opacity="0.29" d="M1077.04 695.613C1078.25 695.613 1079.24 694.666 1079.24 693.496C1079.24 692.327 1078.25 691.38 1077.04 691.38C1075.81 691.38 1074.83 692.327 1074.83 693.496C1074.83 694.666 1075.81 695.613 1077.04 695.613Z" fill="#F89300"/>
<path opacity="0.29" d="M1105.79 695.613C1107.01 695.613 1107.99 694.666 1107.99 693.496C1107.99 692.327 1107.01 691.38 1105.79 691.38C1104.57 691.38 1103.59 692.327 1103.59 693.496C1103.59 694.666 1104.57 695.613 1105.79 695.613Z" fill="#F89300"/>
<path opacity="0.29" d="M1134.54 695.613C1135.76 695.613 1136.74 694.666 1136.74 693.496C1136.74 692.327 1135.76 691.38 1134.54 691.38C1133.33 691.38 1132.34 692.327 1132.34 693.496C1132.34 694.666 1133.33 695.613 1134.54 695.613Z" fill="#F89300"/>
<path opacity="0.29" d="M1163.3 695.613C1164.52 695.613 1165.5 694.666 1165.5 693.496C1165.5 692.327 1164.52 691.38 1163.3 691.38C1162.08 691.38 1161.09 692.327 1161.09 693.496C1161.09 694.666 1162.08 695.613 1163.3 695.613Z" fill="#F89300"/>
<path opacity="0.29" d="M1079.24 720.864C1079.24 721.282 1079.1 721.691 1078.86 722.04C1078.62 722.388 1078.28 722.659 1077.87 722.82C1077.47 722.979 1077.02 723.021 1076.61 722.94C1076.18 722.858 1075.78 722.657 1075.48 722.361C1075.16 722.065 1074.95 721.687 1074.87 721.277C1074.79 720.866 1074.83 720.441 1075 720.054C1075.16 719.667 1075.45 719.336 1075.81 719.104C1076.17 718.871 1076.6 718.747 1077.04 718.747C1077.62 718.747 1078.17 718.97 1078.59 719.367C1079 719.765 1079.24 720.302 1079.24 720.864Z" fill="#F89300"/>
<path opacity="0.29" d="M1107.99 720.864C1107.99 721.282 1107.86 721.691 1107.62 722.04C1107.38 722.388 1107.04 722.659 1106.63 722.82C1106.23 722.979 1105.78 723.021 1105.35 722.94C1104.94 722.858 1104.54 722.657 1104.22 722.361C1103.92 722.065 1103.71 721.687 1103.63 721.277C1103.55 720.866 1103.59 720.441 1103.75 720.054C1103.92 719.667 1104.2 719.336 1104.56 719.104C1104.92 718.871 1105.35 718.747 1105.79 718.747C1106.38 718.747 1106.93 718.97 1107.35 719.367C1107.76 719.765 1107.99 720.302 1107.99 720.864Z" fill="#F89300"/>
<path opacity="0.29" d="M1136.75 720.864C1136.75 721.282 1136.62 721.691 1136.38 722.04C1136.14 722.388 1135.79 722.659 1135.39 722.82C1134.99 722.979 1134.54 723.021 1134.11 722.94C1133.68 722.858 1133.3 722.657 1132.98 722.361C1132.68 722.065 1132.47 721.687 1132.39 721.277C1132.3 720.866 1132.34 720.441 1132.51 720.054C1132.68 719.667 1132.96 719.336 1133.32 719.104C1133.68 718.871 1134.11 718.747 1134.54 718.747C1135.13 718.747 1135.69 718.97 1136.11 719.367C1136.52 719.765 1136.75 720.302 1136.75 720.864Z" fill="#F89300"/>
<path opacity="0.29" d="M1165.5 720.864C1165.5 721.282 1165.38 721.691 1165.14 722.04C1164.89 722.388 1164.55 722.659 1164.14 722.82C1163.74 722.979 1163.3 723.021 1162.87 722.94C1162.44 722.858 1162.05 722.657 1161.74 722.361C1161.44 722.065 1161.23 721.687 1161.13 721.277C1161.05 720.866 1161.09 720.441 1161.26 720.054C1161.43 719.667 1161.71 719.336 1162.07 719.104C1162.44 718.871 1162.87 718.747 1163.3 718.747C1163.59 718.747 1163.87 718.802 1164.14 718.908C1164.42 719.015 1164.66 719.17 1164.85 719.367C1165.06 719.564 1165.23 719.797 1165.34 720.054C1165.45 720.311 1165.5 720.586 1165.5 720.864Z" fill="#F89300"/>
<path opacity="0.29" d="M1079.24 748.233C1079.24 748.651 1079.1 749.061 1078.86 749.409C1078.62 749.756 1078.28 750.028 1077.87 750.188C1077.47 750.348 1077.02 750.389 1076.6 750.308C1076.18 750.226 1075.78 750.024 1075.48 749.728C1075.16 749.432 1074.95 749.055 1074.87 748.644C1074.79 748.234 1074.83 747.808 1075 747.422C1075.16 747.035 1075.45 746.704 1075.81 746.472C1076.17 746.239 1076.6 746.115 1077.04 746.115C1077.32 746.115 1077.61 746.17 1077.87 746.277C1078.14 746.383 1078.38 746.538 1078.59 746.735C1078.79 746.932 1078.96 747.166 1079.07 747.423C1079.18 747.68 1079.24 747.955 1079.24 748.233Z" fill="#F89300"/>
<path opacity="0.29" d="M1107.99 748.233C1107.99 748.651 1107.86 749.061 1107.62 749.409C1107.38 749.756 1107.04 750.028 1106.63 750.188C1106.23 750.348 1105.78 750.389 1105.35 750.308C1104.92 750.226 1104.54 750.024 1104.22 749.728C1103.92 749.432 1103.71 749.055 1103.63 748.644C1103.55 748.234 1103.59 747.808 1103.75 747.422C1103.92 747.035 1104.2 746.704 1104.56 746.472C1104.92 746.239 1105.35 746.115 1105.79 746.115C1106.07 746.115 1106.37 746.17 1106.63 746.277C1106.9 746.383 1107.14 746.538 1107.35 746.735C1107.55 746.932 1107.72 747.166 1107.82 747.423C1107.94 747.68 1107.99 747.955 1107.99 748.233Z" fill="#F89300"/>
<path opacity="0.29" d="M1136.75 748.233C1136.75 748.651 1136.62 749.061 1136.38 749.409C1136.14 749.756 1135.79 750.028 1135.39 750.188C1134.99 750.348 1134.54 750.389 1134.11 750.308C1133.68 750.226 1133.3 750.024 1132.98 749.728C1132.68 749.432 1132.47 749.055 1132.39 748.644C1132.3 748.234 1132.34 747.808 1132.51 747.422C1132.68 747.035 1132.96 746.704 1133.32 746.472C1133.68 746.239 1134.11 746.115 1134.54 746.115C1135.13 746.116 1135.69 746.339 1136.11 746.736C1136.52 747.133 1136.75 747.672 1136.75 748.233Z" fill="#F89300"/>
<path opacity="0.29" d="M1165.5 748.233C1165.5 748.651 1165.38 749.061 1165.14 749.409C1164.89 749.756 1164.54 750.028 1164.14 750.188C1163.74 750.348 1163.3 750.389 1162.87 750.308C1162.44 750.226 1162.05 750.024 1161.74 749.728C1161.44 749.432 1161.23 749.055 1161.13 748.644C1161.05 748.234 1161.09 747.808 1161.26 747.422C1161.43 747.035 1161.71 746.704 1162.07 746.472C1162.44 746.239 1162.87 746.115 1163.3 746.115C1163.59 746.115 1163.87 746.17 1164.14 746.277C1164.42 746.383 1164.66 746.538 1164.85 746.735C1165.06 746.932 1165.23 747.166 1165.34 747.423C1165.45 747.68 1165.5 747.955 1165.5 748.233Z" fill="#F89300"/>
</g>
<g opacity="0.29">
<path opacity="0.29" d="M853.331 775.631C854.544 775.631 855.537 774.683 855.537 773.514C855.537 772.345 854.544 771.398 853.331 771.398C852.108 771.398 851.126 772.345 851.126 773.514C851.126 774.683 852.108 775.631 853.331 775.631Z" fill="#F89300"/>
<path opacity="0.29" d="M882.089 775.631C883.302 775.631 884.284 774.683 884.284 773.514C884.284 772.345 883.302 771.398 882.089 771.398C880.866 771.398 879.883 772.345 879.883 773.514C879.883 774.683 880.866 775.631 882.089 775.631Z" fill="#F89300"/>
<path opacity="0.29" d="M910.836 775.631C912.059 775.631 913.041 774.683 913.041 773.514C913.041 772.345 912.059 771.398 910.836 771.398C909.623 771.398 908.641 772.345 908.641 773.514C908.641 774.683 909.623 775.631 910.836 775.631Z" fill="#F89300"/>
<path opacity="0.29" d="M939.593 775.631C940.816 775.631 941.799 774.683 941.799 773.514C941.799 772.345 940.816 771.398 939.593 771.398C938.381 771.398 937.387 772.345 937.387 773.514C937.387 774.683 938.381 775.631 939.593 775.631Z" fill="#F89300"/>
<path opacity="0.29" d="M853.332 802.998C854.544 802.998 855.537 802.051 855.537 800.881C855.537 799.712 854.544 798.765 853.332 798.765C852.109 798.765 851.126 799.712 851.126 800.881C851.126 802.051 852.109 802.998 853.332 802.998Z" fill="#F89300"/>
<path opacity="0.29" d="M882.089 802.998C883.302 802.998 884.284 802.051 884.284 800.881C884.284 799.712 883.302 798.765 882.089 798.765C880.866 798.765 879.883 799.712 879.883 800.881C879.883 802.051 880.866 802.998 882.089 802.998Z" fill="#F89300"/>
<path opacity="0.29" d="M910.836 802.998C912.059 802.998 913.041 802.051 913.041 800.881C913.041 799.712 912.059 798.765 910.836 798.765C909.623 798.765 908.641 799.712 908.641 800.881C908.641 802.051 909.623 802.998 910.836 802.998Z" fill="#F89300"/>
<path opacity="0.29" d="M939.593 802.998C940.816 802.998 941.799 802.051 941.799 800.881C941.799 799.712 940.816 798.765 939.593 798.765C938.381 798.765 937.387 799.712 937.387 800.881C937.387 802.051 938.381 802.998 939.593 802.998Z" fill="#F89300"/>
<path opacity="0.29" d="M855.537 828.248C855.537 828.667 855.401 829.076 855.161 829.424C854.921 829.773 854.576 830.044 854.168 830.204C853.771 830.364 853.321 830.406 852.903 830.325C852.474 830.242 852.077 830.042 851.774 829.746C851.46 829.45 851.251 829.072 851.168 828.662C851.084 828.251 851.126 827.826 851.293 827.438C851.46 827.052 851.743 826.721 852.109 826.489C852.464 826.256 852.893 826.132 853.332 826.132C853.917 826.132 854.471 826.354 854.889 826.752C855.297 827.149 855.537 827.687 855.537 828.248Z" fill="#F89300"/>
<path opacity="0.29" d="M884.284 828.248C884.284 828.667 884.159 829.076 883.918 829.424C883.678 829.773 883.333 830.044 882.925 830.204C882.528 830.364 882.078 830.406 881.65 830.325C881.232 830.242 880.835 830.042 880.521 829.746C880.218 829.45 880.009 829.072 879.925 828.662C879.841 828.251 879.883 827.826 880.051 827.438C880.218 827.052 880.5 826.721 880.855 826.489C881.221 826.256 881.65 826.132 882.089 826.132C882.674 826.132 883.228 826.354 883.647 826.752C884.054 827.149 884.284 827.687 884.284 828.248Z" fill="#F89300"/>
<path opacity="0.29" d="M913.042 828.248C913.042 828.667 912.916 829.076 912.676 829.424C912.435 829.773 912.09 830.044 911.683 830.204C911.285 830.364 910.836 830.406 910.407 830.325C909.979 830.242 909.592 830.042 909.278 829.746C908.975 829.45 908.766 829.072 908.682 828.662C908.599 828.251 908.641 827.826 908.808 827.438C908.975 827.052 909.257 826.721 909.613 826.489C909.979 826.256 910.407 826.132 910.836 826.132C911.421 826.132 911.986 826.354 912.404 826.752C912.812 827.149 913.042 827.687 913.042 828.248Z" fill="#F89300"/>
<path opacity="0.29" d="M941.799 828.248C941.799 828.667 941.673 829.076 941.433 829.424C941.182 829.773 940.848 830.044 940.44 830.204C940.032 830.364 939.593 830.406 939.165 830.325C938.736 830.242 938.349 830.042 938.036 829.746C937.732 829.45 937.523 829.072 937.429 828.662C937.346 828.251 937.388 827.826 937.555 827.438C937.722 827.052 938.004 826.721 938.37 826.489C938.736 826.256 939.165 826.132 939.593 826.132C939.886 826.132 940.168 826.187 940.44 826.293C940.712 826.4 940.952 826.555 941.151 826.752C941.36 826.949 941.527 827.181 941.632 827.438C941.747 827.695 941.799 827.97 941.799 828.248Z" fill="#F89300"/>
<path opacity="0.29" d="M855.537 855.617C855.537 856.036 855.401 856.445 855.161 856.794C854.921 857.141 854.576 857.413 854.168 857.572C853.771 857.733 853.321 857.774 852.893 857.693C852.474 857.611 852.077 857.409 851.774 857.113C851.46 856.817 851.251 856.439 851.168 856.029C851.084 855.619 851.126 855.193 851.293 854.807C851.46 854.42 851.743 854.089 852.109 853.857C852.464 853.624 852.893 853.5 853.332 853.5C853.614 853.5 853.907 853.555 854.168 853.662C854.44 853.768 854.68 853.923 854.889 854.12C855.088 854.317 855.255 854.551 855.37 854.808C855.475 855.064 855.537 855.339 855.537 855.617Z" fill="#F89300"/>
<path opacity="0.29" d="M884.284 855.617C884.284 856.036 884.159 856.445 883.918 856.794C883.678 857.141 883.333 857.413 882.925 857.572C882.528 857.733 882.078 857.774 881.65 857.693C881.221 857.611 880.835 857.409 880.521 857.113C880.218 856.817 880.009 856.439 879.925 856.029C879.841 855.619 879.883 855.193 880.051 854.807C880.218 854.42 880.5 854.089 880.855 853.857C881.221 853.624 881.65 853.5 882.089 853.5C882.371 853.5 882.664 853.555 882.925 853.662C883.197 853.768 883.437 853.923 883.647 854.12C883.845 854.317 884.012 854.551 884.117 854.808C884.232 855.064 884.284 855.339 884.284 855.617Z" fill="#F89300"/>
<path opacity="0.29" d="M913.042 855.617C913.042 856.036 912.916 856.445 912.676 856.794C912.435 857.141 912.09 857.413 911.683 857.572C911.285 857.733 910.836 857.774 910.407 857.693C909.979 857.611 909.592 857.409 909.278 857.113C908.975 856.817 908.766 856.439 908.682 856.029C908.599 855.619 908.641 855.193 908.808 854.807C908.975 854.42 909.257 854.089 909.613 853.857C909.979 853.624 910.407 853.5 910.836 853.5C911.421 853.501 911.986 853.724 912.404 854.121C912.812 854.518 913.042 855.056 913.042 855.617Z" fill="#F89300"/>
<path opacity="0.29" d="M941.799 855.617C941.799 856.036 941.673 856.445 941.433 856.794C941.182 857.141 940.837 857.413 940.44 857.572C940.032 857.733 939.593 857.774 939.165 857.693C938.736 857.611 938.349 857.409 938.036 857.113C937.732 856.817 937.523 856.439 937.429 856.029C937.346 855.619 937.388 855.193 937.555 854.807C937.722 854.42 938.004 854.089 938.37 853.857C938.736 853.624 939.165 853.5 939.593 853.5C939.886 853.5 940.168 853.555 940.44 853.662C940.712 853.768 940.952 853.923 941.151 854.12C941.36 854.317 941.527 854.551 941.632 854.808C941.747 855.064 941.799 855.339 941.799 855.617Z" fill="#F89300"/>
</g>
<g opacity="0.29">
<path opacity="0.29" d="M965.184 775.631C966.396 775.631 967.39 774.683 967.39 773.514C967.39 772.345 966.396 771.398 965.184 771.398C963.961 771.398 962.978 772.345 962.978 773.514C962.978 774.683 963.961 775.631 965.184 775.631Z" fill="#F89300"/>
<path opacity="0.29" d="M993.94 775.631C995.153 775.631 996.136 774.683 996.136 773.514C996.136 772.345 995.153 771.398 993.94 771.398C992.717 771.398 991.735 772.345 991.735 773.514C991.735 774.683 992.717 775.631 993.94 775.631Z" fill="#F89300"/>
<path opacity="0.29" d="M1022.69 775.631C1023.91 775.631 1024.89 774.683 1024.89 773.514C1024.89 772.345 1023.91 771.398 1022.69 771.398C1021.47 771.398 1020.49 772.345 1020.49 773.514C1020.49 774.683 1021.47 775.631 1022.69 775.631Z" fill="#F89300"/>
<path opacity="0.29" d="M1051.44 775.631C1052.67 775.631 1053.65 774.683 1053.65 773.514C1053.65 772.345 1052.67 771.398 1051.44 771.398C1050.23 771.398 1049.24 772.345 1049.24 773.514C1049.24 774.683 1050.23 775.631 1051.44 775.631Z" fill="#F89300"/>
<path opacity="0.29" d="M965.183 802.998C966.396 802.998 967.389 802.051 967.389 800.881C967.389 799.712 966.396 798.765 965.183 798.765C963.96 798.765 962.978 799.712 962.978 800.881C962.978 802.051 963.96 802.998 965.183 802.998Z" fill="#F89300"/>
<path opacity="0.29" d="M993.94 802.998C995.153 802.998 996.136 802.051 996.136 800.881C996.136 799.712 995.153 798.765 993.94 798.765C992.717 798.765 991.735 799.712 991.735 800.881C991.735 802.051 992.717 802.998 993.94 802.998Z" fill="#F89300"/>
<path opacity="0.29" d="M1022.69 802.998C1023.91 802.998 1024.89 802.051 1024.89 800.881C1024.89 799.712 1023.91 798.765 1022.69 798.765C1021.47 798.765 1020.49 799.712 1020.49 800.881C1020.49 802.051 1021.47 802.998 1022.69 802.998Z" fill="#F89300"/>
<path opacity="0.29" d="M1051.44 802.998C1052.67 802.998 1053.65 802.051 1053.65 800.881C1053.65 799.712 1052.67 798.765 1051.44 798.765C1050.23 798.765 1049.24 799.712 1049.24 800.881C1049.24 802.051 1050.23 802.998 1051.44 802.998Z" fill="#F89300"/>
<path opacity="0.29" d="M967.389 828.248C967.389 828.667 967.253 829.076 967.012 829.424C966.772 829.773 966.427 830.044 966.019 830.204C965.622 830.364 965.173 830.406 964.754 830.325C964.326 830.242 963.929 830.042 963.626 829.746C963.312 829.45 963.103 829.072 963.019 828.662C962.936 828.251 962.978 827.826 963.145 827.438C963.312 827.052 963.594 826.721 963.96 826.489C964.315 826.256 964.744 826.132 965.183 826.132C965.768 826.132 966.322 826.354 966.741 826.752C967.148 827.149 967.389 827.687 967.389 828.248Z" fill="#F89300"/>
<path opacity="0.29" d="M996.136 828.248C996.136 828.667 996.01 829.076 995.77 829.424C995.529 829.773 995.184 830.044 994.777 830.204C994.38 830.364 993.93 830.406 993.501 830.325C993.083 830.242 992.686 830.042 992.372 829.746C992.069 829.45 991.86 829.072 991.777 828.662C991.693 828.251 991.735 827.826 991.902 827.438C992.069 827.052 992.351 826.721 992.707 826.489C993.073 826.256 993.501 826.132 993.94 826.132C994.526 826.132 995.08 826.354 995.498 826.752C995.906 827.149 996.136 827.687 996.136 828.248Z" fill="#F89300"/>
<path opacity="0.29" d="M1024.89 828.248C1024.89 828.667 1024.77 829.076 1024.53 829.424C1024.29 829.773 1023.94 830.044 1023.53 830.204C1023.14 830.364 1022.69 830.406 1022.26 830.325C1021.83 830.242 1021.44 830.042 1021.13 829.746C1020.83 829.45 1020.62 829.072 1020.53 828.662C1020.45 828.251 1020.49 827.826 1020.66 827.438C1020.83 827.052 1021.11 826.721 1021.46 826.489C1021.83 826.256 1022.26 826.132 1022.69 826.132C1023.27 826.132 1023.84 826.354 1024.26 826.752C1024.66 827.149 1024.89 827.687 1024.89 828.248Z" fill="#F89300"/>
<path opacity="0.29" d="M1053.65 828.248C1053.65 828.667 1053.53 829.076 1053.28 829.424C1053.03 829.773 1052.7 830.044 1052.29 830.204C1051.88 830.364 1051.44 830.406 1051.02 830.325C1050.59 830.242 1050.2 830.042 1049.89 829.746C1049.58 829.45 1049.38 829.072 1049.28 828.662C1049.2 828.251 1049.24 827.826 1049.41 827.438C1049.57 827.052 1049.86 826.721 1050.22 826.489C1050.59 826.256 1051.02 826.132 1051.44 826.132C1051.74 826.132 1052.02 826.187 1052.29 826.293C1052.56 826.4 1052.8 826.555 1053 826.752C1053.21 826.949 1053.38 827.181 1053.48 827.438C1053.6 827.695 1053.65 827.97 1053.65 828.248Z" fill="#F89300"/>
<path opacity="0.29" d="M967.389 855.617C967.389 856.036 967.253 856.445 967.012 856.794C966.772 857.141 966.427 857.413 966.019 857.572C965.622 857.733 965.173 857.774 964.744 857.693C964.326 857.611 963.929 857.409 963.626 857.113C963.312 856.817 963.103 856.439 963.019 856.029C962.936 855.619 962.978 855.193 963.145 854.807C963.312 854.42 963.594 854.089 963.96 853.857C964.315 853.624 964.744 853.5 965.183 853.5C965.465 853.5 965.758 853.555 966.019 853.662C966.291 853.768 966.532 853.923 966.741 854.12C966.939 854.317 967.106 854.551 967.221 854.808C967.326 855.064 967.389 855.339 967.389 855.617Z" fill="#F89300"/>
<path opacity="0.29" d="M996.136 855.617C996.136 856.036 996.01 856.445 995.77 856.794C995.529 857.141 995.184 857.413 994.777 857.572C994.38 857.733 993.93 857.774 993.501 857.693C993.073 857.611 992.686 857.409 992.372 857.113C992.069 856.817 991.86 856.439 991.777 856.029C991.693 855.619 991.735 855.193 991.902 854.807C992.069 854.42 992.351 854.089 992.707 853.857C993.073 853.624 993.501 853.5 993.94 853.5C994.223 853.5 994.515 853.555 994.777 853.662C995.049 853.768 995.289 853.923 995.498 854.12C995.697 854.317 995.864 854.551 995.968 854.808C996.083 855.064 996.136 855.339 996.136 855.617Z" fill="#F89300"/>
<path opacity="0.29" d="M1024.89 855.617C1024.89 856.036 1024.77 856.445 1024.53 856.794C1024.29 857.141 1023.94 857.413 1023.53 857.572C1023.14 857.733 1022.69 857.774 1022.26 857.693C1021.83 857.611 1021.44 857.409 1021.13 857.113C1020.83 856.817 1020.62 856.439 1020.53 856.029C1020.45 855.619 1020.49 855.193 1020.66 854.807C1020.83 854.42 1021.11 854.089 1021.46 853.857C1021.83 853.624 1022.26 853.5 1022.69 853.5C1023.27 853.501 1023.84 853.724 1024.26 854.121C1024.66 854.518 1024.89 855.056 1024.89 855.617Z" fill="#F89300"/>
<path opacity="0.29" d="M1053.65 855.617C1053.65 856.036 1053.53 856.445 1053.28 856.794C1053.03 857.141 1052.69 857.413 1052.29 857.572C1051.88 857.733 1051.44 857.774 1051.02 857.693C1050.59 857.611 1050.2 857.409 1049.89 857.113C1049.58 856.817 1049.38 856.439 1049.28 856.029C1049.2 855.619 1049.24 855.193 1049.41 854.807C1049.57 854.42 1049.86 854.089 1050.22 853.857C1050.59 853.624 1051.02 853.5 1051.44 853.5C1051.74 853.5 1052.02 853.555 1052.29 853.662C1052.56 853.768 1052.8 853.923 1053 854.12C1053.21 854.317 1053.38 854.551 1053.48 854.808C1053.6 855.064 1053.65 855.339 1053.65 855.617Z" fill="#F89300"/>
</g>
<g opacity="0.29">
<path opacity="0.29" d="M1077.04 775.631C1078.25 775.631 1079.24 774.683 1079.24 773.514C1079.24 772.345 1078.25 771.398 1077.04 771.398C1075.81 771.398 1074.83 772.345 1074.83 773.514C1074.83 774.683 1075.81 775.631 1077.04 775.631Z" fill="#F89300"/>
<path opacity="0.29" d="M1105.79 775.631C1107.01 775.631 1107.99 774.683 1107.99 773.514C1107.99 772.345 1107.01 771.398 1105.79 771.398C1104.57 771.398 1103.59 772.345 1103.59 773.514C1103.59 774.683 1104.57 775.631 1105.79 775.631Z" fill="#F89300"/>
<path opacity="0.29" d="M1134.54 775.631C1135.76 775.631 1136.74 774.683 1136.74 773.514C1136.74 772.345 1135.76 771.398 1134.54 771.398C1133.33 771.398 1132.34 772.345 1132.34 773.514C1132.34 774.683 1133.33 775.631 1134.54 775.631Z" fill="#F89300"/>
<path opacity="0.29" d="M1163.3 775.631C1164.52 775.631 1165.5 774.683 1165.5 773.514C1165.5 772.345 1164.52 771.398 1163.3 771.398C1162.08 771.398 1161.09 772.345 1161.09 773.514C1161.09 774.683 1162.08 775.631 1163.3 775.631Z" fill="#F89300"/>
<path opacity="0.29" d="M1077.04 802.998C1078.25 802.998 1079.24 802.051 1079.24 800.881C1079.24 799.712 1078.25 798.765 1077.04 798.765C1075.81 798.765 1074.83 799.712 1074.83 800.881C1074.83 802.051 1075.81 802.998 1077.04 802.998Z" fill="#F89300"/>
<path opacity="0.29" d="M1105.79 802.998C1107.01 802.998 1107.99 802.051 1107.99 800.881C1107.99 799.712 1107.01 798.765 1105.79 798.765C1104.57 798.765 1103.59 799.712 1103.59 800.881C1103.59 802.051 1104.57 802.998 1105.79 802.998Z" fill="#F89300"/>
<path opacity="0.29" d="M1134.54 802.998C1135.76 802.998 1136.74 802.051 1136.74 800.881C1136.74 799.712 1135.76 798.765 1134.54 798.765C1133.33 798.765 1132.34 799.712 1132.34 800.881C1132.34 802.051 1133.33 802.998 1134.54 802.998Z" fill="#F89300"/>
<path opacity="0.29" d="M1163.3 802.998C1164.52 802.998 1165.5 802.051 1165.5 800.881C1165.5 799.712 1164.52 798.765 1163.3 798.765C1162.08 798.765 1161.09 799.712 1161.09 800.881C1161.09 802.051 1162.08 802.998 1163.3 802.998Z" fill="#F89300"/>
<path opacity="0.29" d="M1079.24 828.248C1079.24 828.667 1079.1 829.076 1078.86 829.424C1078.62 829.773 1078.28 830.044 1077.87 830.204C1077.47 830.364 1077.02 830.406 1076.61 830.325C1076.18 830.242 1075.78 830.042 1075.48 829.746C1075.16 829.45 1074.95 829.072 1074.87 828.662C1074.79 828.251 1074.83 827.826 1075 827.438C1075.16 827.052 1075.45 826.721 1075.81 826.489C1076.17 826.256 1076.6 826.132 1077.04 826.132C1077.62 826.132 1078.17 826.354 1078.59 826.752C1079 827.149 1079.24 827.687 1079.24 828.248Z" fill="#F89300"/>
<path opacity="0.29" d="M1107.99 828.248C1107.99 828.667 1107.86 829.076 1107.62 829.424C1107.38 829.773 1107.04 830.044 1106.63 830.204C1106.23 830.364 1105.78 830.406 1105.35 830.325C1104.94 830.242 1104.54 830.042 1104.22 829.746C1103.92 829.45 1103.71 829.072 1103.63 828.662C1103.55 828.251 1103.59 827.826 1103.75 827.438C1103.92 827.052 1104.2 826.721 1104.56 826.489C1104.92 826.256 1105.35 826.132 1105.79 826.132C1106.38 826.132 1106.93 826.354 1107.35 826.752C1107.76 827.149 1107.99 827.687 1107.99 828.248Z" fill="#F89300"/>
<path opacity="0.29" d="M1136.75 828.248C1136.75 828.667 1136.62 829.076 1136.38 829.424C1136.14 829.773 1135.79 830.044 1135.39 830.204C1134.99 830.364 1134.54 830.406 1134.11 830.325C1133.68 830.242 1133.3 830.042 1132.98 829.746C1132.68 829.45 1132.47 829.072 1132.39 828.662C1132.3 828.251 1132.34 827.826 1132.51 827.438C1132.68 827.052 1132.96 826.721 1133.32 826.489C1133.68 826.256 1134.11 826.132 1134.54 826.132C1135.13 826.132 1135.69 826.354 1136.11 826.752C1136.52 827.149 1136.75 827.687 1136.75 828.248Z" fill="#F89300"/>
<path opacity="0.29" d="M1165.5 828.248C1165.5 828.667 1165.38 829.076 1165.14 829.424C1164.89 829.773 1164.55 830.044 1164.14 830.204C1163.74 830.364 1163.3 830.406 1162.87 830.325C1162.44 830.242 1162.05 830.042 1161.74 829.746C1161.44 829.45 1161.23 829.072 1161.13 828.662C1161.05 828.251 1161.09 827.826 1161.26 827.438C1161.43 827.052 1161.71 826.721 1162.07 826.489C1162.44 826.256 1162.87 826.132 1163.3 826.132C1163.59 826.132 1163.87 826.187 1164.14 826.293C1164.42 826.4 1164.66 826.555 1164.85 826.752C1165.06 826.949 1165.23 827.181 1165.34 827.438C1165.45 827.695 1165.5 827.97 1165.5 828.248Z" fill="#F89300"/>
<path opacity="0.29" d="M1079.24 855.617C1079.24 856.036 1079.1 856.445 1078.86 856.794C1078.62 857.141 1078.28 857.413 1077.87 857.572C1077.47 857.733 1077.02 857.774 1076.6 857.693C1076.18 857.611 1075.78 857.409 1075.48 857.113C1075.16 856.817 1074.95 856.439 1074.87 856.029C1074.79 855.619 1074.83 855.193 1075 854.807C1075.16 854.42 1075.45 854.089 1075.81 853.857C1076.17 853.624 1076.6 853.5 1077.04 853.5C1077.32 853.5 1077.61 853.555 1077.87 853.662C1078.14 853.768 1078.38 853.923 1078.59 854.12C1078.79 854.317 1078.96 854.551 1079.07 854.808C1079.18 855.064 1079.24 855.339 1079.24 855.617Z" fill="#F89300"/>
<path opacity="0.29" d="M1107.99 855.617C1107.99 856.036 1107.86 856.445 1107.62 856.794C1107.38 857.141 1107.04 857.413 1106.63 857.572C1106.23 857.733 1105.78 857.774 1105.35 857.693C1104.92 857.611 1104.54 857.409 1104.22 857.113C1103.92 856.817 1103.71 856.439 1103.63 856.029C1103.55 855.619 1103.59 855.193 1103.75 854.807C1103.92 854.42 1104.2 854.089 1104.56 853.857C1104.92 853.624 1105.35 853.5 1105.79 853.5C1106.07 853.5 1106.37 853.555 1106.63 853.662C1106.9 853.768 1107.14 853.923 1107.35 854.12C1107.55 854.317 1107.72 854.551 1107.82 854.808C1107.94 855.064 1107.99 855.339 1107.99 855.617Z" fill="#F89300"/>
<path opacity="0.29" d="M1136.75 855.617C1136.75 856.036 1136.62 856.445 1136.38 856.794C1136.14 857.141 1135.79 857.413 1135.39 857.572C1134.99 857.733 1134.54 857.774 1134.11 857.693C1133.68 857.611 1133.3 857.409 1132.98 857.113C1132.68 856.817 1132.47 856.439 1132.39 856.029C1132.3 855.619 1132.34 855.193 1132.51 854.807C1132.68 854.42 1132.96 854.089 1133.32 853.857C1133.68 853.624 1134.11 853.5 1134.54 853.5C1135.13 853.501 1135.69 853.724 1136.11 854.121C1136.52 854.518 1136.75 855.056 1136.75 855.617Z" fill="#F89300"/>
<path opacity="0.29" d="M1165.5 855.617C1165.5 856.036 1165.38 856.445 1165.14 856.794C1164.89 857.141 1164.54 857.413 1164.14 857.572C1163.74 857.733 1163.3 857.774 1162.87 857.693C1162.44 857.611 1162.05 857.409 1161.74 857.113C1161.44 856.817 1161.23 856.439 1161.13 856.029C1161.05 855.619 1161.09 855.193 1161.26 854.807C1161.43 854.42 1161.71 854.089 1162.07 853.857C1162.44 853.624 1162.87 853.5 1163.3 853.5C1163.59 853.5 1163.87 853.555 1164.14 853.662C1164.42 853.768 1164.66 853.923 1164.85 854.12C1165.06 854.317 1165.23 854.551 1165.34 854.808C1165.45 855.064 1165.5 855.339 1165.5 855.617Z" fill="#F89300"/>
</g>
<path opacity="0.16" fill-rule="evenodd" clip-rule="evenodd" d="M1324.93 518.737C1225.32 474.143 1106.91 515.519 1060.46 611.15C1014.01 706.783 1057.1 820.459 1156.71 865.053C1256.32 909.647 1374.73 868.272 1421.18 772.639C1467.63 677.007 1424.53 563.331 1324.93 518.737ZM1059.51 610.727C1106.2 514.591 1225.23 472.999 1325.37 517.828C1425.5 562.656 1468.82 676.929 1422.12 773.063C1375.43 869.198 1256.41 910.791 1156.27 865.962C1056.14 821.135 1012.82 706.861 1059.51 610.727ZM1319.62 529.666C1226.29 487.887 1115.36 526.651 1071.84 616.247C1028.32 705.843 1068.7 812.343 1162.02 854.123C1255.35 895.902 1366.28 857.139 1409.8 767.543C1453.32 677.947 1412.94 571.446 1319.62 529.666ZM1070.89 615.822C1114.66 525.723 1226.21 486.744 1320.06 528.757C1413.9 570.771 1454.51 677.868 1410.74 767.967C1366.98 858.065 1255.42 897.046 1161.58 855.032C1067.73 813.019 1027.13 705.921 1070.89 615.822ZM1314.31 540.595C1227.27 501.631 1123.81 537.782 1083.22 621.342C1042.64 704.902 1080.3 804.228 1167.33 843.193C1254.37 882.157 1357.82 846.006 1398.42 762.445C1439 678.886 1401.34 579.56 1314.31 540.595ZM1082.28 620.918C1123.11 536.856 1227.19 500.487 1314.75 539.686C1402.3 578.885 1440.19 678.808 1399.36 762.87C1358.53 846.932 1254.45 883.3 1166.89 844.102C1079.33 804.904 1041.45 704.981 1082.28 620.918ZM1309 551.526C1228.24 515.375 1132.26 548.916 1094.61 626.44C1056.95 703.964 1091.89 796.115 1172.64 832.265C1253.38 868.415 1349.38 834.874 1387.03 757.35C1424.68 679.826 1389.75 587.675 1309 551.526ZM1093.67 626.016C1131.56 547.989 1228.17 514.232 1309.44 550.615C1390.71 587 1425.88 679.748 1387.97 757.775C1350.08 835.8 1253.47 869.558 1172.2 833.175C1090.93 796.79 1055.76 704.042 1093.67 626.016ZM1303.69 562.455C1229.23 529.119 1140.72 560.048 1105.99 631.535C1071.28 703.024 1103.48 787.999 1177.95 821.334C1252.41 854.67 1340.92 823.741 1375.65 752.254C1410.36 680.766 1378.15 595.789 1303.69 562.455ZM1105.05 631.112C1140.01 559.121 1229.14 527.975 1304.13 561.545C1379.12 595.115 1411.56 680.687 1376.59 752.677C1341.62 824.667 1252.5 855.814 1177.5 822.245C1102.52 788.674 1070.08 703.102 1105.05 631.112ZM1298.38 573.384C1230.21 542.863 1149.16 571.18 1117.37 636.632C1085.59 702.083 1115.09 779.884 1183.26 810.404C1251.43 840.925 1332.46 812.608 1364.26 747.157C1396.05 681.705 1366.55 603.904 1298.38 573.384ZM1116.43 636.207C1148.46 570.254 1230.13 541.72 1298.83 572.474C1367.52 603.229 1397.24 681.627 1365.2 747.58C1333.18 813.535 1251.51 842.069 1182.81 811.314C1114.12 780.559 1084.39 702.161 1116.43 636.207Z" fill="#3680EE"/>
<line x1="205" y1="189.5" x2="278" y2="189.5" stroke="#0DD7F7" stroke-width="3"/>
</g>
<defs>
<clipPath id="clip0">
<rect width="1512" height="885" fill="white"/>
</clipPath>
</defs>
</svg>
