<svg width="18" height="17" viewBox="0 0 18 17" fill="none" xmlns="http://www.w3.org/2000/svg">
<path d="M13.7479 6.13064C14.5596 6.52593 15.4788 6.64295 16.3636 6.46364V15.5455C16.3636 15.7625 16.2774 15.9706 16.124 16.124C15.9706 16.2774 15.7625 16.3636 15.5455 16.3636H0.818182C0.601187 16.3636 0.393079 16.2774 0.23964 16.124C0.086201 15.9706 0 15.7625 0 15.5455V2.45455C0 2.23755 0.086201 2.02944 0.23964 1.876C0.393079 1.72256 0.601187 1.63636 0.818182 1.63636H11.5364C11.4824 1.90064 11.4545 2.17473 11.4545 2.45455C11.4532 3.42659 11.7994 4.36709 12.4306 5.10627L8.23173 8.74064L2.98391 4.28564L1.92518 5.53255L8.24155 10.8957L13.7479 6.13064ZM15.5455 4.90909C15.2231 4.90909 14.9039 4.8456 14.6061 4.72225C14.3083 4.5989 14.0378 4.4181 13.8098 4.19017C13.5819 3.96225 13.4011 3.69166 13.2778 3.39386C13.1544 3.09606 13.0909 2.77688 13.0909 2.45455C13.0909 2.13221 13.1544 1.81303 13.2778 1.51523C13.4011 1.21743 13.5819 0.946845 13.8098 0.71892C14.0378 0.490994 14.3083 0.310194 14.6061 0.186841C14.9039 0.0634887 15.2231 -4.80317e-09 15.5455 0C16.1964 9.70045e-09 16.8208 0.258603 17.2811 0.71892C17.7414 1.17924 18 1.80356 18 2.45455C18 3.10553 17.7414 3.72985 17.2811 4.19017C16.8208 4.65049 16.1964 4.90909 15.5455 4.90909Z" fill="white"/>
</svg>
