<svg width="1838" height="824" viewBox="0 0 1838 824" fill="none" xmlns="http://www.w3.org/2000/svg">
<path d="M1710.59 764.905H1723.99" stroke="#A2BADD" stroke-width="2" stroke-linecap="round" stroke-linejoin="round"/>
<path d="M1717.29 758.506V771.308" stroke="#A2BADD" stroke-width="2" stroke-linecap="round" stroke-linejoin="round"/>
<path d="M1710.59 737.228H1723.99" stroke="#A2BADD" stroke-width="2" stroke-linecap="round" stroke-linejoin="round"/>
<path d="M1717.29 730.826V743.628" stroke="#A2BADD" stroke-width="2" stroke-linecap="round" stroke-linejoin="round"/>
<path d="M1710.59 709.549H1723.99" stroke="#A2BADD" stroke-width="2" stroke-linecap="round" stroke-linejoin="round"/>
<path d="M1717.29 703.149V715.951" stroke="#A2BADD" stroke-width="2" stroke-linecap="round" stroke-linejoin="round"/>
<path d="M1050.25 121.623V134.425" stroke="#A2BADD" stroke-width="2" stroke-linecap="round" stroke-linejoin="round"/>
<path d="M1056.95 128.023H1043.55" stroke="#A2BADD" stroke-width="2" stroke-linecap="round" stroke-linejoin="round"/>
<path d="M617.676 360.407V373.209" stroke="#EAF1FD" stroke-width="2" stroke-linecap="round" stroke-linejoin="round"/>
<path d="M624.376 366.807H610.978" stroke="#EAF1FD" stroke-width="2" stroke-linecap="round" stroke-linejoin="round"/>
<path d="M519.595 609.874V622.676" stroke="#00BCD4" stroke-width="2" stroke-linecap="round" stroke-linejoin="round"/>
<path d="M526.295 616.275H512.897" stroke="#00BCD4" stroke-width="2" stroke-linecap="round" stroke-linejoin="round"/>
<path d="M926.254 461.729V474.532" stroke="#00BCD4" stroke-width="2" stroke-linecap="round" stroke-linejoin="round"/>
<path d="M932.954 468.129H919.556" stroke="#00BCD4" stroke-width="2" stroke-linecap="round" stroke-linejoin="round"/>
<path d="M1195.89 307.52V320.322" stroke="#00BCD4" stroke-width="2" stroke-linecap="round" stroke-linejoin="round"/>
<path d="M1202.59 313.92H1189.19" stroke="#00BCD4" stroke-width="2" stroke-linecap="round" stroke-linejoin="round"/>
<path d="M1554.4 49.0123V61.8148" stroke="#00BCD4" stroke-width="2" stroke-linecap="round" stroke-linejoin="round"/>
<path d="M1561.1 55.4121H1547.7" stroke="#00BCD4" stroke-width="2" stroke-linecap="round" stroke-linejoin="round"/>
<path d="M401.928 273.567V286.37" stroke="#00BCD4" stroke-width="2" stroke-linecap="round" stroke-linejoin="round"/>
<path d="M408.628 279.967H395.23" stroke="#00BCD4" stroke-width="2" stroke-linecap="round" stroke-linejoin="round"/>
<path d="M610.978 80.9116V93.7132" stroke="#BDD7FE" stroke-width="2" stroke-linecap="round" stroke-linejoin="round"/>
<path d="M617.676 87.3115H604.278" stroke="#BDD7FE" stroke-width="2" stroke-linecap="round" stroke-linejoin="round"/>
<path d="M994.6 806.791V819.593" stroke="#FAFAFA" stroke-opacity="0.28" stroke-width="2" stroke-linecap="round" stroke-linejoin="round"/>
<path d="M1001.3 813.191H987.906" stroke="#FAFAFA" stroke-opacity="0.28" stroke-width="2" stroke-linecap="round" stroke-linejoin="round"/>
<path d="M1023.58 806.791V819.593" stroke="#FAFAFA" stroke-opacity="0.28" stroke-width="2" stroke-linecap="round" stroke-linejoin="round"/>
<path d="M1030.27 813.191H1016.87" stroke="#FAFAFA" stroke-opacity="0.28" stroke-width="2" stroke-linecap="round" stroke-linejoin="round"/>
<path d="M1052.54 806.791V819.593" stroke="#FAFAFA" stroke-opacity="0.28" stroke-width="2" stroke-linecap="round" stroke-linejoin="round"/>
<path d="M1059.24 813.191H1045.84" stroke="#FAFAFA" stroke-opacity="0.28" stroke-width="2" stroke-linecap="round" stroke-linejoin="round"/>
<path d="M213.109 232.298V245.1" stroke="#00BCD4" stroke-width="2" stroke-linecap="round" stroke-linejoin="round"/>
<path d="M219.808 238.698H206.411" stroke="#00BCD4" stroke-width="2" stroke-linecap="round" stroke-linejoin="round"/>
<path d="M86.804 176.534H73.4062" stroke="#EAF1FD" stroke-width="2" stroke-linecap="round" stroke-linejoin="round"/>
<path d="M80.1062 182.936V170.134" stroke="#EAF1FD" stroke-width="2" stroke-linecap="round" stroke-linejoin="round"/>
<path d="M86.804 204.214H73.4062" stroke="#EAF1FD" stroke-width="2" stroke-linecap="round" stroke-linejoin="round"/>
<path d="M80.1062 210.614V197.811" stroke="#EAF1FD" stroke-width="2" stroke-linecap="round" stroke-linejoin="round"/>
<path d="M86.804 231.891H73.4062" stroke="#EAF1FD" stroke-width="2" stroke-linecap="round" stroke-linejoin="round"/>
<path d="M80.1062 238.293V225.491" stroke="#EAF1FD" stroke-width="2" stroke-linecap="round" stroke-linejoin="round"/>
<path d="M388.918 460.096C388.918 460.526 388.786 460.945 388.536 461.302C388.286 461.659 387.931 461.938 387.516 462.102C387.101 462.266 386.644 462.309 386.203 462.225C385.762 462.141 385.357 461.934 385.039 461.631C384.723 461.327 384.506 460.94 384.418 460.519C384.331 460.098 384.376 459.661 384.548 459.264C384.721 458.868 385.011 458.529 385.385 458.291C385.759 458.052 386.198 457.925 386.648 457.925C386.946 457.925 387.241 457.982 387.516 458.091C387.793 458.199 388.043 458.359 388.254 458.561C388.465 458.763 388.632 459.002 388.746 459.265C388.86 459.529 388.918 459.811 388.918 460.096Z" fill="#A2BADD"/>
<path d="M404.341 460.096C404.341 460.526 404.207 460.945 403.958 461.302C403.708 461.659 403.354 461.938 402.938 462.102C402.523 462.266 402.066 462.309 401.625 462.225C401.185 462.141 400.78 461.934 400.462 461.631C400.144 461.327 399.928 460.94 399.841 460.519C399.753 460.098 399.798 459.661 399.971 459.264C400.142 458.868 400.434 458.529 400.808 458.291C401.182 458.052 401.621 457.925 402.07 457.925C402.368 457.925 402.664 457.982 402.939 458.091C403.215 458.199 403.465 458.359 403.676 458.561C403.887 458.763 404.054 459.002 404.168 459.265C404.283 459.529 404.341 459.811 404.341 460.096Z" fill="#A2BADD"/>
<path d="M419.769 460.096C419.769 460.526 419.636 460.945 419.387 461.302C419.137 461.659 418.782 461.938 418.367 462.102C417.952 462.266 417.495 462.309 417.054 462.226C416.613 462.141 416.209 461.935 415.891 461.632C415.574 461.327 415.357 460.941 415.269 460.519C415.181 460.098 415.227 459.662 415.398 459.265C415.571 458.868 415.861 458.53 416.235 458.291C416.609 458.053 417.048 457.925 417.498 457.925C417.796 457.925 418.091 457.981 418.367 458.09C418.643 458.199 418.894 458.359 419.104 458.561C419.315 458.763 419.483 459.002 419.597 459.265C419.71 459.529 419.769 459.811 419.769 460.096Z" fill="#A2BADD"/>
<path d="M388.918 474.832C388.918 475.261 388.786 475.68 388.536 476.038C388.287 476.395 387.932 476.673 387.516 476.838C387.101 477.003 386.645 477.045 386.204 476.962C385.763 476.878 385.358 476.672 385.04 476.368C384.723 476.064 384.506 475.677 384.418 475.256C384.331 474.835 384.376 474.398 384.548 474.002C384.72 473.605 385.011 473.266 385.385 473.027C385.759 472.789 386.198 472.662 386.648 472.662C387.25 472.662 387.827 472.89 388.254 473.298C388.679 473.704 388.918 474.256 388.918 474.832Z" fill="#A2BADD"/>
<path d="M404.341 474.832C404.341 475.261 404.208 475.68 403.958 476.038C403.709 476.395 403.354 476.673 402.939 476.838C402.523 477.003 402.067 477.045 401.626 476.962C401.186 476.878 400.781 476.672 400.463 476.368C400.145 476.064 399.928 475.677 399.841 475.256C399.753 474.835 399.798 474.398 399.971 474.002C400.142 473.605 400.434 473.266 400.808 473.027C401.182 472.789 401.621 472.662 402.07 472.662C402.673 472.662 403.25 472.89 403.676 473.298C404.102 473.704 404.341 474.256 404.341 474.832Z" fill="#A2BADD"/>
<path d="M419.769 474.832C419.769 475.261 419.637 475.68 419.387 476.038C419.138 476.395 418.782 476.673 418.368 476.838C417.953 477.003 417.496 477.045 417.055 476.962C416.614 476.878 416.209 476.672 415.891 476.368C415.574 476.064 415.357 475.678 415.269 475.257C415.181 474.836 415.227 474.399 415.398 474.002C415.571 473.606 415.861 473.266 416.235 473.027C416.608 472.79 417.048 472.662 417.498 472.662C417.796 472.662 418.091 472.717 418.367 472.827C418.643 472.936 418.893 473.096 419.104 473.297C419.315 473.498 419.482 473.738 419.596 474.001C419.71 474.265 419.769 474.547 419.769 474.832Z" fill="#A2BADD"/>
<path d="M388.918 489.568C388.918 489.998 388.786 490.418 388.536 490.774C388.287 491.131 387.932 491.41 387.516 491.575C387.101 491.739 386.645 491.782 386.204 491.699C385.763 491.615 385.358 491.408 385.04 491.105C384.723 490.801 384.506 490.413 384.418 489.992C384.331 489.571 384.376 489.134 384.548 488.738C384.72 488.341 385.011 488.003 385.385 487.764C385.759 487.525 386.198 487.398 386.648 487.398C387.25 487.398 387.827 487.627 388.254 488.034C388.679 488.441 388.918 488.993 388.918 489.568Z" fill="#A2BADD"/>
<path d="M404.341 489.568C404.341 489.998 404.208 490.418 403.958 490.774C403.709 491.131 403.354 491.41 402.939 491.575C402.523 491.739 402.067 491.782 401.626 491.699C401.186 491.615 400.781 491.408 400.463 491.105C400.145 490.801 399.928 490.413 399.841 489.992C399.753 489.571 399.798 489.134 399.971 488.738C400.142 488.341 400.434 488.003 400.808 487.764C401.182 487.525 401.621 487.398 402.07 487.398C402.673 487.398 403.25 487.627 403.676 488.034C404.102 488.441 404.341 488.993 404.341 489.568Z" fill="#A2BADD"/>
<path d="M419.769 489.568C419.769 489.998 419.637 490.417 419.387 490.774C419.138 491.131 418.782 491.41 418.368 491.575C417.953 491.739 417.496 491.782 417.055 491.699C416.614 491.615 416.209 491.408 415.891 491.105C415.574 490.801 415.357 490.414 415.269 489.993C415.181 489.572 415.227 489.135 415.398 488.738C415.571 488.342 415.861 488.003 416.235 487.765C416.608 487.526 417.048 487.398 417.498 487.398C417.796 487.398 418.091 487.455 418.367 487.563C418.643 487.672 418.893 487.832 419.104 488.033C419.315 488.235 419.482 488.475 419.596 488.737C419.71 489.001 419.769 489.283 419.769 489.568Z" fill="#A2BADD"/>
<path d="M84.6922 2.94427C84.6919 3.36985 84.5597 3.7858 84.3122 4.13958C84.0645 4.49325 83.7128 4.76902 83.3013 4.9317C82.8897 5.09447 82.4369 5.13704 82.0001 5.05394C81.5633 4.97084 81.1622 4.76596 80.8472 4.46503C80.5323 4.1641 80.3178 3.78072 80.2308 3.36328C80.1439 2.94594 80.1884 2.51332 80.3588 2.12004C80.5291 1.72685 80.8176 1.39075 81.1878 1.15413C81.558 0.917606 81.9934 0.791201 82.4387 0.791016C82.7346 0.790831 83.0278 0.846446 83.3013 0.954622C83.5747 1.0628 83.8232 1.22141 84.0325 1.42138C84.2417 1.62135 84.4078 1.8588 84.5209 2.12004C84.6342 2.38136 84.6923 2.66148 84.6922 2.94427Z" fill="#A2BADD"/>
<path d="M97.7363 5.09751C98.9812 5.09751 99.9906 4.13346 99.9906 2.94426C99.9906 1.75507 98.9812 0.791016 97.7363 0.791016C96.4925 0.791016 95.483 1.75507 95.483 2.94426C95.483 4.13346 96.4925 5.09751 97.7363 5.09751Z" fill="#A2BADD"/>
<path d="M115.286 2.94426C115.286 3.37012 115.154 3.78644 114.907 4.14049C114.659 4.49463 114.307 4.77058 113.895 4.93354C113.483 5.09659 113.03 5.13915 112.593 5.05615C112.156 4.97305 111.754 4.76799 111.439 4.46678C111.124 4.16566 110.909 3.782 110.822 3.36429C110.735 2.94667 110.781 2.51369 110.951 2.12022C111.122 1.72675 111.41 1.39047 111.78 1.15395C112.151 0.917329 112.587 0.791016 113.033 0.791016C113.631 0.791016 114.203 1.01792 114.626 1.42166C115.049 1.82549 115.286 2.37322 115.286 2.94426Z" fill="#A2BADD"/>
<path d="M130.587 2.94426C130.587 3.37012 130.454 3.78644 130.207 4.14049C129.959 4.49463 129.607 4.77058 129.196 4.93354C128.784 5.09659 128.33 5.13915 127.894 5.05615C127.457 4.97305 127.055 4.76799 126.74 4.46678C126.424 4.16566 126.21 3.782 126.123 3.36429C126.035 2.94667 126.08 2.51369 126.252 2.12022C126.422 1.72675 126.711 1.39047 127.081 1.15395C127.452 0.917329 127.888 0.791016 128.333 0.791016C128.629 0.791016 128.922 0.846724 129.196 0.9549C129.469 1.06317 129.717 1.22178 129.926 1.42166C130.135 1.62163 130.302 1.85899 130.415 2.12022C130.529 2.38145 130.587 2.66147 130.587 2.94426Z" fill="#A2BADD"/>
<path d="M143.631 5.09751C144.876 5.09751 145.884 4.13346 145.884 2.94426C145.884 1.75507 144.876 0.791016 143.631 0.791016C142.387 0.791016 141.378 1.75507 141.378 2.94426C141.378 4.13346 142.387 5.09751 143.631 5.09751Z" fill="#A2BADD"/>
<path d="M161.182 2.94426C161.182 3.37012 161.049 3.78644 160.802 4.14049C160.554 4.49463 160.202 4.77058 159.791 4.93354C159.379 5.09659 158.926 5.13915 158.489 5.05615C158.051 4.97305 157.65 4.76799 157.335 4.46678C157.019 4.16566 156.805 3.782 156.718 3.36429C156.631 2.94667 156.675 2.51369 156.846 2.12022C157.016 1.72675 157.306 1.39047 157.676 1.15395C158.047 0.91733 158.482 0.791016 158.928 0.791016C159.224 0.790831 159.517 0.846446 159.791 0.954622C160.064 1.0628 160.313 1.2214 160.522 1.42138C160.731 1.62135 160.897 1.8588 161.01 2.12003C161.124 2.38136 161.182 2.66147 161.182 2.94426Z" fill="#A2BADD"/>
<path d="M176.478 2.94426C176.478 3.37012 176.346 3.78644 176.098 4.14049C175.851 4.49463 175.499 4.77058 175.087 4.93354C174.675 5.09659 174.222 5.13915 173.785 5.05615C173.348 4.97305 172.947 4.76799 172.631 4.46678C172.316 4.16566 172.101 3.782 172.015 3.36429C171.928 2.94667 171.973 2.51369 172.143 2.12022C172.314 1.72675 172.602 1.39047 172.973 1.15395C173.343 0.91733 173.779 0.791016 174.225 0.791016C174.521 0.790831 174.814 0.846446 175.087 0.954622C175.361 1.0628 175.609 1.2214 175.819 1.42138C176.028 1.62135 176.194 1.8588 176.307 2.12003C176.42 2.38136 176.478 2.66147 176.478 2.94426Z" fill="#A2BADD"/>
<path d="M84.6922 17.5619C84.6919 17.9875 84.5597 18.4035 84.3122 18.7573C84.0645 19.111 83.7128 19.3867 83.3013 19.5495C82.8897 19.7122 82.4369 19.7547 82.0001 19.6716C81.5633 19.5886 81.1622 19.3836 80.8472 19.0827C80.5323 18.7818 80.3178 18.3984 80.2308 17.9811C80.1439 17.5636 80.1884 17.131 80.3588 16.7378C80.5291 16.3446 80.8176 16.0084 81.1878 15.7719C81.558 15.5353 81.9934 15.409 82.4387 15.4087C83.0364 15.4087 83.6095 15.6356 84.0322 16.0394C84.4548 16.4432 84.6922 16.9909 84.6922 17.5619Z" fill="#A2BADD"/>
<path d="M99.9906 17.5619C99.9906 17.9878 99.8579 18.4041 99.6109 18.7583C99.3629 19.1123 99.0112 19.3884 98.5995 19.5513C98.1878 19.7143 97.7344 19.7569 97.2975 19.6738C96.8596 19.5907 96.4586 19.3857 96.1437 19.0846C95.8279 18.7834 95.6138 18.3997 95.5266 17.9821C95.4395 17.5643 95.484 17.1314 95.6545 16.738C95.825 16.3445 96.1147 16.0082 96.4847 15.7716C96.8558 15.535 97.2907 15.4087 97.7364 15.4087C98.3341 15.409 98.9076 15.636 99.33 16.0397C99.7523 16.4434 99.9897 16.991 99.9906 17.5619Z" fill="#A2BADD"/>
<path d="M115.286 17.5619C115.286 17.9878 115.154 18.4041 114.907 18.7583C114.659 19.1123 114.307 19.3884 113.895 19.5513C113.483 19.7143 113.03 19.7569 112.593 19.6738C112.156 19.5907 111.754 19.3857 111.439 19.0846C111.124 18.7834 110.909 18.3997 110.822 17.9821C110.735 17.5643 110.781 17.1314 110.951 16.738C111.122 16.3445 111.41 16.0082 111.78 15.7716C112.151 15.535 112.587 15.4087 113.033 15.4087C113.63 15.409 114.203 15.636 114.626 16.0397C115.048 16.4434 115.285 16.991 115.286 17.5619Z" fill="#A2BADD"/>
<path d="M130.587 17.5619C130.587 17.9878 130.454 18.4041 130.207 18.7583C129.959 19.1123 129.607 19.3884 129.196 19.5513C128.784 19.7143 128.33 19.7569 127.894 19.6738C127.457 19.5907 127.055 19.3857 126.74 19.0846C126.424 18.7834 126.21 18.3997 126.123 17.9821C126.035 17.5643 126.08 17.1314 126.252 16.738C126.422 16.3445 126.711 16.0082 127.081 15.7716C127.452 15.535 127.888 15.4087 128.333 15.4087C128.93 15.409 129.504 15.636 129.926 16.0397C130.348 16.4434 130.586 16.991 130.587 17.5619Z" fill="#A2BADD"/>
<path d="M145.883 17.5619C145.883 17.9879 145.752 18.4042 145.504 18.7584C145.256 19.1125 144.904 19.3884 144.492 19.5514C144.08 19.7144 143.627 19.7569 143.19 19.6737C142.752 19.5906 142.351 19.3854 142.036 19.0842C141.721 18.7829 141.506 18.3991 141.419 17.9814C141.333 17.5636 141.378 17.1306 141.548 16.7373C141.719 16.3438 142.008 16.0076 142.378 15.7711C142.749 15.5346 143.185 15.4085 143.631 15.4087C144.229 15.409 144.801 15.636 145.224 16.0398C145.646 16.4435 145.883 16.9911 145.883 17.5619Z" fill="#A2BADD"/>
<path d="M161.182 17.5619C161.182 17.9878 161.049 18.4041 160.802 18.7583C160.554 19.1123 160.202 19.3884 159.791 19.5513C159.379 19.7143 158.926 19.7569 158.489 19.6738C158.051 19.5907 157.65 19.3857 157.335 19.0846C157.019 18.7834 156.805 18.3997 156.718 17.9821C156.631 17.5643 156.675 17.1314 156.846 16.738C157.016 16.3445 157.306 16.0082 157.676 15.7716C158.047 15.535 158.482 15.4087 158.928 15.4087C159.525 15.4087 160.099 15.6356 160.521 16.0394C160.944 16.4432 161.182 16.9909 161.182 17.5619Z" fill="#A2BADD"/>
<path d="M176.478 17.5619C176.478 17.9878 176.346 18.4041 176.098 18.7583C175.851 19.1123 175.499 19.3884 175.087 19.5513C174.675 19.7143 174.222 19.7569 173.785 19.6738C173.348 19.5907 172.947 19.3857 172.631 19.0846C172.316 18.7834 172.101 18.3997 172.015 17.9821C171.928 17.5643 171.973 17.1314 172.143 16.738C172.314 16.3445 172.602 16.0082 172.973 15.7716C173.343 15.535 173.779 15.4087 174.225 15.4087C174.823 15.4087 175.396 15.6356 175.819 16.0394C176.241 16.4432 176.478 16.9909 176.478 17.5619Z" fill="#A2BADD"/>
<path d="M84.6922 32.1797C84.691 32.6051 84.558 33.0207 84.3099 33.3738C84.0618 33.727 83.7097 34.0021 83.2982 34.1642C82.8865 34.3263 82.4339 34.3682 81.9974 34.2847C81.5609 34.2011 81.1601 33.9958 80.8456 33.6946C80.5311 33.3936 80.3171 33.0102 80.2305 32.593C80.1439 32.1757 80.1887 31.7433 80.3592 31.3503C80.5297 30.9573 80.8182 30.6215 81.1882 30.3851C81.5584 30.1487 81.9935 30.0225 82.4387 30.0222C82.735 30.0222 83.0284 30.0781 83.3021 30.1866C83.5758 30.295 83.8244 30.454 84.0337 30.6544C84.2431 30.8549 84.4089 31.0927 84.5219 31.3545C84.6349 31.6162 84.6928 31.8966 84.6922 32.1797Z" fill="#A2BADD"/>
<path d="M99.9906 32.1797C99.9896 32.6055 99.8559 33.0214 99.6079 33.3749C99.3599 33.7284 99.0083 34.0037 98.5956 34.166C98.1839 34.3284 97.7315 34.3704 97.2946 34.2868C96.8577 34.2032 96.4566 33.9978 96.1418 33.6965C95.8269 33.3952 95.6129 33.0115 95.5266 32.594C95.4394 32.1764 95.485 31.7437 95.6555 31.3505C95.826 30.9573 96.1147 30.6212 96.4857 30.3849C96.8557 30.1484 97.2917 30.0222 97.7363 30.0222C98.0328 30.0224 98.3263 30.0783 98.6005 30.1868C98.8736 30.2954 99.1226 30.4544 99.3319 30.6547C99.5411 30.8551 99.7068 31.093 99.8201 31.3546C99.9325 31.6163 99.9906 31.8967 99.9906 32.1797Z" fill="#A2BADD"/>
<path d="M115.286 32.1797C115.285 32.6056 115.153 33.0215 114.904 33.3751C114.656 33.7287 114.303 34.004 113.891 34.1662C113.48 34.3285 113.026 34.3704 112.589 34.2866C112.152 34.203 111.751 33.9972 111.436 33.6958C111.123 33.3943 110.908 33.0103 110.822 32.5926C110.735 32.1749 110.781 31.7421 110.952 31.349C111.123 30.9558 111.412 30.6199 111.782 30.3838C112.153 30.1476 112.589 30.0218 113.035 30.0222C113.331 30.0227 113.624 30.0788 113.897 30.1875C114.17 30.2961 114.419 30.4551 114.628 30.6555C114.837 30.8559 115.002 31.0935 115.116 31.3551C115.228 31.6166 115.286 31.8968 115.286 32.1797Z" fill="#A2BADD"/>
<path d="M130.587 32.1797C130.586 32.6055 130.453 33.0214 130.204 33.3749C129.956 33.7284 129.604 34.0037 129.193 34.166C128.78 34.3284 128.328 34.3704 127.891 34.2868C127.454 34.2032 127.053 33.9978 126.738 33.6965C126.423 33.3952 126.209 33.0115 126.123 32.594C126.036 32.1764 126.081 31.7437 126.252 31.3505C126.422 30.9573 126.711 30.6212 127.082 30.3849C127.452 30.1484 127.888 30.0222 128.333 30.0222C128.629 30.0224 128.922 30.0783 129.197 30.1868C129.47 30.2954 129.719 30.4544 129.928 30.6547C130.137 30.8551 130.303 31.093 130.416 31.3546C130.529 31.6163 130.587 31.8967 130.587 32.1797Z" fill="#A2BADD"/>
<path d="M145.883 32.1797C145.882 32.6055 145.75 33.0214 145.502 33.3749C145.253 33.7285 144.901 34.0038 144.489 34.1661C144.077 34.3284 143.624 34.3704 143.187 34.2867C142.75 34.203 142.349 33.9975 142.034 33.6961C141.72 33.3947 141.505 33.011 141.419 32.5933C141.333 32.1756 141.378 31.7429 141.549 31.3498C141.72 30.9566 142.008 30.6206 142.379 30.3843C142.749 30.1481 143.185 30.022 143.631 30.0222C143.927 30.0224 144.221 30.0783 144.494 30.1868C144.767 30.2954 145.016 30.4545 145.225 30.6548C145.435 30.8551 145.6 31.0931 145.713 31.3547C145.826 31.6164 145.884 31.8967 145.883 32.1797Z" fill="#A2BADD"/>
<path d="M161.182 32.1798C161.182 32.6057 161.049 33.022 160.802 33.3761C160.554 33.7302 160.202 34.0062 159.791 34.1692C159.379 34.3321 158.926 34.3748 158.489 34.2917C158.051 34.2086 157.65 34.0035 157.335 33.7024C157.019 33.4013 156.805 33.0176 156.718 32.5999C156.631 32.1822 156.675 31.7493 156.846 31.3558C157.016 30.9624 157.306 30.6261 157.676 30.3894C158.047 30.1528 158.482 30.0266 158.928 30.0266C159.525 30.0266 160.099 30.2534 160.521 30.6573C160.944 31.0611 161.182 31.6087 161.182 32.1798Z" fill="#A2BADD"/>
<path d="M176.478 32.1798C176.478 32.6057 176.346 33.022 176.098 33.3761C175.851 33.7302 175.499 34.0062 175.087 34.1692C174.675 34.3321 174.222 34.3748 173.785 34.2917C173.348 34.2086 172.947 34.0035 172.631 33.7024C172.316 33.4013 172.101 33.0176 172.015 32.5999C171.928 32.1822 171.973 31.7493 172.143 31.3558C172.314 30.9624 172.602 30.6261 172.973 30.3894C173.343 30.1528 173.779 30.0266 174.225 30.0266C174.823 30.0266 175.396 30.2534 175.819 30.6573C176.241 31.0611 176.478 31.6087 176.478 32.1798Z" fill="#A2BADD"/>
<path d="M84.6922 46.7975C84.6919 47.2231 84.5597 47.6391 84.3122 47.9924C84.0645 48.3468 83.7128 48.6225 83.3013 48.7854C82.8897 48.9473 82.4369 48.9899 82.0001 48.9075C81.5633 48.8243 81.1622 48.6188 80.8472 48.3181C80.5323 48.0173 80.3178 47.634 80.2308 47.2165C80.1439 46.7992 80.1884 46.3666 80.3588 45.9733C80.5291 45.5801 80.8176 45.244 81.1878 45.0074C81.558 44.7709 81.9934 44.6445 82.4387 44.6443C82.7346 44.6441 83.0278 44.6997 83.3013 44.8079C83.5747 44.9161 83.8232 45.0747 84.0325 45.2746C84.2417 45.4746 84.4078 45.7121 84.5209 45.9733C84.6342 46.2346 84.6923 46.5147 84.6922 46.7975Z" fill="#A2BADD"/>
<path d="M99.9906 46.7975C99.9906 47.2234 99.8579 47.6397 99.6109 47.9942C99.3629 48.3477 99.0112 48.6235 98.5995 48.7873C98.1878 48.9501 97.7344 48.9927 97.2975 48.9094C96.8596 48.8262 96.4586 48.6216 96.1437 48.32C95.8279 48.0192 95.6138 47.6353 95.5266 47.2176C95.4395 46.7999 95.484 46.367 95.6545 45.9735C95.825 45.58 96.1147 45.2437 96.4847 45.0071C96.8558 44.7706 97.2907 44.6443 97.7364 44.6443C98.3341 44.6443 98.9076 44.8711 99.33 45.2749C99.7533 45.6788 99.9906 46.2265 99.9906 46.7975Z" fill="#A2BADD"/>
<path d="M115.286 46.7975C115.286 47.2234 115.154 47.6397 114.907 47.9942C114.659 48.3477 114.307 48.6235 113.895 48.7873C113.483 48.9501 113.03 48.9927 112.593 48.9094C112.156 48.8262 111.754 48.6216 111.439 48.32C111.124 48.0192 110.909 47.6353 110.822 47.2176C110.735 46.7999 110.781 46.367 110.951 45.9735C111.122 45.58 111.41 45.2437 111.78 45.0071C112.151 44.7706 112.587 44.6443 113.033 44.6443C113.631 44.6443 114.203 44.8711 114.626 45.2749C115.049 45.6788 115.286 46.2265 115.286 46.7975Z" fill="#A2BADD"/>
<path d="M130.587 46.7975C130.587 47.2234 130.454 47.6397 130.207 47.9942C129.959 48.3477 129.607 48.6235 129.196 48.7873C128.784 48.9501 128.33 48.9927 127.894 48.9094C127.457 48.8262 127.055 48.6216 126.74 48.32C126.424 48.0192 126.21 47.6353 126.123 47.2176C126.035 46.7999 126.08 46.367 126.252 45.9735C126.422 45.58 126.711 45.2437 127.081 45.0071C127.452 44.7706 127.888 44.6443 128.333 44.6443C128.629 44.6443 128.922 44.7 129.196 44.8082C129.469 44.9164 129.717 45.0751 129.926 45.2749C130.135 45.4749 130.302 45.7123 130.415 45.9735C130.529 46.2347 130.587 46.5147 130.587 46.7975Z" fill="#A2BADD"/>
<path d="M145.883 46.7975C145.883 47.2234 145.752 47.6398 145.504 47.9942C145.256 48.3477 144.904 48.6244 144.492 48.7873C144.08 48.9501 143.627 48.9927 143.19 48.9094C142.752 48.8262 142.351 48.6207 142.036 48.32C141.721 48.0183 141.506 47.6347 141.419 47.2169C141.333 46.7992 141.378 46.3662 141.548 45.9728C141.719 45.5793 142.008 45.2431 142.378 45.0067C142.749 44.7701 143.185 44.6441 143.631 44.6443C143.926 44.6443 144.22 44.7 144.493 44.8082C144.766 44.9164 145.015 45.0751 145.224 45.275C145.433 45.475 145.599 45.7124 145.712 45.9736C145.825 46.2348 145.883 46.5148 145.883 46.7975Z" fill="#A2BADD"/>
<path d="M161.182 46.7975C161.182 47.2234 161.049 47.6397 160.802 47.9942C160.554 48.3477 160.202 48.6235 159.791 48.7873C159.379 48.9501 158.926 48.9927 158.489 48.9094C158.051 48.8262 157.65 48.6216 157.335 48.32C157.019 48.0192 156.805 47.6353 156.718 47.2176C156.631 46.7999 156.675 46.367 156.846 45.9735C157.016 45.58 157.306 45.2437 157.676 45.0071C158.047 44.7706 158.482 44.6443 158.928 44.6443C159.224 44.6441 159.517 44.6997 159.791 44.8079C160.064 44.9161 160.313 45.0747 160.522 45.2747C160.731 45.4746 160.897 45.7121 161.01 45.9733C161.124 46.2346 161.182 46.5147 161.182 46.7975Z" fill="#A2BADD"/>
<path d="M176.478 46.7975C176.478 47.2234 176.346 47.6397 176.098 47.9942C175.851 48.3477 175.499 48.6235 175.087 48.7873C174.675 48.9501 174.222 48.9927 173.785 48.9094C173.348 48.8262 172.947 48.6216 172.631 48.32C172.316 48.0192 172.101 47.6353 172.015 47.2176C171.928 46.7999 171.973 46.367 172.143 45.9735C172.314 45.58 172.602 45.2437 172.973 45.0071C173.343 44.7706 173.779 44.6443 174.225 44.6443C174.521 44.6441 174.814 44.6997 175.087 44.8079C175.361 44.9161 175.609 45.0747 175.819 45.2747C176.028 45.4746 176.194 45.7121 176.307 45.9733C176.42 46.2346 176.478 46.5147 176.478 46.7975Z" fill="#A2BADD"/>
<path d="M84.6922 61.4141C84.6922 61.8398 84.56 62.2562 84.3126 62.6097C84.0652 62.9641 83.7135 63.2399 83.302 63.4027C82.8905 63.5656 82.4377 63.6082 82.0008 63.5249C81.564 63.4425 81.1626 63.2371 80.8476 62.9363C80.5326 62.6356 80.318 62.2525 80.2309 61.8351C80.1439 61.4178 80.1884 60.9847 80.3586 60.5914C80.5289 60.1981 80.8175 59.8622 81.1876 59.6253C81.5579 59.3884 81.9932 59.2626 82.4387 59.2626C82.7345 59.2617 83.0276 59.3172 83.301 59.4255C83.5743 59.5337 83.8228 59.692 84.0321 59.8918C84.2413 60.0917 84.4074 60.3295 84.5206 60.5905C84.6339 60.8515 84.6922 61.1319 84.6922 61.4141Z" fill="#A2BADD"/>
<path d="M97.7363 63.5684C98.9812 63.5684 99.9906 62.605 99.9906 61.415C99.9906 60.2259 98.9812 59.2626 97.7363 59.2626C96.4925 59.2626 95.483 60.2259 95.483 61.415C95.483 62.605 96.4925 63.5684 97.7363 63.5684Z" fill="#A2BADD"/>
<path d="M115.286 61.4141C115.286 61.8407 115.154 62.2571 114.906 62.6106C114.659 62.965 114.308 63.2417 113.896 63.4046C113.484 63.5674 113.031 63.61 112.594 63.5276C112.156 63.4443 111.755 63.2398 111.439 62.9382C111.124 62.6374 110.909 62.2534 110.822 61.836C110.735 61.4178 110.78 60.9847 110.95 60.5914C111.121 60.1981 111.41 59.8613 111.78 59.6253C112.151 59.3884 112.587 59.2626 113.033 59.2626C113.63 59.2626 114.203 59.4893 114.626 59.8928C115.048 60.2962 115.285 60.8431 115.286 61.4141Z" fill="#A2BADD"/>
<path d="M130.587 61.4141C130.587 61.8407 130.455 62.2571 130.207 62.6106C129.96 62.965 129.608 63.2417 129.197 63.4046C128.785 63.5674 128.331 63.61 127.894 63.5276C127.457 63.4443 127.056 63.2398 126.74 62.9382C126.425 62.6374 126.21 62.2534 126.123 61.836C126.036 61.4178 126.08 60.9847 126.251 60.5914C126.421 60.1981 126.711 59.8613 127.081 59.6253C127.452 59.3884 127.887 59.2626 128.333 59.2626C128.93 59.2626 129.504 59.4893 129.926 59.8928C130.348 60.2962 130.586 60.8431 130.587 61.4141Z" fill="#A2BADD"/>
<path d="M143.631 63.5684C144.876 63.5684 145.884 62.605 145.884 61.415C145.884 60.2259 144.876 59.2626 143.631 59.2626C142.387 59.2626 141.378 60.2259 141.378 61.415C141.378 62.605 142.387 63.5684 143.631 63.5684Z" fill="#A2BADD"/>
<path d="M161.182 61.4141C161.182 61.8407 161.05 62.2571 160.802 62.6106C160.555 62.965 160.203 63.2417 159.792 63.4046C159.38 63.5674 158.927 63.61 158.49 63.5277C158.052 63.4444 157.651 63.2399 157.335 62.9382C157.02 62.6374 156.805 62.2534 156.718 61.8361C156.631 61.4178 156.675 60.9847 156.846 60.5914C157.016 60.1981 157.306 59.8613 157.676 59.6253C158.047 59.3884 158.482 59.2626 158.928 59.2626C159.224 59.2617 159.517 59.3172 159.791 59.4255C160.064 59.5337 160.312 59.692 160.521 59.8918C160.73 60.0917 160.897 60.3296 161.01 60.5905C161.124 60.8515 161.182 61.1319 161.182 61.4141Z" fill="#A2BADD"/>
<path d="M176.478 61.4141C176.478 61.8407 176.346 62.2571 176.099 62.6106C175.851 62.965 175.5 63.2417 175.088 63.4046C174.676 63.5674 174.223 63.61 173.786 63.5277C173.349 63.4444 172.947 63.2399 172.632 62.9382C172.316 62.6374 172.102 62.2534 172.015 61.8361C171.928 61.4178 171.973 60.9847 172.143 60.5914C172.314 60.1981 172.602 59.8613 172.973 59.6253C173.343 59.3884 173.779 59.2626 174.225 59.2626C174.52 59.2617 174.814 59.3172 175.087 59.4255C175.36 59.5337 175.609 59.692 175.819 59.8918C176.028 60.0917 176.193 60.3296 176.307 60.5905C176.42 60.8515 176.478 61.1319 176.478 61.4141Z" fill="#A2BADD"/>
<path d="M1300 247.942C1300 248.323 1299.88 248.696 1299.66 249.012C1299.44 249.329 1299.13 249.576 1298.76 249.722C1298.39 249.867 1297.98 249.906 1297.6 249.831C1297.2 249.757 1296.84 249.574 1296.56 249.304C1296.28 249.034 1296.08 248.691 1296.01 248.317C1295.93 247.943 1295.97 247.557 1296.12 247.204C1296.28 246.852 1296.53 246.552 1296.87 246.34C1297.2 246.128 1297.59 246.015 1297.98 246.015C1298.52 246.015 1299.03 246.218 1299.41 246.579C1299.79 246.94 1300 247.431 1300 247.942Z" fill="#A2BADD"/>
<path d="M1311.67 249.868C1312.79 249.868 1313.69 249.006 1313.69 247.942C1313.69 246.877 1312.79 246.015 1311.67 246.015C1310.56 246.015 1309.66 246.877 1309.66 247.942C1309.66 249.006 1310.56 249.868 1311.67 249.868Z" fill="#A2BADD"/>
<path d="M1327.38 247.942C1327.38 248.323 1327.26 248.696 1327.04 249.012C1326.81 249.33 1326.5 249.576 1326.14 249.722C1325.77 249.868 1325.36 249.906 1324.97 249.831C1324.58 249.757 1324.22 249.573 1323.94 249.304C1323.66 249.034 1323.46 248.691 1323.38 248.317C1323.31 247.943 1323.35 247.556 1323.5 247.204C1323.66 246.851 1323.91 246.551 1324.25 246.339C1324.58 246.128 1324.96 246.015 1325.36 246.015C1325.63 246.015 1325.89 246.065 1326.14 246.162C1326.38 246.258 1326.6 246.401 1326.78 246.579C1326.98 246.758 1327.12 246.971 1327.23 247.204C1327.33 247.438 1327.38 247.689 1327.38 247.942Z" fill="#A2BADD"/>
<path d="M1341.06 247.942C1341.06 248.323 1340.95 248.696 1340.72 249.012C1340.5 249.329 1340.19 249.576 1339.82 249.722C1339.46 249.867 1339.05 249.906 1338.66 249.831C1338.26 249.757 1337.91 249.574 1337.63 249.304C1337.34 249.034 1337.15 248.691 1337.07 248.317C1337 247.943 1337.03 247.557 1337.19 247.204C1337.34 246.852 1337.6 246.552 1337.93 246.34C1338.26 246.128 1338.65 246.015 1339.05 246.015C1339.32 246.015 1339.58 246.065 1339.82 246.161C1340.07 246.258 1340.29 246.4 1340.48 246.579C1340.67 246.758 1340.81 246.971 1340.92 247.204C1341.02 247.438 1341.06 247.689 1341.06 247.942Z" fill="#A2BADD"/>
<path d="M1352.74 249.868C1353.85 249.868 1354.76 249.006 1354.76 247.942C1354.76 246.877 1353.85 246.015 1352.74 246.015C1351.62 246.015 1350.72 246.877 1350.72 247.942C1350.72 249.006 1351.62 249.868 1352.74 249.868Z" fill="#A2BADD"/>
<path d="M1368.45 247.942C1368.45 248.323 1368.32 248.696 1368.11 249.012C1367.89 249.329 1367.57 249.576 1367.2 249.722C1366.83 249.867 1366.43 249.906 1366.04 249.831C1365.64 249.757 1365.28 249.574 1365 249.304C1364.72 249.034 1364.53 248.691 1364.45 248.317C1364.37 247.943 1364.41 247.557 1364.57 247.204C1364.72 246.852 1364.98 246.552 1365.31 246.34C1365.64 246.128 1366.03 246.015 1366.43 246.015C1366.97 246.015 1367.48 246.218 1367.86 246.579C1368.24 246.94 1368.45 247.431 1368.45 247.942Z" fill="#A2BADD"/>
<path d="M1382.14 247.942C1382.14 248.323 1382.01 248.696 1381.8 249.012C1381.58 249.329 1381.26 249.576 1380.89 249.722C1380.52 249.867 1380.11 249.906 1379.73 249.831C1379.34 249.757 1378.97 249.574 1378.69 249.304C1378.41 249.034 1378.22 248.691 1378.14 248.317C1378.06 247.943 1378.1 247.557 1378.25 247.204C1378.41 246.852 1378.67 246.552 1379 246.34C1379.33 246.128 1379.72 246.015 1380.12 246.015C1380.66 246.015 1381.17 246.218 1381.55 246.579C1381.93 246.94 1382.14 247.431 1382.14 247.942Z" fill="#A2BADD"/>
<path d="M1313.69 261.023C1313.69 261.403 1313.57 261.776 1313.35 262.092C1313.13 262.41 1312.82 262.657 1312.45 262.802C1312.08 262.948 1311.67 262.986 1311.28 262.912C1310.89 262.838 1310.53 262.654 1310.25 262.385C1309.97 262.115 1309.77 261.772 1309.7 261.398C1309.62 261.024 1309.66 260.637 1309.81 260.285C1309.97 259.932 1310.22 259.632 1310.56 259.42C1310.89 259.209 1311.27 259.095 1311.67 259.095C1312.2 259.096 1312.72 259.299 1313.1 259.66C1313.47 260.021 1313.69 260.512 1313.69 261.023Z" fill="#A2BADD"/>
<path d="M1327.38 261.023C1327.38 261.404 1327.26 261.776 1327.04 262.093C1326.81 262.41 1326.5 262.657 1326.14 262.802C1325.77 262.948 1325.36 262.986 1324.97 262.912C1324.58 262.837 1324.22 262.654 1323.94 262.385C1323.66 262.114 1323.46 261.771 1323.38 261.397C1323.31 261.023 1323.35 260.637 1323.5 260.284C1323.66 259.932 1323.91 259.632 1324.25 259.42C1324.58 259.208 1324.96 259.095 1325.36 259.095C1325.9 259.096 1326.41 259.299 1326.78 259.66C1327.16 260.021 1327.38 260.512 1327.38 261.023Z" fill="#A2BADD"/>
<path d="M1341.06 261.023C1341.06 261.403 1340.95 261.776 1340.72 262.092C1340.5 262.41 1340.19 262.657 1339.82 262.802C1339.46 262.948 1339.05 262.986 1338.66 262.912C1338.26 262.838 1337.91 262.654 1337.63 262.385C1337.34 262.115 1337.15 261.772 1337.07 261.398C1337 261.024 1337.03 260.637 1337.19 260.285C1337.34 259.932 1337.6 259.632 1337.93 259.42C1338.26 259.209 1338.65 259.095 1339.05 259.095C1339.58 259.095 1340.1 259.299 1340.47 259.659C1340.86 260.021 1341.06 260.511 1341.06 261.023Z" fill="#A2BADD"/>
<path d="M1354.76 261.023C1354.76 261.403 1354.64 261.776 1354.41 262.092C1354.2 262.41 1353.88 262.657 1353.51 262.802C1353.14 262.948 1352.74 262.986 1352.35 262.912C1351.95 262.838 1351.59 262.654 1351.31 262.385C1351.03 262.115 1350.84 261.772 1350.76 261.398C1350.68 261.024 1350.72 260.637 1350.88 260.285C1351.03 259.932 1351.29 259.632 1351.62 259.42C1351.95 259.209 1352.34 259.095 1352.74 259.095C1353.28 259.095 1353.79 259.299 1354.17 259.659C1354.55 260.021 1354.76 260.511 1354.76 261.023Z" fill="#A2BADD"/>
<path d="M1368.45 261.023C1368.45 261.403 1368.32 261.776 1368.11 262.092C1367.89 262.41 1367.57 262.657 1367.2 262.802C1366.83 262.948 1366.43 262.986 1366.04 262.912C1365.64 262.838 1365.28 262.654 1365 262.385C1364.72 262.115 1364.53 261.772 1364.45 261.398C1364.37 261.024 1364.41 260.637 1364.57 260.285C1364.72 259.932 1364.98 259.632 1365.31 259.42C1365.64 259.209 1366.03 259.095 1366.43 259.095C1366.97 259.096 1367.48 259.299 1367.86 259.66C1368.24 260.021 1368.45 260.512 1368.45 261.023Z" fill="#A2BADD"/>
<path d="M1382.14 261.023C1382.14 261.403 1382.01 261.776 1381.8 262.092C1381.58 262.41 1381.26 262.657 1380.89 262.802C1380.52 262.948 1380.11 262.986 1379.73 262.912C1379.34 262.838 1378.97 262.654 1378.69 262.385C1378.41 262.115 1378.22 261.772 1378.14 261.398C1378.06 261.024 1378.1 260.637 1378.25 260.285C1378.41 259.932 1378.67 259.632 1379 259.42C1379.33 259.209 1379.72 259.095 1380.12 259.095C1380.66 259.096 1381.17 259.299 1381.55 259.66C1381.93 260.021 1382.14 260.512 1382.14 261.023Z" fill="#A2BADD"/>
<path d="M1395.83 261.023C1395.83 261.404 1395.7 261.776 1395.49 262.093C1395.27 262.41 1394.95 262.657 1394.58 262.802C1394.21 262.948 1393.8 262.986 1393.42 262.912C1393.03 262.837 1392.66 262.654 1392.38 262.385C1392.1 262.114 1391.9 261.771 1391.83 261.397C1391.75 261.023 1391.8 260.637 1391.94 260.284C1392.1 259.932 1392.36 259.632 1392.69 259.42C1393.02 259.208 1393.41 259.095 1393.81 259.095C1394.35 259.096 1394.86 259.299 1395.24 259.66C1395.61 260.021 1395.83 260.512 1395.83 261.023Z" fill="#A2BADD"/>
<path d="M1399.28 768.688C1399.28 769.753 1398.95 770.794 1398.33 771.68C1397.71 772.565 1396.83 773.256 1395.79 773.663C1394.76 774.07 1393.63 774.176 1392.53 773.968C1391.44 773.76 1390.44 773.247 1389.65 772.494C1388.86 771.74 1388.33 770.78 1388.11 769.735C1387.89 768.691 1388 767.608 1388.43 766.623C1388.85 765.639 1389.58 764.798 1390.51 764.206C1391.43 763.614 1392.52 763.299 1393.64 763.299C1394.37 763.299 1395.11 763.438 1395.8 763.709C1396.48 763.98 1397.1 764.377 1397.62 764.877C1398.15 765.378 1398.56 765.972 1398.85 766.625C1399.13 767.279 1399.28 767.98 1399.28 768.688Z" stroke="#DFEAFC" stroke-miterlimit="10"/>
<path d="M1437.56 768.688C1437.56 769.753 1437.23 770.795 1436.61 771.681C1435.99 772.568 1435.11 773.258 1434.07 773.666C1433.05 774.074 1431.91 774.181 1430.82 773.973C1429.72 773.764 1428.72 773.252 1427.93 772.498C1427.14 771.744 1426.6 770.784 1426.39 769.739C1426.17 768.693 1426.28 767.61 1426.71 766.625C1427.14 765.641 1427.85 764.799 1428.78 764.206C1429.71 763.615 1430.8 763.299 1431.92 763.299C1433.41 763.299 1434.85 763.867 1435.9 764.877C1436.96 765.888 1437.56 767.258 1437.56 768.688Z" stroke="#DFEAFC" stroke-miterlimit="10"/>
<path d="M1475.84 768.688C1475.84 769.753 1475.51 770.795 1474.89 771.681C1474.27 772.568 1473.39 773.258 1472.36 773.666C1471.33 774.074 1470.19 774.181 1469.1 773.973C1468.01 773.764 1467 773.252 1466.21 772.498C1465.42 771.744 1464.89 770.784 1464.67 769.739C1464.45 768.693 1464.56 767.61 1464.99 766.625C1465.41 765.641 1466.14 764.799 1467.07 764.206C1467.99 763.615 1469.08 763.299 1470.2 763.299C1470.94 763.299 1471.67 763.437 1472.36 763.709C1473.05 763.979 1473.67 764.376 1474.19 764.876C1474.71 765.377 1475.13 765.971 1475.41 766.625C1475.69 767.279 1475.84 767.98 1475.84 768.688Z" stroke="#DFEAFC" stroke-miterlimit="10"/>
<path d="M1399.28 805.266C1399.28 806.332 1398.95 807.373 1398.33 808.259C1397.71 809.144 1396.83 809.835 1395.79 810.242C1394.76 810.649 1393.63 810.755 1392.53 810.547C1391.44 810.339 1390.44 809.826 1389.65 809.072C1388.86 808.319 1388.33 807.359 1388.11 806.314C1387.89 805.27 1388 804.186 1388.43 803.202C1388.85 802.218 1389.58 801.377 1390.51 800.785C1391.43 800.193 1392.52 799.877 1393.64 799.877C1394.37 799.877 1395.11 800.016 1395.8 800.287C1396.48 800.559 1397.1 800.956 1397.62 801.456C1398.15 801.956 1398.56 802.55 1398.85 803.204C1399.13 803.858 1399.28 804.559 1399.28 805.266Z" stroke="#DFEAFC" stroke-miterlimit="10"/>
<path d="M1437.56 805.266C1437.56 806.332 1437.23 807.374 1436.61 808.26C1435.99 809.146 1435.11 809.837 1434.07 810.245C1433.05 810.652 1431.91 810.76 1430.82 810.552C1429.72 810.343 1428.72 809.831 1427.93 809.077C1427.14 808.323 1426.6 807.363 1426.39 806.317C1426.17 805.272 1426.28 804.189 1426.71 803.204C1427.14 802.22 1427.85 801.377 1428.78 800.785C1429.71 800.193 1430.8 799.877 1431.92 799.877C1433.41 799.877 1434.85 800.445 1435.9 801.455C1436.96 802.467 1437.56 803.837 1437.56 805.266Z" stroke="#DFEAFC" stroke-miterlimit="10"/>
<path d="M1475.84 805.266C1475.84 806.332 1475.51 807.374 1474.89 808.26C1474.27 809.146 1473.39 809.837 1472.36 810.245C1471.33 810.652 1470.19 810.76 1469.1 810.552C1468.01 810.343 1467 809.831 1466.21 809.077C1465.42 808.323 1464.89 807.363 1464.67 806.317C1464.45 805.272 1464.56 804.189 1464.99 803.204C1465.41 802.22 1466.14 801.377 1467.07 800.785C1467.99 800.193 1469.08 799.877 1470.2 799.877C1470.94 799.877 1471.67 800.016 1472.36 800.286C1473.05 800.558 1473.67 800.955 1474.19 801.455C1474.71 801.956 1475.13 802.55 1475.41 803.203C1475.69 803.857 1475.84 804.558 1475.84 805.266Z" stroke="#DFEAFC" stroke-miterlimit="10"/>
<path d="M1.61365 670.652C2.3841 670.652 3.00869 670.054 3.00869 669.319C3.00869 668.582 2.3841 667.985 1.61365 667.985C0.8432 667.985 0.218628 668.582 0.218628 669.319C0.218628 670.054 0.8432 670.652 1.61365 670.652Z" fill="#4181E0"/>
<path d="M19.8098 670.652C20.5802 670.652 21.2048 670.054 21.2048 669.319C21.2048 668.582 20.5802 667.985 19.8098 667.985C19.0393 667.985 18.4147 668.582 18.4147 669.319C18.4147 670.054 19.0393 670.652 19.8098 670.652Z" fill="#4181E0"/>
<path d="M1.61365 687.891C2.3841 687.891 3.00869 687.293 3.00869 686.557C3.00869 685.821 2.3841 685.224 1.61365 685.224C0.8432 685.224 0.218628 685.821 0.218628 686.557C0.218628 687.293 0.8432 687.891 1.61365 687.891Z" fill="#4181E0"/>
<path d="M19.8098 687.891C20.5802 687.891 21.2048 687.293 21.2048 686.557C21.2048 685.821 20.5802 685.224 19.8098 685.224C19.0393 685.224 18.4147 685.821 18.4147 686.557C18.4147 687.293 19.0393 687.891 19.8098 687.891Z" fill="#4181E0"/>
<path d="M3.00869 703.796C3.00869 704.06 2.92683 704.317 2.77357 704.536C2.62029 704.756 2.40242 704.927 2.14751 705.028C1.8926 705.129 1.6121 705.154 1.34149 705.104C1.07089 705.052 0.822328 704.925 0.627222 704.739C0.432125 704.552 0.299261 704.314 0.245437 704.056C0.191604 703.797 0.219233 703.529 0.324817 703.285C0.430401 703.042 0.609203 702.834 0.838613 702.687C1.06802 702.54 1.33774 702.463 1.61365 702.463C1.98364 702.463 2.33847 702.603 2.60008 702.853C2.86173 703.103 3.00869 703.442 3.00869 703.796Z" fill="#4181E0"/>
<path d="M21.2041 703.796C21.2041 704.06 21.1222 704.317 20.969 704.536C20.8157 704.756 20.5978 704.927 20.3429 705.028C20.088 705.129 19.8075 705.154 19.5369 705.104C19.2663 705.052 19.0177 704.925 18.8226 704.739C18.6275 704.552 18.4947 704.314 18.4408 704.056C18.3871 703.797 18.4147 703.529 18.5203 703.285C18.6259 703.042 18.8046 702.834 19.034 702.687C19.2635 702.54 19.5332 702.463 19.8091 702.463C19.9923 702.463 20.1736 702.497 20.3429 702.564C20.5122 702.631 20.6659 702.729 20.7955 702.853C20.925 702.977 21.0278 703.124 21.0979 703.285C21.168 703.447 21.2041 703.621 21.2041 703.796Z" fill="#4181E0"/>
<path d="M3.00869 721.036C3.00849 721.3 2.92663 721.557 2.77328 721.776C2.61988 721.995 2.40196 722.167 2.14704 722.267C1.89212 722.368 1.61165 722.394 1.34109 722.342C1.07052 722.292 0.822024 722.164 0.626986 721.978C0.431957 721.791 0.299151 721.554 0.245386 721.295C0.19161 721.037 0.219278 720.768 0.324882 720.525C0.430485 720.282 0.609287 720.073 0.838687 719.926C1.06808 719.78 1.33777 719.702 1.61365 719.702C1.98369 719.702 2.33852 719.843 2.60012 720.093C2.86173 720.343 3.00869 720.682 3.00869 721.036Z" fill="#4181E0"/>
<path d="M21.2041 721.036C21.204 721.3 21.122 721.557 20.9687 721.776C20.8153 721.995 20.5974 722.167 20.3425 722.267C20.0875 722.368 19.8071 722.394 19.5365 722.342C19.2659 722.292 19.0174 722.164 18.8224 721.978C18.6274 721.791 18.4946 721.554 18.4408 721.295C18.3871 721.037 18.4147 720.768 18.5203 720.525C18.6259 720.282 18.8047 720.073 19.0341 719.926C19.2635 719.78 19.5332 719.702 19.8091 719.702C19.9923 719.702 20.1737 719.737 20.3431 719.803C20.5124 719.871 20.6661 719.969 20.7958 720.093C20.9253 720.217 21.0281 720.364 21.0981 720.525C21.1681 720.687 21.2042 720.861 21.2041 721.036Z" fill="#4181E0"/>
<path d="M35.8291 670.652C36.5995 670.652 37.2241 670.054 37.2241 669.319C37.2241 668.582 36.5995 667.985 35.8291 667.985C35.0586 667.985 34.434 668.582 34.434 669.319C34.434 670.054 35.0586 670.652 35.8291 670.652Z" fill="#4181E0"/>
<path d="M54.0252 670.652C54.7957 670.652 55.4202 670.054 55.4202 669.319C55.4202 668.582 54.7957 667.985 54.0252 667.985C53.2548 667.985 52.6301 668.582 52.6301 669.319C52.6301 670.054 53.2548 670.652 54.0252 670.652Z" fill="#4181E0"/>
<path d="M72.2213 670.652C72.9917 670.652 73.6163 670.054 73.6163 669.319C73.6163 668.582 72.9917 667.985 72.2213 667.985C71.4508 667.985 70.8262 668.582 70.8262 669.319C70.8262 670.054 71.4508 670.652 72.2213 670.652Z" fill="#4181E0"/>
<path d="M90.4174 670.652C91.1876 670.652 91.8124 670.054 91.8124 669.319C91.8124 668.582 91.1876 667.985 90.4174 667.985C89.647 667.985 89.0223 668.582 89.0223 669.319C89.0223 670.054 89.647 670.652 90.4174 670.652Z" fill="#4181E0"/>
<path d="M35.8291 687.891C36.5995 687.891 37.2241 687.293 37.2241 686.557C37.2241 685.821 36.5995 685.224 35.8291 685.224C35.0586 685.224 34.434 685.821 34.434 686.557C34.434 687.293 35.0586 687.891 35.8291 687.891Z" fill="#4181E0"/>
<path d="M54.0252 687.891C54.7957 687.891 55.4202 687.293 55.4202 686.557C55.4202 685.821 54.7957 685.224 54.0252 685.224C53.2548 685.224 52.6301 685.821 52.6301 686.557C52.6301 687.293 53.2548 687.891 54.0252 687.891Z" fill="#4181E0"/>
<path d="M72.2213 687.891C72.9917 687.891 73.6163 687.293 73.6163 686.557C73.6163 685.821 72.9917 685.224 72.2213 685.224C71.4508 685.224 70.8262 685.821 70.8262 686.557C70.8262 687.293 71.4508 687.891 72.2213 687.891Z" fill="#4181E0"/>
<path d="M90.4174 687.891C91.1876 687.891 91.8124 687.293 91.8124 686.557C91.8124 685.821 91.1876 685.224 90.4174 685.224C89.647 685.224 89.0223 685.821 89.0223 686.557C89.0223 687.293 89.647 687.891 90.4174 687.891Z" fill="#4181E0"/>
<path d="M37.2241 703.796C37.2241 704.06 37.1423 704.317 36.989 704.536C36.8357 704.756 36.6179 704.927 36.3629 705.028C36.108 705.129 35.8276 705.154 35.5569 705.104C35.2863 705.052 35.0377 704.925 34.8426 704.739C34.6475 704.552 34.5147 704.314 34.4608 704.056C34.4071 703.797 34.4347 703.529 34.5403 703.285C34.6459 703.042 34.8246 702.834 35.054 702.687C35.2834 702.54 35.5532 702.463 35.8291 702.463C36.1991 702.463 36.5539 702.603 36.8155 702.853C37.0772 703.103 37.2241 703.442 37.2241 703.796Z" fill="#4181E0"/>
<path d="M55.4202 703.796C55.4202 704.06 55.3383 704.317 55.185 704.536C55.0318 704.756 54.8139 704.927 54.5589 705.028C54.3041 705.129 54.0236 705.154 53.7529 705.104C53.4824 705.052 53.2338 704.925 53.0387 704.739C52.8436 704.552 52.7108 704.314 52.6569 704.056C52.6031 703.797 52.6307 703.529 52.7363 703.285C52.8419 703.042 53.0207 702.834 53.2501 702.687C53.4795 702.54 53.7493 702.463 54.0252 702.463C54.3951 702.463 54.75 702.603 55.0115 702.853C55.2732 703.103 55.4202 703.442 55.4202 703.796Z" fill="#4181E0"/>
<path d="M73.6163 703.796C73.6163 704.06 73.5345 704.317 73.3812 704.536C73.2279 704.756 73.0101 704.927 72.7552 705.028C72.5002 705.129 72.2198 705.154 71.9491 705.104C71.6785 705.052 71.4299 704.925 71.2348 704.739C71.0397 704.552 70.9069 704.314 70.8531 704.056C70.7993 703.797 70.8269 703.529 70.9325 703.285C71.0381 703.042 71.2168 702.834 71.4462 702.687C71.6757 702.54 71.9454 702.463 72.2213 702.463C72.5913 702.463 72.9461 702.603 73.2077 702.853C73.4694 703.103 73.6163 703.442 73.6163 703.796Z" fill="#4181E0"/>
<path d="M91.8114 703.796C91.8114 704.06 91.7301 704.317 91.577 704.536C91.423 704.756 91.206 704.927 90.9502 705.028C90.6954 705.129 90.4155 705.154 90.1442 705.104C89.8739 705.052 89.6254 704.925 89.4302 704.739C89.2352 704.552 89.1023 704.314 89.0486 704.056C88.9947 703.797 89.0223 703.529 89.1279 703.285C89.2335 703.042 89.4122 702.834 89.6417 702.687C89.8711 702.54 90.1403 702.463 90.4164 702.463C90.5995 702.463 90.7817 702.497 90.9502 702.564C91.1197 702.631 91.2738 702.729 91.4036 702.853C91.5324 702.977 91.6351 703.124 91.7058 703.285C91.7756 703.447 91.8114 703.621 91.8114 703.796Z" fill="#4181E0"/>
<path d="M37.2241 721.036C37.224 721.3 37.1421 721.557 36.9887 721.776C36.8354 721.995 36.6174 722.167 36.3625 722.267C36.1075 722.368 35.8271 722.394 35.5565 722.342C35.2859 722.292 35.0374 722.164 34.8424 721.978C34.6474 721.791 34.5146 721.554 34.4608 721.295C34.4071 721.037 34.4347 720.768 34.5403 720.525C34.6459 720.282 34.8247 720.073 35.0541 719.926C35.2835 719.78 35.5532 719.702 35.8291 719.702C36.0123 719.702 36.1938 719.737 36.3631 719.803C36.5324 719.871 36.6862 719.969 36.8158 720.093C36.9453 720.217 37.048 720.364 37.1181 720.525C37.1882 720.687 37.2242 720.861 37.2241 721.036Z" fill="#4181E0"/>
<path d="M55.4202 721.036C55.4201 721.3 55.3381 721.557 55.1847 721.776C55.0314 721.995 54.8134 722.167 54.5585 722.267C54.3036 722.368 54.0231 722.394 53.7525 722.342C53.482 722.292 53.2335 722.164 53.0385 721.978C52.8435 721.791 52.7107 721.554 52.6569 721.295C52.6031 721.037 52.6307 720.768 52.7363 720.525C52.8419 720.282 53.0208 720.073 53.2502 719.926C53.4796 719.78 53.7493 719.702 54.0252 719.702C54.2083 719.702 54.3898 719.737 54.5591 719.803C54.7285 719.871 54.8822 719.969 55.0118 720.093C55.1413 720.217 55.244 720.364 55.3142 720.525C55.3842 720.687 55.4203 720.861 55.4202 721.036Z" fill="#4181E0"/>
<path d="M73.6163 721.036C73.6162 721.3 73.5343 721.557 73.3809 721.776C73.2276 721.995 73.0096 722.167 72.7547 722.267C72.4997 722.368 72.2193 722.394 71.9487 722.342C71.6781 722.292 71.4297 722.164 71.2346 721.978C71.0396 721.791 70.9068 721.554 70.8531 721.295C70.7993 721.037 70.8269 720.768 70.9325 720.525C71.0381 720.282 71.2169 720.073 71.4463 719.926C71.6757 719.78 71.9454 719.702 72.2213 719.702C72.5914 719.702 72.9461 719.843 73.2078 720.093C73.4694 720.343 73.6163 720.682 73.6163 721.036Z" fill="#4181E0"/>
<path d="M91.8115 721.036C91.8115 721.3 91.7301 721.557 91.5761 721.776C91.423 721.995 91.205 722.167 90.9503 722.267C90.6955 722.368 90.4145 722.394 90.1443 722.342C89.8736 722.292 89.6251 722.164 89.4301 721.978C89.2351 721.791 89.1023 721.554 89.0485 721.295C88.9947 721.037 89.0223 720.768 89.1279 720.525C89.2336 720.282 89.4124 720.073 89.6418 719.926C89.8712 719.78 90.1413 719.702 90.4165 719.702C90.5996 719.702 90.7817 719.737 90.9512 719.803C91.1198 719.871 91.2738 719.969 91.4036 720.093C91.5334 720.217 91.6361 720.364 91.7059 720.525C91.7756 720.687 91.8115 720.861 91.8115 721.036Z" fill="#4181E0"/>
<path d="M35.8291 738.311C36.5995 738.311 37.2241 737.714 37.2241 736.977C37.2241 736.241 36.5995 735.644 35.8291 735.644C35.0586 735.644 34.434 736.241 34.434 736.977C34.434 737.714 35.0586 738.311 35.8291 738.311Z" fill="#4181E0"/>
<path d="M54.0252 738.311C54.7957 738.311 55.4202 737.714 55.4202 736.977C55.4202 736.241 54.7957 735.644 54.0252 735.644C53.2548 735.644 52.6301 736.241 52.6301 736.977C52.6301 737.714 53.2548 738.311 54.0252 738.311Z" fill="#4181E0"/>
<path d="M72.2213 738.311C72.9917 738.311 73.6163 737.714 73.6163 736.977C73.6163 736.241 72.9917 735.644 72.2213 735.644C71.4508 735.644 70.8262 736.241 70.8262 736.977C70.8262 737.714 71.4508 738.311 72.2213 738.311Z" fill="#4181E0"/>
<path d="M90.4174 738.311C91.1876 738.311 91.8124 737.714 91.8124 736.977C91.8124 736.241 91.1876 735.644 90.4174 735.644C89.647 735.644 89.0223 736.241 89.0223 736.977C89.0223 737.714 89.647 738.311 90.4174 738.311Z" fill="#4181E0"/>
<path d="M35.8291 755.549C36.5995 755.549 37.2241 754.953 37.2241 754.216C37.2241 753.479 36.5995 752.883 35.8291 752.883C35.0586 752.883 34.434 753.479 34.434 754.216C34.434 754.953 35.0586 755.549 35.8291 755.549Z" fill="#4181E0"/>
<path d="M54.0252 755.549C54.7957 755.549 55.4202 754.953 55.4202 754.216C55.4202 753.479 54.7957 752.883 54.0252 752.883C53.2548 752.883 52.6301 753.479 52.6301 754.216C52.6301 754.953 53.2548 755.549 54.0252 755.549Z" fill="#4181E0"/>
<path d="M72.2213 755.549C72.9917 755.549 73.6163 754.953 73.6163 754.216C73.6163 753.479 72.9917 752.883 72.2213 752.883C71.4508 752.883 70.8262 753.479 70.8262 754.216C70.8262 754.953 71.4508 755.549 72.2213 755.549Z" fill="#4181E0"/>
<path d="M90.4174 755.549C91.1876 755.549 91.8124 754.953 91.8124 754.216C91.8124 753.479 91.1876 752.883 90.4174 752.883C89.647 752.883 89.0223 753.479 89.0223 754.216C89.0223 754.953 89.647 755.549 90.4174 755.549Z" fill="#4181E0"/>
<path d="M37.224 771.455C37.224 771.718 37.1422 771.976 36.9889 772.196C36.8357 772.415 36.6178 772.585 36.3628 772.686C36.1079 772.787 35.8275 772.814 35.5568 772.762C35.2862 772.711 35.0377 772.583 34.8426 772.397C34.6475 772.211 34.5146 771.974 34.4608 771.715C34.4069 771.456 34.4346 771.188 34.5401 770.945C34.6457 770.701 34.8245 770.493 35.0539 770.346C35.2833 770.2 35.5531 770.121 35.829 770.121C36.199 770.121 36.5539 770.262 36.8154 770.512C37.0771 770.762 37.224 771.101 37.224 771.455Z" fill="#4181E0"/>
<path d="M55.4202 771.455C55.4202 771.718 55.3383 771.976 55.1851 772.196C55.0318 772.415 54.8139 772.585 54.559 772.686C54.3041 772.787 54.0236 772.814 53.753 772.762C53.4824 772.711 53.2338 772.583 53.0387 772.397C52.8436 772.211 52.7108 771.974 52.6569 771.715C52.6031 771.456 52.6308 771.188 52.7364 770.945C52.8419 770.701 53.0207 770.493 53.2501 770.346C53.4795 770.2 53.7492 770.121 54.0252 770.121C54.3952 770.121 54.7499 770.262 55.0116 770.512C55.2732 770.762 55.4202 771.101 55.4202 771.455Z" fill="#4181E0"/>
<path d="M73.6163 771.455C73.6163 771.718 73.5345 771.976 73.3812 772.196C73.228 772.415 73.0101 772.585 72.7551 772.686C72.5002 772.787 72.2198 772.814 71.9491 772.762C71.6785 772.711 71.43 772.583 71.2348 772.397C71.0397 772.211 70.9069 771.974 70.8531 771.715C70.7993 771.456 70.8269 771.188 70.9324 770.945C71.038 770.701 71.2168 770.493 71.4462 770.346C71.6756 770.2 71.9454 770.121 72.2213 770.121C72.5913 770.121 72.9462 770.262 73.2077 770.512C73.4694 770.762 73.6163 771.101 73.6163 771.455Z" fill="#4181E0"/>
<path d="M91.8115 771.455C91.8115 771.718 91.7301 771.976 91.577 772.196C91.423 772.415 91.205 772.585 90.9503 772.686C90.6955 772.787 90.4155 772.814 90.1443 772.762C89.874 772.711 89.6254 772.583 89.4303 772.397C89.2352 772.211 89.1024 771.974 89.0485 771.715C88.9947 771.456 89.0223 771.188 89.1279 770.945C89.2335 770.701 89.4123 770.493 89.6418 770.346C89.8712 770.2 90.1404 770.121 90.4165 770.121C90.5996 770.121 90.7817 770.156 90.9503 770.223C91.1198 770.289 91.2738 770.389 91.4036 770.512C91.5325 770.636 91.6352 770.783 91.7059 770.945C91.7756 771.107 91.8115 771.28 91.8115 771.455Z" fill="#4181E0"/>
<path d="M37.224 788.694C37.2238 788.958 37.142 789.216 36.9886 789.436C36.8352 789.655 36.6173 789.825 36.3624 789.926C36.1074 790.027 35.827 790.053 35.5564 790.002C35.2858 789.95 35.0374 789.823 34.8424 789.636C34.6473 789.45 34.5145 789.213 34.4608 788.954C34.4069 788.695 34.4346 788.428 34.5402 788.184C34.6458 787.94 34.8246 787.732 35.054 787.586C35.2834 787.439 35.5531 787.361 35.829 787.361C36.0122 787.361 36.1937 787.395 36.363 787.463C36.5322 787.529 36.6861 787.627 36.8156 787.751C36.9452 787.875 37.0479 788.023 37.118 788.184C37.1881 788.346 37.2241 788.519 37.224 788.694Z" fill="#4181E0"/>
<path d="M55.4202 788.694C55.42 788.958 55.3381 789.216 55.1848 789.436C55.0313 789.655 54.8135 789.825 54.5586 789.926C54.3036 790.027 54.0232 790.053 53.7526 790.002C53.482 789.95 53.2335 789.823 53.0385 789.636C52.8434 789.45 52.7107 789.213 52.6569 788.954C52.6031 788.695 52.6308 788.428 52.7364 788.184C52.842 787.94 53.0208 787.732 53.2502 787.586C53.4796 787.439 53.7493 787.361 54.0252 787.361C54.2084 787.361 54.3898 787.395 54.5592 787.463C54.7284 787.529 54.8822 787.627 55.0119 787.751C55.1414 787.875 55.2441 788.023 55.3142 788.184C55.3842 788.346 55.4203 788.519 55.4202 788.694Z" fill="#4181E0"/>
<path d="M73.6164 788.694C73.6162 788.958 73.5343 789.216 73.381 789.436C73.2276 789.655 73.0096 789.825 72.7548 789.926C72.4998 790.027 72.2193 790.053 71.9488 790.002C71.6782 789.95 71.4297 789.823 71.2347 789.636C71.0397 789.45 70.9069 789.213 70.8531 788.954C70.7992 788.695 70.8269 788.428 70.9325 788.184C71.0381 787.94 71.217 787.732 71.4464 787.586C71.6758 787.439 71.9455 787.361 72.2214 787.361C72.5914 787.361 72.9462 787.501 73.2077 787.751C73.4694 788.002 73.6164 788.341 73.6164 788.694Z" fill="#4181E0"/>
<path d="M91.8115 788.694C91.8115 788.958 91.7301 789.216 91.5761 789.436C91.423 789.655 91.205 789.825 90.9503 789.926C90.6955 790.027 90.4145 790.053 90.1443 790.002C89.8736 789.95 89.6251 789.823 89.4301 789.636C89.2351 789.45 89.1023 789.213 89.0485 788.954C88.9947 788.695 89.0223 788.428 89.1279 788.184C89.2336 787.94 89.4124 787.732 89.6418 787.586C89.8712 787.439 90.1413 787.361 90.4165 787.361C90.5996 787.361 90.7817 787.395 90.9512 787.463C91.1198 787.529 91.2738 787.627 91.4036 787.751C91.5334 787.875 91.6361 788.023 91.7059 788.184C91.7756 788.346 91.8115 788.519 91.8115 788.694Z" fill="#4181E0"/>
<path d="M1.61365 738.311C2.3841 738.311 3.00869 737.714 3.00869 736.977C3.00869 736.241 2.3841 735.644 1.61365 735.644C0.8432 735.644 0.218628 736.241 0.218628 736.977C0.218628 737.714 0.8432 738.311 1.61365 738.311Z" fill="#4181E0"/>
<path d="M19.8098 738.311C20.5802 738.311 21.2048 737.714 21.2048 736.977C21.2048 736.241 20.5802 735.644 19.8098 735.644C19.0393 735.644 18.4147 736.241 18.4147 736.977C18.4147 737.714 19.0393 738.311 19.8098 738.311Z" fill="#4181E0"/>
<path d="M1.61365 755.549C2.3841 755.549 3.00869 754.953 3.00869 754.216C3.00869 753.479 2.3841 752.883 1.61365 752.883C0.8432 752.883 0.218628 753.479 0.218628 754.216C0.218628 754.953 0.8432 755.549 1.61365 755.549Z" fill="#4181E0"/>
<path d="M19.8098 755.549C20.5802 755.549 21.2048 754.953 21.2048 754.216C21.2048 753.479 20.5802 752.883 19.8098 752.883C19.0393 752.883 18.4147 753.479 18.4147 754.216C18.4147 754.953 19.0393 755.549 19.8098 755.549Z" fill="#4181E0"/>
<path d="M3.00869 771.455C3.00869 771.718 2.92683 771.976 2.77357 772.196C2.62029 772.415 2.40242 772.585 2.14751 772.686C1.8926 772.787 1.6121 772.814 1.34149 772.762C1.07089 772.711 0.822328 772.583 0.627222 772.397C0.432125 772.211 0.299261 771.974 0.245437 771.715C0.191604 771.456 0.219233 771.188 0.324817 770.945C0.430401 770.701 0.609203 770.493 0.838613 770.346C1.06802 770.2 1.33774 770.121 1.61365 770.121C1.98364 770.121 2.33847 770.262 2.60008 770.512C2.86173 770.762 3.00869 771.101 3.00869 771.455Z" fill="#4181E0"/>
<path d="M21.2041 771.455C21.2041 771.718 21.1222 771.976 20.969 772.196C20.8157 772.415 20.5978 772.585 20.3429 772.686C20.088 772.787 19.8075 772.814 19.5369 772.762C19.2663 772.711 19.0177 772.583 18.8226 772.397C18.6275 772.211 18.4947 771.974 18.4408 771.715C18.3871 771.456 18.4147 771.188 18.5203 770.945C18.6259 770.701 18.8046 770.493 19.034 770.346C19.2635 770.2 19.5332 770.121 19.8091 770.121C19.9923 770.121 20.1736 770.156 20.3429 770.223C20.5122 770.289 20.6659 770.389 20.7955 770.512C20.925 770.636 21.0278 770.783 21.0979 770.945C21.168 771.107 21.2041 771.28 21.2041 771.455Z" fill="#4181E0"/>
<path d="M3.00869 788.694C3.00849 788.958 2.92663 789.216 2.77328 789.436C2.61988 789.655 2.40196 789.825 2.14704 789.926C1.89212 790.027 1.61165 790.053 1.34109 790.002C1.07052 789.95 0.822024 789.823 0.626986 789.636C0.431957 789.45 0.299151 789.213 0.245386 788.954C0.19161 788.695 0.219278 788.428 0.324882 788.184C0.430485 787.94 0.609287 787.732 0.838687 787.586C1.06808 787.439 1.33777 787.361 1.61365 787.361C1.98369 787.361 2.33852 787.501 2.60012 787.751C2.86173 788.002 3.00869 788.341 3.00869 788.694Z" fill="#4181E0"/>
<path d="M21.2041 788.694C21.204 788.958 21.122 789.216 20.9687 789.436C20.8153 789.655 20.5974 789.825 20.3425 789.926C20.0875 790.027 19.8071 790.053 19.5365 790.002C19.2659 789.95 19.0174 789.823 18.8224 789.636C18.6274 789.45 18.4946 789.213 18.4408 788.954C18.3871 788.695 18.4147 788.428 18.5203 788.184C18.6259 787.94 18.8047 787.732 19.0341 787.586C19.2635 787.439 19.5332 787.361 19.8091 787.361C19.9923 787.361 20.1737 787.395 20.3431 787.463C20.5124 787.529 20.6661 787.627 20.7958 787.751C20.9253 787.875 21.0281 788.023 21.0981 788.184C21.1681 788.346 21.2042 788.519 21.2041 788.694Z" fill="#4181E0"/>
<path d="M1.61365 805.969C2.3841 805.969 3.00869 805.372 3.00869 804.637C3.00869 803.9 2.3841 803.303 1.61365 803.303C0.8432 803.303 0.218628 803.9 0.218628 804.637C0.218628 805.372 0.8432 805.969 1.61365 805.969Z" fill="#4181E0"/>
<path d="M19.8098 805.969C20.5802 805.969 21.2048 805.372 21.2048 804.637C21.2048 803.9 20.5802 803.303 19.8098 803.303C19.0393 803.303 18.4147 803.9 18.4147 804.637C18.4147 805.372 19.0393 805.969 19.8098 805.969Z" fill="#4181E0"/>
<path d="M1.61365 823.208C2.3841 823.208 3.00869 822.611 3.00869 821.876C3.00869 821.139 2.3841 820.542 1.61365 820.542C0.8432 820.542 0.218628 821.139 0.218628 821.876C0.218628 822.611 0.8432 823.208 1.61365 823.208Z" fill="#4181E0"/>
<path d="M19.8098 823.208C20.5802 823.208 21.2048 822.611 21.2048 821.876C21.2048 821.139 20.5802 820.542 19.8098 820.542C19.0393 820.542 18.4147 821.139 18.4147 821.876C18.4147 822.611 19.0393 823.208 19.8098 823.208Z" fill="#4181E0"/>
<path d="M35.8291 805.969C36.5995 805.969 37.2241 805.372 37.2241 804.637C37.2241 803.9 36.5995 803.303 35.8291 803.303C35.0586 803.303 34.434 803.9 34.434 804.637C34.434 805.372 35.0586 805.969 35.8291 805.969Z" fill="#4181E0"/>
<path d="M54.0252 805.969C54.7957 805.969 55.4202 805.372 55.4202 804.637C55.4202 803.9 54.7957 803.303 54.0252 803.303C53.2548 803.303 52.6301 803.9 52.6301 804.637C52.6301 805.372 53.2548 805.969 54.0252 805.969Z" fill="#4181E0"/>
<path d="M72.2213 805.969C72.9917 805.969 73.6163 805.372 73.6163 804.637C73.6163 803.9 72.9917 803.303 72.2213 803.303C71.4508 803.303 70.8262 803.9 70.8262 804.637C70.8262 805.372 71.4508 805.969 72.2213 805.969Z" fill="#4181E0"/>
<path d="M90.4174 805.969C91.1876 805.969 91.8124 805.372 91.8124 804.637C91.8124 803.9 91.1876 803.303 90.4174 803.303C89.647 803.303 89.0223 803.9 89.0223 804.637C89.0223 805.372 89.647 805.969 90.4174 805.969Z" fill="#4181E0"/>
<path d="M35.8291 823.208C36.5995 823.208 37.2241 822.611 37.2241 821.876C37.2241 821.139 36.5995 820.542 35.8291 820.542C35.0586 820.542 34.434 821.139 34.434 821.876C34.434 822.611 35.0586 823.208 35.8291 823.208Z" fill="#4181E0"/>
<path d="M54.0252 823.208C54.7957 823.208 55.4202 822.611 55.4202 821.876C55.4202 821.139 54.7957 820.542 54.0252 820.542C53.2548 820.542 52.6301 821.139 52.6301 821.876C52.6301 822.611 53.2548 823.208 54.0252 823.208Z" fill="#4181E0"/>
<path d="M72.2213 823.208C72.9917 823.208 73.6163 822.611 73.6163 821.876C73.6163 821.139 72.9917 820.542 72.2213 820.542C71.4508 820.542 70.8262 821.139 70.8262 821.876C70.8262 822.611 71.4508 823.208 72.2213 823.208Z" fill="#4181E0"/>
<path d="M90.4174 823.208C91.1876 823.208 91.8124 822.611 91.8124 821.876C91.8124 821.139 91.1876 820.542 90.4174 820.542C89.647 820.542 89.0223 821.139 89.0223 821.876C89.0223 822.611 89.647 823.208 90.4174 823.208Z" fill="#4181E0"/>
<path d="M1782.14 249.918C1783.27 249.918 1784.18 249.045 1784.18 247.967C1784.18 246.888 1783.27 246.015 1782.14 246.015C1781.01 246.015 1780.1 246.888 1780.1 247.967C1780.1 249.045 1781.01 249.918 1782.14 249.918Z" fill="#4181E0" fill-opacity="0.34"/>
<path d="M1808.79 249.918C1809.92 249.918 1810.83 249.045 1810.83 247.967C1810.83 246.888 1809.92 246.015 1808.79 246.015C1807.66 246.015 1806.74 246.888 1806.74 247.967C1806.74 249.045 1807.66 249.918 1808.79 249.918Z" fill="#4181E0" fill-opacity="0.34"/>
<path d="M1835.44 249.918C1836.57 249.918 1837.48 249.045 1837.48 247.967C1837.48 246.888 1836.57 246.015 1835.44 246.015C1834.31 246.015 1833.39 246.888 1833.39 247.967C1833.39 249.045 1834.31 249.918 1835.44 249.918Z" fill="#4181E0" fill-opacity="0.34"/>
<path d="M1782.14 275.152C1783.27 275.152 1784.18 274.279 1784.18 273.2C1784.18 272.122 1783.27 271.249 1782.14 271.249C1781.01 271.249 1780.1 272.122 1780.1 273.2C1780.1 274.279 1781.01 275.152 1782.14 275.152Z" fill="#4181E0" fill-opacity="0.34"/>
<path d="M1808.79 275.152C1809.92 275.152 1810.83 274.279 1810.83 273.2C1810.83 272.122 1809.92 271.249 1808.79 271.249C1807.66 271.249 1806.74 272.122 1806.74 273.2C1806.74 274.279 1807.66 275.152 1808.79 275.152Z" fill="#4181E0" fill-opacity="0.34"/>
<path d="M1835.44 275.152C1836.57 275.152 1837.48 274.279 1837.48 273.2C1837.48 272.122 1836.57 271.249 1835.44 271.249C1834.31 271.249 1833.39 272.122 1833.39 273.2C1833.39 274.279 1834.31 275.152 1835.44 275.152Z" fill="#4181E0" fill-opacity="0.34"/>
<path d="M1784.18 298.435C1784.18 298.82 1784.06 299.198 1783.84 299.519C1783.62 299.84 1783.3 300.09 1782.92 300.237C1782.55 300.385 1782.14 300.424 1781.74 300.348C1781.34 300.273 1780.98 300.087 1780.69 299.814C1780.41 299.541 1780.22 299.194 1780.14 298.815C1780.05 298.436 1780.1 298.044 1780.26 297.688C1780.41 297.331 1780.67 297.026 1781 296.811C1781.34 296.598 1781.74 296.483 1782.14 296.483C1782.68 296.483 1783.2 296.688 1783.59 297.055C1783.97 297.42 1784.18 297.917 1784.18 298.435Z" fill="#4181E0" fill-opacity="0.34"/>
<path d="M1810.83 298.435C1810.83 298.82 1810.71 299.198 1810.49 299.519C1810.26 299.84 1809.95 300.09 1809.57 300.237C1809.19 300.385 1808.79 300.424 1808.39 300.348C1807.99 300.273 1807.63 300.087 1807.34 299.814C1807.06 299.541 1806.87 299.194 1806.78 298.815C1806.7 298.436 1806.74 298.044 1806.9 297.688C1807.05 297.331 1807.31 297.026 1807.65 296.811C1807.99 296.598 1808.39 296.483 1808.79 296.483C1809.33 296.483 1809.85 296.688 1810.23 297.055C1810.62 297.42 1810.83 297.917 1810.83 298.435Z" fill="#4181E0" fill-opacity="0.34"/>
<path d="M1837.48 298.435C1837.48 298.82 1837.36 299.198 1837.14 299.519C1836.91 299.84 1836.59 300.09 1836.22 300.237C1835.84 300.385 1835.44 300.424 1835.04 300.348C1834.64 300.273 1834.28 300.087 1833.99 299.814C1833.71 299.541 1833.51 299.194 1833.43 298.815C1833.35 298.436 1833.39 298.044 1833.55 297.688C1833.7 297.331 1833.96 297.026 1834.3 296.811C1834.64 296.598 1835.03 296.483 1835.44 296.483C1835.98 296.483 1836.5 296.688 1836.88 297.055C1837.27 297.42 1837.48 297.917 1837.48 298.435Z" fill="#4181E0" fill-opacity="0.34"/>
<path d="M1784.18 323.67C1784.18 324.056 1784.06 324.434 1783.84 324.754C1783.62 325.075 1783.3 325.325 1782.92 325.473C1782.55 325.62 1782.14 325.659 1781.74 325.583C1781.34 325.508 1780.98 325.322 1780.69 325.049C1780.41 324.776 1780.22 324.428 1780.14 324.05C1780.05 323.671 1780.1 323.279 1780.26 322.923C1780.41 322.565 1780.67 322.261 1781 322.046C1781.34 321.833 1781.74 321.718 1782.14 321.718C1782.41 321.718 1782.68 321.769 1782.92 321.867C1783.17 321.965 1783.4 322.108 1783.59 322.29C1783.77 322.471 1783.93 322.687 1784.03 322.924C1784.13 323.161 1784.18 323.414 1784.18 323.67Z" fill="#4181E0" fill-opacity="0.34"/>
<path d="M1810.83 323.67C1810.83 324.056 1810.71 324.434 1810.49 324.754C1810.26 325.075 1809.94 325.325 1809.57 325.473C1809.19 325.62 1808.79 325.659 1808.39 325.583C1807.99 325.508 1807.63 325.322 1807.34 325.049C1807.06 324.776 1806.87 324.428 1806.78 324.05C1806.7 323.671 1806.74 323.279 1806.9 322.923C1807.05 322.565 1807.31 322.261 1807.65 322.046C1807.99 321.833 1808.39 321.718 1808.79 321.718C1809.06 321.718 1809.32 321.769 1809.57 321.867C1809.82 321.965 1810.05 322.108 1810.23 322.29C1810.42 322.471 1810.58 322.687 1810.68 322.924C1810.78 323.161 1810.83 323.414 1810.83 323.67Z" fill="#4181E0" fill-opacity="0.34"/>
<path d="M1837.48 323.67C1837.48 324.056 1837.36 324.434 1837.14 324.754C1836.91 325.075 1836.59 325.325 1836.22 325.473C1835.84 325.62 1835.44 325.659 1835.04 325.583C1834.64 325.508 1834.28 325.322 1833.99 325.049C1833.71 324.776 1833.51 324.428 1833.43 324.05C1833.35 323.671 1833.39 323.279 1833.55 322.923C1833.7 322.565 1833.96 322.261 1834.3 322.046C1834.64 321.833 1835.03 321.718 1835.44 321.718C1835.98 321.718 1836.5 321.924 1836.88 322.29C1837.27 322.656 1837.48 323.153 1837.48 323.67Z" fill="#4181E0" fill-opacity="0.34"/>
<path d="M1678.73 249.918C1679.86 249.918 1680.78 249.045 1680.78 247.967C1680.78 246.888 1679.86 246.015 1678.73 246.015C1677.6 246.015 1676.69 246.888 1676.69 247.967C1676.69 249.045 1677.6 249.918 1678.73 249.918Z" fill="#4181E0" fill-opacity="0.34"/>
<path d="M1705.38 249.918C1706.51 249.918 1707.43 249.045 1707.43 247.967C1707.43 246.888 1706.51 246.015 1705.38 246.015C1704.25 246.015 1703.34 246.888 1703.34 247.967C1703.34 249.045 1704.25 249.918 1705.38 249.918Z" fill="#4181E0" fill-opacity="0.34"/>
<path d="M1732.03 249.918C1733.16 249.918 1734.08 249.045 1734.08 247.967C1734.08 246.888 1733.16 246.015 1732.03 246.015C1730.9 246.015 1729.99 246.888 1729.99 247.967C1729.99 249.045 1730.9 249.918 1732.03 249.918Z" fill="#4181E0" fill-opacity="0.34"/>
<path d="M1758.68 249.918C1759.81 249.918 1760.73 249.045 1760.73 247.967C1760.73 246.888 1759.81 246.015 1758.68 246.015C1757.55 246.015 1756.64 246.888 1756.64 247.967C1756.64 249.045 1757.55 249.918 1758.68 249.918Z" fill="#4181E0" fill-opacity="0.34"/>
<path d="M1678.73 275.152C1679.86 275.152 1680.78 274.279 1680.78 273.2C1680.78 272.122 1679.86 271.249 1678.73 271.249C1677.6 271.249 1676.69 272.122 1676.69 273.2C1676.69 274.279 1677.6 275.152 1678.73 275.152Z" fill="#4181E0" fill-opacity="0.34"/>
<path d="M1705.38 275.152C1706.51 275.152 1707.43 274.279 1707.43 273.2C1707.43 272.122 1706.51 271.249 1705.38 271.249C1704.25 271.249 1703.34 272.122 1703.34 273.2C1703.34 274.279 1704.25 275.152 1705.38 275.152Z" fill="#4181E0" fill-opacity="0.34"/>
<path d="M1732.03 275.152C1733.16 275.152 1734.08 274.279 1734.08 273.2C1734.08 272.122 1733.16 271.249 1732.03 271.249C1730.9 271.249 1729.99 272.122 1729.99 273.2C1729.99 274.279 1730.9 275.152 1732.03 275.152Z" fill="#4181E0" fill-opacity="0.34"/>
<path d="M1758.68 275.152C1759.81 275.152 1760.73 274.279 1760.73 273.2C1760.73 272.122 1759.81 271.249 1758.68 271.249C1757.55 271.249 1756.64 272.122 1756.64 273.2C1756.64 274.279 1757.55 275.152 1758.68 275.152Z" fill="#4181E0" fill-opacity="0.34"/>
<path d="M1680.78 298.435C1680.78 298.82 1680.65 299.198 1680.43 299.519C1680.2 299.84 1679.88 300.09 1679.52 300.237C1679.14 300.385 1678.73 300.424 1678.33 300.348C1677.94 300.273 1677.57 300.087 1677.29 299.814C1677 299.541 1676.8 299.194 1676.73 298.815C1676.65 298.436 1676.69 298.044 1676.84 297.688C1677 297.331 1677.26 297.026 1677.6 296.811C1677.93 296.598 1678.32 296.483 1678.73 296.483C1679.27 296.483 1679.79 296.688 1680.17 297.055C1680.56 297.42 1680.78 297.917 1680.78 298.435Z" fill="#4181E0" fill-opacity="0.34"/>
<path d="M1707.43 298.435C1707.43 298.82 1707.3 299.198 1707.08 299.519C1706.85 299.84 1706.53 300.09 1706.17 300.237C1705.79 300.385 1705.38 300.424 1704.98 300.348C1704.59 300.273 1704.22 300.087 1703.94 299.814C1703.65 299.541 1703.45 299.194 1703.38 298.815C1703.3 298.436 1703.34 298.044 1703.49 297.688C1703.65 297.331 1703.91 297.026 1704.25 296.811C1704.58 296.598 1704.97 296.483 1705.38 296.483C1705.92 296.483 1706.44 296.688 1706.83 297.055C1707.2 297.42 1707.43 297.917 1707.43 298.435Z" fill="#4181E0" fill-opacity="0.34"/>
<path d="M1734.08 298.435C1734.08 298.82 1733.95 299.198 1733.73 299.519C1733.5 299.84 1733.19 300.09 1732.81 300.237C1732.44 300.385 1732.02 300.424 1731.64 300.348C1731.24 300.273 1730.87 300.087 1730.59 299.814C1730.3 299.541 1730.1 299.194 1730.03 298.815C1729.95 298.436 1729.99 298.044 1730.14 297.688C1730.3 297.331 1730.56 297.026 1730.9 296.811C1731.23 296.598 1731.63 296.483 1732.03 296.483C1732.57 296.483 1733.09 296.688 1733.48 297.055C1733.85 297.42 1734.08 297.917 1734.08 298.435Z" fill="#4181E0" fill-opacity="0.34"/>
<path d="M1760.72 298.435C1760.72 298.82 1760.6 299.198 1760.38 299.519C1760.16 299.84 1759.84 300.09 1759.46 300.237C1759.09 300.385 1758.67 300.424 1758.28 300.348C1757.88 300.273 1757.52 300.087 1757.23 299.814C1756.95 299.541 1756.75 299.194 1756.68 298.815C1756.6 298.436 1756.64 298.044 1756.79 297.688C1756.95 297.331 1757.21 297.026 1757.54 296.811C1757.88 296.598 1758.28 296.483 1758.67 296.483C1758.94 296.483 1759.22 296.534 1759.46 296.632C1759.71 296.73 1759.93 296.873 1760.13 297.055C1760.31 297.236 1760.47 297.451 1760.56 297.688C1760.67 297.925 1760.72 298.178 1760.72 298.435Z" fill="#4181E0" fill-opacity="0.34"/>
<path d="M1680.78 323.67C1680.78 324.056 1680.65 324.434 1680.43 324.754C1680.2 325.075 1679.88 325.325 1679.52 325.473C1679.14 325.62 1678.73 325.659 1678.33 325.583C1677.94 325.508 1677.57 325.322 1677.29 325.049C1677 324.776 1676.8 324.428 1676.73 324.05C1676.65 323.671 1676.69 323.279 1676.84 322.923C1677 322.565 1677.26 322.261 1677.6 322.046C1677.93 321.833 1678.32 321.718 1678.73 321.718C1679 321.718 1679.26 321.769 1679.52 321.867C1679.76 321.965 1679.98 322.108 1680.17 322.29C1680.37 322.471 1680.51 322.687 1680.62 322.924C1680.72 323.161 1680.78 323.414 1680.78 323.67Z" fill="#4181E0" fill-opacity="0.34"/>
<path d="M1707.43 323.67C1707.43 324.056 1707.3 324.434 1707.08 324.754C1706.85 325.075 1706.53 325.325 1706.16 325.473C1705.79 325.62 1705.37 325.659 1704.98 325.583C1704.59 325.508 1704.22 325.322 1703.94 325.049C1703.65 324.776 1703.45 324.428 1703.38 324.05C1703.3 323.671 1703.34 323.279 1703.49 322.923C1703.65 322.565 1703.91 322.261 1704.25 322.046C1704.58 321.833 1704.97 321.718 1705.38 321.718C1705.65 321.718 1705.91 321.769 1706.17 321.867C1706.41 321.965 1706.63 322.108 1706.83 322.29C1707.02 322.471 1707.16 322.687 1707.27 322.924C1707.37 323.161 1707.43 323.414 1707.43 323.67Z" fill="#4181E0" fill-opacity="0.34"/>
<path d="M1734.08 323.67C1734.08 324.056 1733.95 324.434 1733.73 324.754C1733.5 325.075 1733.19 325.325 1732.81 325.473C1732.44 325.62 1732.02 325.659 1731.63 325.583C1731.24 325.508 1730.87 325.322 1730.59 325.049C1730.3 324.776 1730.1 324.428 1730.03 324.05C1729.95 323.671 1729.99 323.279 1730.14 322.923C1730.3 322.565 1730.56 322.261 1730.9 322.046C1731.23 321.833 1731.63 321.718 1732.03 321.718C1732.57 321.718 1733.09 321.924 1733.48 322.29C1733.85 322.656 1734.08 323.153 1734.08 323.67Z" fill="#4181E0" fill-opacity="0.34"/>
<path d="M1760.72 323.67C1760.72 324.056 1760.6 324.434 1760.38 324.754C1760.16 325.075 1759.84 325.325 1759.46 325.473C1759.09 325.62 1758.67 325.659 1758.28 325.583C1757.88 325.508 1757.52 325.322 1757.23 325.049C1756.95 324.776 1756.75 324.428 1756.68 324.05C1756.6 323.671 1756.64 323.279 1756.79 322.923C1756.95 322.565 1757.21 322.261 1757.54 322.046C1757.88 321.833 1758.28 321.718 1758.68 321.718C1758.94 321.718 1759.22 321.769 1759.46 321.867C1759.71 321.965 1759.93 322.108 1760.13 322.29C1760.31 322.471 1760.47 322.687 1760.56 322.924C1760.67 323.161 1760.72 323.414 1760.72 323.67Z" fill="#4181E0" fill-opacity="0.34"/>
<path d="M1678.73 348.957C1679.86 348.957 1680.78 348.084 1680.78 347.005C1680.78 345.927 1679.86 345.054 1678.73 345.054C1677.6 345.054 1676.69 345.927 1676.69 347.005C1676.69 348.084 1677.6 348.957 1678.73 348.957Z" fill="#4181E0" fill-opacity="0.34"/>
<path d="M1705.38 348.957C1706.51 348.957 1707.43 348.084 1707.43 347.005C1707.43 345.927 1706.51 345.054 1705.38 345.054C1704.25 345.054 1703.34 345.927 1703.34 347.005C1703.34 348.084 1704.25 348.957 1705.38 348.957Z" fill="#4181E0" fill-opacity="0.34"/>
<path d="M1732.03 348.957C1733.16 348.957 1734.08 348.084 1734.08 347.005C1734.08 345.927 1733.16 345.054 1732.03 345.054C1730.9 345.054 1729.99 345.927 1729.99 347.005C1729.99 348.084 1730.9 348.957 1732.03 348.957Z" fill="#4181E0" fill-opacity="0.34"/>
<path d="M1758.68 348.957C1759.81 348.957 1760.73 348.084 1760.73 347.005C1760.73 345.927 1759.81 345.054 1758.68 345.054C1757.55 345.054 1756.64 345.927 1756.64 347.005C1756.64 348.084 1757.55 348.957 1758.68 348.957Z" fill="#4181E0" fill-opacity="0.34"/>
<path d="M1678.73 374.191C1679.86 374.191 1680.78 373.318 1680.78 372.239C1680.78 371.161 1679.86 370.288 1678.73 370.288C1677.6 370.288 1676.69 371.161 1676.69 372.239C1676.69 373.318 1677.6 374.191 1678.73 374.191Z" fill="#4181E0" fill-opacity="0.34"/>
<path d="M1705.38 374.191C1706.51 374.191 1707.43 373.318 1707.43 372.239C1707.43 371.161 1706.51 370.288 1705.38 370.288C1704.25 370.288 1703.34 371.161 1703.34 372.239C1703.34 373.318 1704.25 374.191 1705.38 374.191Z" fill="#4181E0" fill-opacity="0.34"/>
<path d="M1732.03 374.191C1733.16 374.191 1734.08 373.318 1734.08 372.239C1734.08 371.161 1733.16 370.288 1732.03 370.288C1730.9 370.288 1729.99 371.161 1729.99 372.239C1729.99 373.318 1730.9 374.191 1732.03 374.191Z" fill="#4181E0" fill-opacity="0.34"/>
<path d="M1758.68 374.191C1759.81 374.191 1760.73 373.318 1760.73 372.239C1760.73 371.161 1759.81 370.288 1758.68 370.288C1757.55 370.288 1756.64 371.161 1756.64 372.239C1756.64 373.318 1757.55 374.191 1758.68 374.191Z" fill="#4181E0" fill-opacity="0.34"/>
<path d="M1680.78 397.474C1680.78 397.859 1680.65 398.237 1680.43 398.558C1680.2 398.879 1679.88 399.129 1679.52 399.276C1679.14 399.424 1678.73 399.463 1678.33 399.387C1677.94 399.312 1677.57 399.126 1677.29 398.853C1677 398.58 1676.8 398.233 1676.73 397.854C1676.65 397.475 1676.69 397.083 1676.84 396.727C1677 396.37 1677.26 396.065 1677.6 395.85C1677.93 395.637 1678.32 395.522 1678.73 395.522C1679.27 395.522 1679.79 395.727 1680.17 396.094C1680.56 396.459 1680.78 396.956 1680.78 397.474Z" fill="#4181E0" fill-opacity="0.34"/>
<path d="M1707.43 397.474C1707.43 397.859 1707.3 398.237 1707.08 398.558C1706.85 398.879 1706.53 399.129 1706.17 399.276C1705.79 399.424 1705.38 399.463 1704.98 399.387C1704.59 399.312 1704.22 399.126 1703.94 398.853C1703.65 398.58 1703.45 398.233 1703.38 397.854C1703.3 397.475 1703.34 397.083 1703.49 396.727C1703.65 396.37 1703.91 396.065 1704.25 395.85C1704.58 395.637 1704.97 395.522 1705.38 395.522C1705.92 395.522 1706.44 395.727 1706.83 396.094C1707.2 396.459 1707.43 396.956 1707.43 397.474Z" fill="#4181E0" fill-opacity="0.34"/>
<path d="M1734.08 397.474C1734.08 397.859 1733.95 398.237 1733.73 398.558C1733.5 398.879 1733.19 399.129 1732.81 399.276C1732.44 399.424 1732.02 399.463 1731.64 399.387C1731.24 399.312 1730.87 399.126 1730.59 398.853C1730.3 398.58 1730.1 398.233 1730.03 397.854C1729.95 397.475 1729.99 397.083 1730.14 396.727C1730.3 396.37 1730.56 396.065 1730.9 395.85C1731.23 395.637 1731.63 395.522 1732.03 395.522C1732.57 395.522 1733.09 395.727 1733.48 396.094C1733.85 396.459 1734.08 396.956 1734.08 397.474Z" fill="#4181E0" fill-opacity="0.34"/>
<path d="M1760.72 397.474C1760.72 397.859 1760.6 398.237 1760.38 398.558C1760.16 398.879 1759.84 399.129 1759.46 399.276C1759.09 399.424 1758.67 399.463 1758.28 399.387C1757.88 399.312 1757.52 399.126 1757.23 398.853C1756.95 398.58 1756.75 398.233 1756.68 397.854C1756.6 397.475 1756.64 397.083 1756.79 396.727C1756.95 396.37 1757.21 396.065 1757.54 395.85C1757.88 395.637 1758.28 395.522 1758.67 395.522C1758.94 395.522 1759.22 395.573 1759.46 395.671C1759.71 395.769 1759.93 395.912 1760.13 396.094C1760.31 396.275 1760.47 396.49 1760.56 396.727C1760.67 396.964 1760.72 397.217 1760.72 397.474Z" fill="#4181E0" fill-opacity="0.34"/>
<path d="M1680.78 422.709C1680.78 423.095 1680.65 423.473 1680.43 423.793C1680.2 424.114 1679.88 424.364 1679.52 424.512C1679.14 424.659 1678.73 424.698 1678.33 424.622C1677.94 424.547 1677.57 424.361 1677.29 424.088C1677 423.815 1676.8 423.467 1676.73 423.089C1676.65 422.71 1676.69 422.318 1676.84 421.962C1677 421.604 1677.26 421.3 1677.6 421.085C1677.93 420.872 1678.32 420.757 1678.73 420.757C1679 420.757 1679.26 420.808 1679.52 420.906C1679.76 421.004 1679.98 421.147 1680.17 421.329C1680.37 421.51 1680.51 421.726 1680.62 421.963C1680.72 422.199 1680.78 422.453 1680.78 422.709Z" fill="#4181E0" fill-opacity="0.34"/>
<path d="M1707.43 422.709C1707.43 423.095 1707.3 423.473 1707.08 423.793C1706.85 424.114 1706.53 424.364 1706.16 424.512C1705.79 424.659 1705.37 424.698 1704.98 424.622C1704.59 424.547 1704.22 424.361 1703.94 424.088C1703.65 423.815 1703.45 423.467 1703.38 423.089C1703.3 422.71 1703.34 422.318 1703.49 421.962C1703.65 421.604 1703.91 421.3 1704.25 421.085C1704.58 420.872 1704.97 420.757 1705.38 420.757C1705.65 420.757 1705.91 420.808 1706.17 420.906C1706.41 421.004 1706.63 421.147 1706.83 421.329C1707.02 421.51 1707.16 421.726 1707.27 421.963C1707.37 422.199 1707.43 422.453 1707.43 422.709Z" fill="#4181E0" fill-opacity="0.34"/>
<path d="M1734.08 422.709C1734.08 423.095 1733.95 423.473 1733.73 423.793C1733.5 424.114 1733.19 424.364 1732.81 424.512C1732.44 424.659 1732.02 424.698 1731.63 424.622C1731.24 424.547 1730.87 424.361 1730.59 424.088C1730.3 423.815 1730.1 423.467 1730.03 423.089C1729.95 422.71 1729.99 422.318 1730.14 421.962C1730.3 421.604 1730.56 421.3 1730.9 421.085C1731.23 420.872 1731.63 420.757 1732.03 420.757C1732.57 420.757 1733.09 420.963 1733.48 421.329C1733.85 421.695 1734.08 422.192 1734.08 422.709Z" fill="#4181E0" fill-opacity="0.34"/>
<path d="M1760.72 422.709C1760.72 423.095 1760.6 423.473 1760.38 423.793C1760.16 424.114 1759.84 424.364 1759.46 424.512C1759.09 424.659 1758.67 424.698 1758.28 424.622C1757.88 424.547 1757.52 424.361 1757.23 424.088C1756.95 423.815 1756.75 423.467 1756.68 423.089C1756.6 422.71 1756.64 422.318 1756.79 421.962C1756.95 421.604 1757.21 421.3 1757.54 421.085C1757.88 420.872 1758.28 420.757 1758.68 420.757C1758.94 420.757 1759.22 420.808 1759.46 420.906C1759.71 421.004 1759.93 421.147 1760.13 421.329C1760.31 421.51 1760.47 421.726 1760.56 421.963C1760.67 422.199 1760.72 422.453 1760.72 422.709Z" fill="#4181E0" fill-opacity="0.34"/>
<path d="M1782.14 348.957C1783.27 348.957 1784.18 348.084 1784.18 347.005C1784.18 345.927 1783.27 345.054 1782.14 345.054C1781.01 345.054 1780.1 345.927 1780.1 347.005C1780.1 348.084 1781.01 348.957 1782.14 348.957Z" fill="#4181E0" fill-opacity="0.34"/>
<path d="M1808.79 348.957C1809.92 348.957 1810.83 348.084 1810.83 347.005C1810.83 345.927 1809.92 345.054 1808.79 345.054C1807.66 345.054 1806.74 345.927 1806.74 347.005C1806.74 348.084 1807.66 348.957 1808.79 348.957Z" fill="#4181E0" fill-opacity="0.34"/>
<path d="M1835.44 348.957C1836.57 348.957 1837.48 348.084 1837.48 347.005C1837.48 345.927 1836.57 345.054 1835.44 345.054C1834.31 345.054 1833.39 345.927 1833.39 347.005C1833.39 348.084 1834.31 348.957 1835.44 348.957Z" fill="#4181E0" fill-opacity="0.34"/>
<path d="M1782.14 374.191C1783.27 374.191 1784.18 373.318 1784.18 372.239C1784.18 371.161 1783.27 370.288 1782.14 370.288C1781.01 370.288 1780.1 371.161 1780.1 372.239C1780.1 373.318 1781.01 374.191 1782.14 374.191Z" fill="#4181E0" fill-opacity="0.34"/>
<path d="M1808.79 374.191C1809.92 374.191 1810.83 373.318 1810.83 372.239C1810.83 371.161 1809.92 370.288 1808.79 370.288C1807.66 370.288 1806.74 371.161 1806.74 372.239C1806.74 373.318 1807.66 374.191 1808.79 374.191Z" fill="#4181E0" fill-opacity="0.34"/>
<path d="M1835.44 374.191C1836.57 374.191 1837.48 373.318 1837.48 372.239C1837.48 371.161 1836.57 370.288 1835.44 370.288C1834.31 370.288 1833.39 371.161 1833.39 372.239C1833.39 373.318 1834.31 374.191 1835.44 374.191Z" fill="#4181E0" fill-opacity="0.34"/>
<path d="M1784.18 397.474C1784.18 397.859 1784.06 398.237 1783.84 398.558C1783.62 398.879 1783.3 399.129 1782.92 399.276C1782.55 399.424 1782.14 399.463 1781.74 399.387C1781.34 399.312 1780.98 399.126 1780.69 398.853C1780.41 398.58 1780.22 398.233 1780.14 397.854C1780.05 397.475 1780.1 397.083 1780.26 396.727C1780.41 396.37 1780.67 396.065 1781 395.85C1781.34 395.637 1781.74 395.522 1782.14 395.522C1782.68 395.522 1783.2 395.727 1783.59 396.094C1783.97 396.459 1784.18 396.956 1784.18 397.474Z" fill="#4181E0" fill-opacity="0.34"/>
<path d="M1810.83 397.474C1810.83 397.859 1810.71 398.237 1810.49 398.558C1810.26 398.879 1809.95 399.129 1809.57 399.276C1809.19 399.424 1808.79 399.463 1808.39 399.387C1807.99 399.312 1807.63 399.126 1807.34 398.853C1807.06 398.58 1806.87 398.233 1806.78 397.854C1806.7 397.475 1806.74 397.083 1806.9 396.727C1807.05 396.37 1807.31 396.065 1807.65 395.85C1807.99 395.637 1808.39 395.522 1808.79 395.522C1809.33 395.522 1809.85 395.727 1810.23 396.094C1810.62 396.459 1810.83 396.956 1810.83 397.474Z" fill="#4181E0" fill-opacity="0.34"/>
<path d="M1837.48 397.474C1837.48 397.859 1837.36 398.237 1837.14 398.558C1836.91 398.879 1836.59 399.129 1836.22 399.276C1835.84 399.424 1835.44 399.463 1835.04 399.387C1834.64 399.312 1834.28 399.126 1833.99 398.853C1833.71 398.58 1833.51 398.233 1833.43 397.854C1833.35 397.475 1833.39 397.083 1833.55 396.727C1833.7 396.37 1833.96 396.065 1834.3 395.85C1834.64 395.637 1835.03 395.522 1835.44 395.522C1835.98 395.522 1836.5 395.727 1836.88 396.094C1837.27 396.459 1837.48 396.956 1837.48 397.474Z" fill="#4181E0" fill-opacity="0.34"/>
<path d="M1784.18 422.709C1784.18 423.095 1784.06 423.473 1783.84 423.793C1783.62 424.114 1783.3 424.364 1782.92 424.512C1782.55 424.659 1782.14 424.698 1781.74 424.622C1781.34 424.547 1780.98 424.361 1780.69 424.088C1780.41 423.815 1780.22 423.467 1780.14 423.089C1780.05 422.71 1780.1 422.318 1780.26 421.962C1780.41 421.604 1780.67 421.3 1781 421.085C1781.34 420.872 1781.74 420.757 1782.14 420.757C1782.41 420.757 1782.68 420.808 1782.92 420.906C1783.17 421.004 1783.4 421.147 1783.59 421.329C1783.77 421.51 1783.93 421.726 1784.03 421.963C1784.13 422.199 1784.18 422.453 1784.18 422.709Z" fill="#4181E0" fill-opacity="0.34"/>
<path d="M1810.83 422.709C1810.83 423.095 1810.71 423.473 1810.49 423.793C1810.26 424.114 1809.94 424.364 1809.57 424.512C1809.19 424.659 1808.79 424.698 1808.39 424.622C1807.99 424.547 1807.63 424.361 1807.34 424.088C1807.06 423.815 1806.87 423.467 1806.78 423.089C1806.7 422.71 1806.74 422.318 1806.9 421.962C1807.05 421.604 1807.31 421.3 1807.65 421.085C1807.99 420.872 1808.39 420.757 1808.79 420.757C1809.06 420.757 1809.32 420.808 1809.57 420.906C1809.82 421.004 1810.05 421.147 1810.23 421.329C1810.42 421.51 1810.58 421.726 1810.68 421.963C1810.78 422.199 1810.83 422.453 1810.83 422.709Z" fill="#4181E0" fill-opacity="0.34"/>
<path d="M1837.48 422.709C1837.48 423.095 1837.36 423.473 1837.14 423.793C1836.91 424.114 1836.59 424.364 1836.22 424.512C1835.84 424.659 1835.44 424.698 1835.04 424.622C1834.64 424.547 1834.28 424.361 1833.99 424.088C1833.71 423.815 1833.51 423.467 1833.43 423.089C1833.35 422.71 1833.39 422.318 1833.55 421.962C1833.7 421.604 1833.96 421.3 1834.3 421.085C1834.64 420.872 1835.03 420.757 1835.44 420.757C1835.98 420.757 1836.5 420.963 1836.88 421.329C1837.27 421.695 1837.48 422.192 1837.48 422.709Z" fill="#4181E0" fill-opacity="0.34"/>
<path d="M1678.73 447.996C1679.86 447.996 1680.78 447.123 1680.78 446.045C1680.78 444.966 1679.86 444.093 1678.73 444.093C1677.6 444.093 1676.69 444.966 1676.69 446.045C1676.69 447.123 1677.6 447.996 1678.73 447.996Z" fill="#4181E0" fill-opacity="0.34"/>
<path d="M1705.38 447.996C1706.51 447.996 1707.43 447.123 1707.43 446.045C1707.43 444.966 1706.51 444.093 1705.38 444.093C1704.25 444.093 1703.34 444.966 1703.34 446.045C1703.34 447.123 1704.25 447.996 1705.38 447.996Z" fill="#4181E0" fill-opacity="0.34"/>
<path d="M1732.03 447.996C1733.16 447.996 1734.08 447.123 1734.08 446.045C1734.08 444.966 1733.16 444.093 1732.03 444.093C1730.9 444.093 1729.99 444.966 1729.99 446.045C1729.99 447.123 1730.9 447.996 1732.03 447.996Z" fill="#4181E0" fill-opacity="0.34"/>
<path d="M1758.68 447.996C1759.81 447.996 1760.73 447.123 1760.73 446.045C1760.73 444.966 1759.81 444.093 1758.68 444.093C1757.55 444.093 1756.64 444.966 1756.64 446.045C1756.64 447.123 1757.55 447.996 1758.68 447.996Z" fill="#4181E0" fill-opacity="0.34"/>
<path d="M1678.73 473.23C1679.86 473.23 1680.78 472.356 1680.78 471.278C1680.78 470.2 1679.86 469.327 1678.73 469.327C1677.6 469.327 1676.69 470.2 1676.69 471.278C1676.69 472.356 1677.6 473.23 1678.73 473.23Z" fill="#4181E0" fill-opacity="0.34"/>
<path d="M1705.38 473.23C1706.51 473.23 1707.43 472.356 1707.43 471.278C1707.43 470.2 1706.51 469.327 1705.38 469.327C1704.25 469.327 1703.34 470.2 1703.34 471.278C1703.34 472.356 1704.25 473.23 1705.38 473.23Z" fill="#4181E0" fill-opacity="0.34"/>
<path d="M1732.03 473.23C1733.16 473.23 1734.08 472.356 1734.08 471.278C1734.08 470.2 1733.16 469.327 1732.03 469.327C1730.9 469.327 1729.99 470.2 1729.99 471.278C1729.99 472.356 1730.9 473.23 1732.03 473.23Z" fill="#4181E0" fill-opacity="0.34"/>
<path d="M1758.68 473.23C1759.81 473.23 1760.73 472.356 1760.73 471.278C1760.73 470.2 1759.81 469.327 1758.68 469.327C1757.55 469.327 1756.64 470.2 1756.64 471.278C1756.64 472.356 1757.55 473.23 1758.68 473.23Z" fill="#4181E0" fill-opacity="0.34"/>
<path d="M1680.78 496.512C1680.78 496.898 1680.65 497.276 1680.43 497.597C1680.2 497.918 1679.88 498.168 1679.52 498.315C1679.14 498.463 1678.73 498.502 1678.33 498.426C1677.94 498.351 1677.57 498.165 1677.29 497.892C1677 497.619 1676.8 497.272 1676.73 496.893C1676.65 496.514 1676.69 496.122 1676.84 495.766C1677 495.409 1677.26 495.104 1677.6 494.889C1677.93 494.676 1678.32 494.561 1678.73 494.561C1679.27 494.561 1679.79 494.766 1680.17 495.133C1680.56 495.498 1680.78 495.995 1680.78 496.512Z" fill="#4181E0" fill-opacity="0.34"/>
<path d="M1707.43 496.512C1707.43 496.898 1707.3 497.276 1707.08 497.597C1706.85 497.918 1706.53 498.168 1706.17 498.315C1705.79 498.463 1705.38 498.502 1704.98 498.426C1704.59 498.351 1704.22 498.165 1703.94 497.892C1703.65 497.619 1703.45 497.272 1703.38 496.893C1703.3 496.514 1703.34 496.122 1703.49 495.766C1703.65 495.409 1703.91 495.104 1704.25 494.889C1704.58 494.676 1704.97 494.561 1705.38 494.561C1705.92 494.561 1706.44 494.766 1706.83 495.133C1707.2 495.498 1707.43 495.995 1707.43 496.512Z" fill="#4181E0" fill-opacity="0.34"/>
<path d="M1734.08 496.512C1734.08 496.898 1733.95 497.276 1733.73 497.597C1733.5 497.918 1733.19 498.168 1732.81 498.315C1732.44 498.463 1732.02 498.502 1731.64 498.426C1731.24 498.351 1730.87 498.165 1730.59 497.892C1730.3 497.619 1730.1 497.272 1730.03 496.893C1729.95 496.514 1729.99 496.122 1730.14 495.766C1730.3 495.409 1730.56 495.104 1730.9 494.889C1731.23 494.676 1731.63 494.561 1732.03 494.561C1732.57 494.561 1733.09 494.766 1733.48 495.133C1733.85 495.498 1734.08 495.995 1734.08 496.512Z" fill="#4181E0" fill-opacity="0.34"/>
<path d="M1760.72 496.512C1760.72 496.898 1760.6 497.276 1760.38 497.597C1760.16 497.918 1759.84 498.168 1759.46 498.315C1759.09 498.463 1758.67 498.502 1758.28 498.426C1757.88 498.351 1757.52 498.165 1757.23 497.892C1756.95 497.619 1756.75 497.272 1756.68 496.893C1756.6 496.514 1756.64 496.122 1756.79 495.766C1756.95 495.409 1757.21 495.104 1757.54 494.889C1757.88 494.676 1758.28 494.561 1758.67 494.561C1758.94 494.561 1759.22 494.612 1759.46 494.71C1759.71 494.808 1759.93 494.951 1760.13 495.133C1760.31 495.314 1760.47 495.529 1760.56 495.766C1760.67 496.003 1760.72 496.256 1760.72 496.512Z" fill="#4181E0" fill-opacity="0.34"/>
<path d="M1680.78 521.748C1680.78 522.134 1680.65 522.512 1680.43 522.832C1680.2 523.153 1679.88 523.403 1679.52 523.551C1679.14 523.698 1678.73 523.737 1678.33 523.661C1677.94 523.586 1677.57 523.4 1677.29 523.127C1677 522.854 1676.8 522.506 1676.73 522.128C1676.65 521.749 1676.69 521.357 1676.84 521.001C1677 520.644 1677.26 520.339 1677.6 520.124C1677.93 519.911 1678.32 519.796 1678.73 519.796C1679 519.796 1679.26 519.847 1679.52 519.945C1679.76 520.043 1679.98 520.186 1680.17 520.368C1680.37 520.549 1680.51 520.765 1680.62 521.002C1680.72 521.239 1680.78 521.492 1680.78 521.748Z" fill="#4181E0" fill-opacity="0.34"/>
<path d="M1707.43 521.748C1707.43 522.134 1707.3 522.512 1707.08 522.832C1706.85 523.153 1706.53 523.403 1706.16 523.551C1705.79 523.698 1705.37 523.737 1704.98 523.661C1704.59 523.586 1704.22 523.4 1703.94 523.127C1703.65 522.854 1703.45 522.506 1703.38 522.128C1703.3 521.749 1703.34 521.357 1703.49 521.001C1703.65 520.644 1703.91 520.339 1704.25 520.124C1704.58 519.911 1704.97 519.796 1705.38 519.796C1705.65 519.796 1705.91 519.847 1706.17 519.945C1706.41 520.043 1706.63 520.186 1706.83 520.368C1707.02 520.549 1707.16 520.765 1707.27 521.002C1707.37 521.239 1707.43 521.492 1707.43 521.748Z" fill="#4181E0" fill-opacity="0.34"/>
<path d="M1734.08 521.748C1734.08 522.134 1733.95 522.512 1733.73 522.832C1733.5 523.153 1733.19 523.403 1732.81 523.551C1732.44 523.698 1732.02 523.737 1731.63 523.661C1731.24 523.586 1730.87 523.4 1730.59 523.127C1730.3 522.854 1730.1 522.506 1730.03 522.128C1729.95 521.749 1729.99 521.357 1730.14 521.001C1730.3 520.644 1730.56 520.339 1730.9 520.124C1731.23 519.911 1731.63 519.796 1732.03 519.796C1732.57 519.796 1733.09 520.002 1733.48 520.368C1733.85 520.734 1734.08 521.231 1734.08 521.748Z" fill="#4181E0" fill-opacity="0.34"/>
<path d="M1760.72 521.748C1760.72 522.134 1760.6 522.512 1760.38 522.832C1760.16 523.153 1759.84 523.403 1759.46 523.551C1759.09 523.698 1758.67 523.737 1758.28 523.661C1757.88 523.586 1757.52 523.4 1757.23 523.127C1756.95 522.854 1756.75 522.506 1756.68 522.128C1756.6 521.749 1756.64 521.357 1756.79 521.001C1756.95 520.644 1757.21 520.339 1757.54 520.124C1757.88 519.911 1758.28 519.796 1758.68 519.796C1758.94 519.796 1759.22 519.847 1759.46 519.945C1759.71 520.043 1759.93 520.186 1760.13 520.368C1760.31 520.549 1760.47 520.765 1760.56 521.002C1760.67 521.239 1760.72 521.492 1760.72 521.748Z" fill="#4181E0" fill-opacity="0.34"/>
<path d="M1782.14 447.996C1783.27 447.996 1784.18 447.123 1784.18 446.045C1784.18 444.966 1783.27 444.093 1782.14 444.093C1781.01 444.093 1780.1 444.966 1780.1 446.045C1780.1 447.123 1781.01 447.996 1782.14 447.996Z" fill="#4181E0" fill-opacity="0.34"/>
<path d="M1808.79 447.996C1809.92 447.996 1810.83 447.123 1810.83 446.045C1810.83 444.966 1809.92 444.093 1808.79 444.093C1807.66 444.093 1806.74 444.966 1806.74 446.045C1806.74 447.123 1807.66 447.996 1808.79 447.996Z" fill="#4181E0" fill-opacity="0.34"/>
<path d="M1835.44 447.996C1836.57 447.996 1837.48 447.123 1837.48 446.045C1837.48 444.966 1836.57 444.093 1835.44 444.093C1834.31 444.093 1833.39 444.966 1833.39 446.045C1833.39 447.123 1834.31 447.996 1835.44 447.996Z" fill="#4181E0" fill-opacity="0.34"/>
<path d="M1782.14 473.23C1783.27 473.23 1784.18 472.356 1784.18 471.278C1784.18 470.2 1783.27 469.327 1782.14 469.327C1781.01 469.327 1780.1 470.2 1780.1 471.278C1780.1 472.356 1781.01 473.23 1782.14 473.23Z" fill="#4181E0" fill-opacity="0.34"/>
<path d="M1808.79 473.23C1809.92 473.23 1810.83 472.356 1810.83 471.278C1810.83 470.2 1809.92 469.327 1808.79 469.327C1807.66 469.327 1806.74 470.2 1806.74 471.278C1806.74 472.356 1807.66 473.23 1808.79 473.23Z" fill="#4181E0" fill-opacity="0.34"/>
<path d="M1835.44 473.23C1836.57 473.23 1837.48 472.356 1837.48 471.278C1837.48 470.2 1836.57 469.327 1835.44 469.327C1834.31 469.327 1833.39 470.2 1833.39 471.278C1833.39 472.356 1834.31 473.23 1835.44 473.23Z" fill="#4181E0" fill-opacity="0.34"/>
<path d="M1784.18 496.512C1784.18 496.898 1784.06 497.276 1783.84 497.597C1783.62 497.918 1783.3 498.168 1782.92 498.315C1782.55 498.463 1782.14 498.502 1781.74 498.426C1781.34 498.351 1780.98 498.165 1780.69 497.892C1780.41 497.619 1780.22 497.272 1780.14 496.893C1780.05 496.514 1780.1 496.122 1780.26 495.766C1780.41 495.409 1780.67 495.104 1781 494.889C1781.34 494.676 1781.74 494.561 1782.14 494.561C1782.68 494.561 1783.2 494.766 1783.59 495.133C1783.97 495.498 1784.18 495.995 1784.18 496.512Z" fill="#4181E0" fill-opacity="0.34"/>
<path d="M1810.83 496.512C1810.83 496.898 1810.71 497.276 1810.49 497.597C1810.26 497.918 1809.95 498.168 1809.57 498.315C1809.19 498.463 1808.79 498.502 1808.39 498.426C1807.99 498.351 1807.63 498.165 1807.34 497.892C1807.06 497.619 1806.87 497.272 1806.78 496.893C1806.7 496.514 1806.74 496.122 1806.9 495.766C1807.05 495.409 1807.31 495.104 1807.65 494.889C1807.99 494.676 1808.39 494.561 1808.79 494.561C1809.33 494.561 1809.85 494.766 1810.23 495.133C1810.62 495.498 1810.83 495.995 1810.83 496.512Z" fill="#4181E0" fill-opacity="0.34"/>
<path d="M1837.48 496.512C1837.48 496.898 1837.36 497.276 1837.14 497.597C1836.91 497.918 1836.59 498.168 1836.22 498.315C1835.84 498.463 1835.44 498.502 1835.04 498.426C1834.64 498.351 1834.28 498.165 1833.99 497.892C1833.71 497.619 1833.51 497.272 1833.43 496.893C1833.35 496.514 1833.39 496.122 1833.55 495.766C1833.7 495.409 1833.96 495.104 1834.3 494.889C1834.64 494.676 1835.03 494.561 1835.44 494.561C1835.98 494.561 1836.5 494.766 1836.88 495.133C1837.27 495.498 1837.48 495.995 1837.48 496.512Z" fill="#4181E0" fill-opacity="0.34"/>
<path d="M1784.18 521.748C1784.18 522.134 1784.06 522.512 1783.84 522.832C1783.62 523.153 1783.3 523.403 1782.92 523.551C1782.55 523.698 1782.14 523.737 1781.74 523.661C1781.34 523.586 1780.98 523.4 1780.69 523.127C1780.41 522.854 1780.22 522.506 1780.14 522.128C1780.05 521.749 1780.1 521.357 1780.26 521.001C1780.41 520.644 1780.67 520.339 1781 520.124C1781.34 519.911 1781.74 519.796 1782.14 519.796C1782.41 519.796 1782.68 519.847 1782.92 519.945C1783.17 520.043 1783.4 520.186 1783.59 520.368C1783.77 520.549 1783.93 520.765 1784.03 521.002C1784.13 521.239 1784.18 521.492 1784.18 521.748Z" fill="#4181E0" fill-opacity="0.34"/>
<path d="M1810.83 521.748C1810.83 522.134 1810.71 522.512 1810.49 522.832C1810.26 523.153 1809.94 523.403 1809.57 523.551C1809.19 523.698 1808.79 523.737 1808.39 523.661C1807.99 523.586 1807.63 523.4 1807.34 523.127C1807.06 522.854 1806.87 522.506 1806.78 522.128C1806.7 521.749 1806.74 521.357 1806.9 521.001C1807.05 520.644 1807.31 520.339 1807.65 520.124C1807.99 519.911 1808.39 519.796 1808.79 519.796C1809.06 519.796 1809.32 519.847 1809.57 519.945C1809.82 520.043 1810.05 520.186 1810.23 520.368C1810.42 520.549 1810.58 520.765 1810.68 521.002C1810.78 521.239 1810.83 521.492 1810.83 521.748Z" fill="#4181E0" fill-opacity="0.34"/>
<path d="M1837.48 521.748C1837.48 522.134 1837.36 522.512 1837.14 522.832C1836.91 523.153 1836.59 523.403 1836.22 523.551C1835.84 523.698 1835.44 523.737 1835.04 523.661C1834.64 523.586 1834.28 523.4 1833.99 523.127C1833.71 522.854 1833.51 522.506 1833.43 522.128C1833.35 521.749 1833.39 521.357 1833.55 521.001C1833.7 520.644 1833.96 520.339 1834.3 520.124C1834.64 519.911 1835.03 519.796 1835.44 519.796C1835.98 519.796 1836.5 520.002 1836.88 520.368C1837.27 520.734 1837.48 521.231 1837.48 521.748Z" fill="#4181E0" fill-opacity="0.34"/>
</svg>
